# https://github.com/mikedh/trimesh
v 1.51200000 0.94500000 1.51200000
v 1.51200000 3.78000000 1.51200000
v 1.51200000 0.94500000 0.75600000
v 1.51200000 3.78000000 0.75600000
v 1.51200000 3.96900000 0.73710000
v 1.51200000 3.78000000 0.73710000
v 1.51200000 0.94500000 1.13400000
v 1.51200000 3.96900000 1.13400000
v 1.51200000 3.78000000 1.13400000
v 1.51200000 3.96900000 1.53090000
v 1.51200000 3.78000000 1.53090000
v -3.93120000 0.70875000 -1.57747149
v -3.93120000 0.23625000 -1.57747149
v -3.93120000 0.70875000 -1.44652851
v -3.93120000 0.23625000 -1.44652851
v -3.02400000 0.47250000 0.37800000
v -3.02400000 1.60650000 0.37800000
v -3.02400000 0.47250000 -0.75600000
v -3.02400000 1.60650000 -0.75600000
v -3.02400000 0.47250000 -1.89000000
v -3.02400000 1.60650000 -1.89000000
v 1.83935745 0.94500000 0.94500000
v 1.83935745 3.78000000 0.94500000
v 1.83935745 0.94500000 1.32300000
v 1.83935745 3.78000000 1.32300000
v -3.91059711 0.47250000 -0.04896234
v -3.91059711 1.60650000 -0.04896234
v -3.91059711 0.47250000 -1.46303766
v -3.91059711 1.60650000 -1.46303766
v -3.75637500 0.70875000 -1.14372310
v -3.75637500 0.70875000 -1.88027689
v 4.67276040 0.70875000 -1.14415497
v 4.67276040 0.70875000 -1.69084503
v -4.57826040 0.70875000 1.50184503
v -4.57826040 0.70875000 0.95515497
v 1.90890000 3.96900000 1.13400000
v 1.90890000 3.78000000 1.13400000
v 1.61472528 3.96900000 1.51737611
v 1.61472528 3.78000000 1.51737611
v 1.61472528 3.96900000 0.75062390
v 1.61472528 3.78000000 0.75062390
v 4.28152851 0.70875000 -1.45530000
v 4.28152851 0.23625000 -1.45530000
v 4.28152851 0.70875000 -1.37970000
v 4.28152851 0.23625000 -1.37970000
v -0.36593897 3.02400000 0.71721531
v -0.36593897 0.94500000 0.71721531
v -0.36593897 3.02400000 0.79478469
v -0.36593897 0.94500000 0.79478469
v -4.39425000 0.70875000 -1.51200000
v 1.16827420 3.96900000 0.93555000
v 1.16827420 3.78000000 0.93555000
v 1.16827420 3.96900000 1.33245000
v 1.16827420 3.78000000 1.33245000
v -2.83500000 0.00000000 1.65375000
v -2.83500000 2.07900000 1.65375000
v -2.83500000 1.89000000 1.65375000
v -2.83500000 -0.00000000 -1.65375000
v -2.83500000 2.07900000 -1.65375000
v -2.83500000 1.89000000 -1.65375000
v 4.42260000 0.70875000 -1.41750000
v 4.42260000 0.23625000 -1.41750000
v -4.04460000 0.70875000 -1.51200000
v -4.04460000 0.23625000 -1.51200000
v 1.70100000 0.94500000 0.80664255
v 1.70100000 3.78000000 0.80664255
v 1.70100000 0.94500000 1.46135745
v 1.70100000 3.78000000 1.46135745
v -0.41580000 3.02400000 0.65779277
v -0.41580000 0.94500000 0.65779277
v -0.41580000 3.02400000 0.85420724
v -0.41580000 0.94500000 0.85420724
v 1.14688035 0.94500000 1.23183396
v 1.14688035 3.78000000 1.23183396
v 1.14688035 0.94500000 1.03616604
v 1.14688035 3.78000000 1.03616604
v 1.24471336 0.94500000 1.40128663
v 1.24471336 3.78000000 1.40128664
v 1.24471336 0.94500000 0.86671337
v 1.24471336 3.78000000 0.86671337
v 4.77225000 0.70875000 -1.41750000
v -3.90352851 0.70875000 -1.54980000
v -3.90352851 0.23625000 -1.54980000
v -3.90352851 0.70875000 -1.47420000
v -3.90352851 0.23625000 -1.47420000
v -4.25250000 0.70875000 1.30410000
v -4.25250000 0.23625000 1.30410000
v -4.25250000 0.70875000 1.15290000
v -4.25250000 0.23625000 1.15290000
v -4.25250000 0.70875000 1.22850000
v -4.25250000 0.23625000 1.22850000
v -4.25250000 1.55925000 1.22850000
v -2.00230096 0.47250000 -0.26397630
v -2.00230096 1.60650000 -0.26397630
v -2.00230096 0.47250000 -1.24802370
v -2.00230096 1.60650000 -1.24802370
v -4.29476040 0.70875000 -1.23865497
v -4.29476040 0.70875000 -1.78534503
v 1.79265082 3.96900000 0.85334918
v 1.79265082 3.78000000 0.85334918
v 1.79265082 3.96900000 1.41465083
v 1.79265082 3.78000000 1.41465083
v -3.27633862 0.47250000 -1.86156778
v -3.27633862 1.60650000 -1.86156778
v -3.27633862 0.47250000 0.34956779
v -3.27633862 1.60650000 0.34956779
v 4.13437500 0.70875000 -1.04922311
v 4.13437500 0.70875000 -1.78577689
v -3.51602370 0.47250000 -1.77769903
v -3.51602370 1.60650000 -1.77769903
v -3.51602370 0.47250000 0.26569904
v -3.51602370 1.60650000 0.26569904
v 4.30920000 0.70875000 -1.48297149
v 4.30920000 0.23625000 -1.48297149
v 4.30920000 0.70875000 -1.35202851
v 4.30920000 0.23625000 -1.35202851
v -4.15800000 0.47250000 -0.75600000
v -4.15800000 1.60650000 -0.75600000
v -0.52920000 3.02400000 0.65779277
v -0.52920000 0.94500000 0.65779277
v -0.52920000 3.02400000 0.85420724
v -0.52920000 0.94500000 0.85420724
v 1.89000000 0.00000000 0.37800000
v 1.89000000 0.94500000 0.37800000
v 1.89000000 -0.00000000 -1.89000000
v 1.89000000 0.94500000 -1.89000000
v 1.89000000 0.94500000 1.13400000
v 1.89000000 3.78000000 1.13400000
v 4.42084419 0.70875000 -0.99871097
v 4.42084419 0.70875000 -1.83628903
v -0.57906103 3.02400000 0.71721531
v -0.57906103 0.94500000 0.71721531
v -0.57906103 3.02400000 0.79478469
v -0.57906103 0.94500000 0.79478469
v 1.89537610 3.96900000 1.03127472
v 1.89537610 3.78000000 1.03127472
v 1.89537610 3.96900000 1.23672528
v 1.89537610 3.78000000 1.23672528
v 3.94739541 0.70875000 -1.27205599
v 3.94739541 0.70875000 -1.56294401
v -3.92673960 0.70875000 1.50184503
v -3.92673960 0.70875000 0.95515497
v -3.96900000 0.70875000 -1.51200000
v -3.96900000 0.23625000 -1.51200000
v -3.96900000 1.55925000 -1.51200000
v -3.96900000 0.70875000 -1.43640000
v -3.96900000 0.23625000 -1.43640000
v -3.96900000 0.70875000 -1.58760000
v -3.96900000 0.23625000 -1.58760000
v -4.31797149 0.70875000 1.19070000
v -4.31797149 0.23625000 1.19070000
v -4.31797149 0.70875000 1.26630000
v -4.31797149 0.23625000 1.26630000
v 1.60983396 0.94500000 1.49911965
v 1.60983396 3.78000000 1.49911965
v 1.60983396 0.94500000 0.76888035
v 1.60983396 3.78000000 0.76888035
v -3.73103766 0.47250000 0.13059711
v -3.73103766 1.60650000 0.13059711
v -3.73103766 0.47250000 -1.64259711
v -3.73103766 1.60650000 -1.64259711
v -1.91843221 0.47250000 -0.50366137
v -1.91843221 1.60650000 -0.50366137
v -1.91843221 0.47250000 -1.00833862
v -1.91843221 1.60650000 -1.00833862
v 4.74660459 0.70875000 -1.27205599
v 4.74660459 0.70875000 -1.56294401
v -0.55936913 3.02400000 0.82889258
v -0.55936913 0.94500000 0.82889258
v -0.55936913 3.02400000 0.68310743
v -0.55936913 0.94500000 0.68310743
v -4.17690000 0.70875000 1.22850000
v -4.17690000 0.23625000 1.22850000
v -3.82725000 0.70875000 1.22850000
v 1.31355000 3.96900000 1.47772580
v 1.31355000 3.78000000 1.47772580
v 1.31355000 3.96900000 0.79027421
v 1.31355000 3.78000000 0.79027421
v 4.27315581 0.70875000 -0.99871097
v 4.27315581 0.70875000 -1.83628903
v 4.38480000 0.70875000 -1.48297149
v 4.38480000 0.23625000 -1.48297149
v 4.38480000 0.70875000 -1.35202851
v 4.38480000 0.23625000 -1.35202851
v 4.55962500 0.70875000 -1.04922311
v 4.55962500 0.70875000 -1.78577689
v -3.64323960 0.70875000 -1.23865497
v -3.64323960 0.70875000 -1.78534503
v 1.71045000 3.96900000 1.47772580
v 1.71045000 3.78000000 1.47772580
v 1.71045000 3.96900000 0.79027421
v 1.71045000 3.78000000 0.79027421
v -0.49219191 3.02400000 0.86767727
v -0.49219191 0.94500000 0.86767727
v -0.49219191 3.02400000 0.64432274
v -0.49219191 0.94500000 0.64432274
v -4.46512500 0.70875000 0.86022310
v -4.46512500 0.70875000 1.59677689
v -0.35910000 3.02400000 0.75600000
v -0.35910000 0.94500000 0.75600000
v -4.29030000 0.70875000 1.16302851
v -4.29030000 0.23625000 1.16302851
v -4.29030000 0.70875000 1.29397149
v -4.29030000 0.23625000 1.29397149
v -4.17865581 0.70875000 1.64728904
v -4.17865581 0.70875000 0.80971096
v -4.03447149 0.70875000 -1.54980000
v -4.03447149 0.23625000 -1.54980000
v -4.03447149 0.70875000 -1.47420000
v -4.03447149 0.23625000 -1.47420000
v -2.31696234 0.47250000 0.13059711
v -2.31696234 1.60650000 0.13059711
v -2.31696234 0.47250000 -1.64259711
v -2.31696234 1.60650000 -1.64259711
v -4.12956778 0.47250000 -0.50366137
v -4.12956778 1.60650000 -0.50366137
v -4.12956778 0.47250000 -1.00833862
v -4.12956778 1.60650000 -1.00833862
v 3.92175000 0.70875000 -1.41750000
v 1.41416604 0.94500000 1.49911965
v 1.41416604 3.78000000 1.49911965
v 1.41416604 0.94500000 0.76888035
v 1.41416604 3.78000000 0.76888035
v -3.89340000 0.70875000 -1.51200000
v -3.89340000 0.23625000 -1.51200000
v 4.27140000 0.70875000 -1.41750000
v 4.27140000 0.23625000 -1.41750000
v -4.65210459 0.70875000 1.08305599
v -4.65210459 0.70875000 1.37394400
v -3.54375000 0.70875000 -1.51200000
v 4.41247149 0.70875000 -1.45530000
v 4.41247149 0.23625000 -1.45530000
v 4.41247149 0.70875000 -1.37970000
v 4.41247149 0.23625000 -1.37970000
v -0.47250000 3.02400000 0.75600000
v -0.47250000 0.94500000 0.75600000
v 1.12862389 3.96900000 1.03127472
v 1.12862389 3.78000000 1.03127472
v 1.12862389 3.96900000 1.23672528
v 1.12862389 3.78000000 1.23672528
v 4.02123960 0.70875000 -1.14415497
v 4.02123960 0.70875000 -1.69084503
v -3.85289541 0.70875000 1.08305599
v -3.85289541 0.70875000 1.37394400
v -4.18162500 0.70875000 -1.14372310
v -4.18162500 0.70875000 -1.88027689
v -1.89000000 0.47250000 -0.75600000
v -1.89000000 1.60650000 -0.75600000
v -4.00680000 0.70875000 -1.57747149
v -4.00680000 0.23625000 -1.57747149
v -4.00680000 0.70875000 -1.44652851
v -4.00680000 0.23625000 -1.44652851
v 1.13400000 0.94500000 1.13400000
v 1.13400000 3.78000000 1.13400000
v 4.15800000 0.00000000 0.37800000
v 4.15800000 0.94500000 0.37800000
v 4.15800000 -0.00000000 -1.89000000
v 4.15800000 0.94500000 -1.89000000
v -2.53197630 0.47250000 -1.77769903
v -2.53197630 1.60650000 -1.77769903
v -2.53197630 0.47250000 0.26569904
v -2.53197630 1.60650000 0.26569904
v -3.89515581 0.70875000 -1.09321096
v -3.89515581 0.70875000 -1.93078903
v 1.23134918 3.96900000 0.85334918
v 1.23134918 3.78000000 0.85334918
v 1.23134918 3.96900000 1.41465083
v 1.23134918 3.78000000 1.41465083
v -2.77166137 0.47250000 -1.86156778
v -2.77166137 1.60650000 -1.86156778
v -2.77166137 0.47250000 0.34956779
v -2.77166137 1.60650000 0.34956779
v -4.32634419 0.70875000 1.64728904
v -4.32634419 0.70875000 0.80971096
v -4.04569904 0.47250000 -0.26397630
v -4.04569904 1.60650000 -0.26397630
v -4.04569904 0.47250000 -1.24802370
v -4.04569904 1.60650000 -1.24802370
v -4.21470000 0.70875000 1.16302851
v -4.21470000 0.23625000 1.16302851
v -4.21470000 0.70875000 1.29397149
v -4.21470000 0.23625000 1.29397149
v -0.58590000 3.02400000 0.75600000
v -0.58590000 0.94500000 0.75600000
v -4.03987500 0.70875000 0.86022310
v -4.03987500 0.70875000 1.59677689
v -4.36860459 0.70875000 -1.36655599
v -4.36860459 0.70875000 -1.65744400
v -0.45280809 3.02400000 0.86767727
v -0.45280809 0.94500000 0.86767727
v -0.45280809 3.02400000 0.64432274
v -0.45280809 0.94500000 0.64432274
v 1.77928664 0.94500000 1.40128663
v 1.77928664 3.78000000 1.40128664
v 1.77928664 0.94500000 0.86671337
v 1.77928664 3.78000000 0.86671337
v 1.87711965 0.94500000 1.23183396
v 1.87711965 3.78000000 1.23183396
v 1.87711965 0.94500000 1.03616604
v 1.87711965 3.78000000 1.03616604
v 1.32300000 0.94500000 0.80664255
v 1.32300000 3.78000000 0.80664255
v 1.32300000 0.94500000 1.46135745
v 1.32300000 3.78000000 1.46135745
v 2.83500000 0.00000000 1.65375000
v 2.83500000 2.07900000 1.65375000
v 2.83500000 1.89000000 1.65375000
v 2.83500000 -0.00000000 -1.65375000
v 2.83500000 2.07900000 -1.65375000
v 2.83500000 1.89000000 -1.65375000
v 4.34700000 0.70875000 -1.41750000
v 4.34700000 0.23625000 -1.41750000
v 4.34700000 1.55925000 -1.41750000
v 4.34700000 0.70875000 -1.34190000
v 4.34700000 0.23625000 -1.34190000
v 4.34700000 0.70875000 -1.49310000
v 4.34700000 0.23625000 -1.49310000
v 1.85572579 3.96900000 0.93555000
v 1.85572579 3.78000000 0.93555000
v 1.85572579 3.96900000 1.33245000
v 1.85572579 3.78000000 1.33245000
v -4.67775000 0.70875000 1.22850000
v -3.56939541 0.70875000 -1.36655599
v -3.56939541 0.70875000 -1.65744400
v 1.40927472 3.96900000 1.51737611
v 1.40927472 3.78000000 1.51737611
v 1.40927472 3.96900000 0.75062390
v 1.40927472 3.78000000 0.75062390
v 1.11510000 3.96900000 1.13400000
v 1.11510000 3.78000000 1.13400000
v -4.32810000 0.70875000 1.22850000
v -4.32810000 0.23625000 1.22850000
v -0.38563087 3.02400000 0.82889258
v -0.38563087 0.94500000 0.82889258
v -0.38563087 3.02400000 0.68310743
v -0.38563087 0.94500000 0.68310743
v -4.18702851 0.70875000 1.19070000
v -4.18702851 0.23625000 1.19070000
v -4.18702851 0.70875000 1.26630000
v -4.18702851 0.23625000 1.26630000
v -4.04284419 0.70875000 -1.09321096
v -4.04284419 0.70875000 -1.93078903
v -2.13740289 0.47250000 -0.04896234
v -2.13740289 1.60650000 -0.04896234
v -2.13740289 0.47250000 -1.46303766
v -2.13740289 1.60650000 -1.46303766
v 1.18464255 0.94500000 0.94500000
v 1.18464255 3.78000000 0.94500000
v 1.18464255 0.94500000 1.32300000
v 1.18464255 3.78000000 1.32300000
f 174 244 92
f 244 141 92
f 141 286 92
f 286 205 92
f 205 273 92
f 273 198 92
f 198 34 92
f 34 229 92
f 229 322 92
f 322 228 92
f 228 35 92
f 35 197 92
f 197 274 92
f 274 206 92
f 206 285 92
f 285 142 92
f 142 243 92
f 243 174 92
f 90 174 244
f 90 244 141
f 90 141 286
f 90 286 205
f 90 205 273
f 90 273 198
f 90 198 34
f 90 34 229
f 90 229 322
f 90 322 228
f 90 228 35
f 90 35 197
f 90 197 274
f 90 274 206
f 90 206 285
f 90 285 142
f 90 142 243
f 90 243 174
f 230 323 145
f 323 187 145
f 187 30 145
f 30 263 145
f 263 341 145
f 341 245 145
f 245 97 145
f 97 287 145
f 287 50 145
f 50 288 145
f 288 98 145
f 98 246 145
f 246 342 145
f 342 264 145
f 264 31 145
f 31 188 145
f 188 324 145
f 324 230 145
f 143 230 323
f 143 323 187
f 143 187 30
f 143 30 263
f 143 263 341
f 143 341 245
f 143 245 97
f 143 97 287
f 143 287 50
f 143 50 288
f 143 288 98
f 143 98 246
f 143 246 342
f 143 342 264
f 143 264 31
f 143 31 188
f 143 188 324
f 143 324 230
f 81 166 313
f 166 32 313
f 32 185 313
f 185 129 313
f 129 179 313
f 179 107 313
f 107 241 313
f 241 139 313
f 139 219 313
f 219 140 313
f 140 242 313
f 242 108 313
f 108 180 313
f 180 130 313
f 130 186 313
f 186 33 313
f 33 167 313
f 167 81 313
f 311 81 166
f 311 166 32
f 311 32 185
f 311 185 129
f 311 129 179
f 311 179 107
f 311 107 241
f 311 241 139
f 311 139 219
f 311 219 140
f 311 140 242
f 311 242 108
f 311 108 180
f 311 180 130
f 311 130 186
f 311 186 33
f 311 33 167
f 311 167 81
f 173 340 339
f 339 172 173
f 340 282 281
f 281 339 340
f 282 87 86
f 86 281 282
f 87 204 203
f 203 86 87
f 204 153 152
f 152 203 204
f 153 332 331
f 331 152 153
f 332 151 150
f 150 331 332
f 151 202 201
f 201 150 151
f 202 89 88
f 88 201 202
f 89 280 279
f 279 88 89
f 280 338 337
f 337 279 280
f 338 173 172
f 172 337 338
f 91 340 173
f 91 282 340
f 91 87 282
f 91 204 87
f 91 153 204
f 91 332 153
f 91 151 332
f 91 202 151
f 91 89 202
f 91 280 89
f 91 338 280
f 91 173 338
f 90 172 339
f 90 339 281
f 90 281 86
f 90 86 203
f 90 203 152
f 90 152 331
f 90 331 150
f 90 150 201
f 90 201 88
f 90 88 279
f 90 279 337
f 90 337 172
f 225 85 84
f 84 224 225
f 85 15 14
f 14 84 85
f 15 147 146
f 146 14 15
f 147 252 251
f 251 146 147
f 252 210 209
f 209 251 252
f 210 64 63
f 63 209 210
f 64 208 207
f 207 63 64
f 208 250 249
f 249 207 208
f 250 149 148
f 148 249 250
f 149 13 12
f 12 148 149
f 13 83 82
f 82 12 13
f 83 225 224
f 224 82 83
f 144 85 225
f 144 15 85
f 144 147 15
f 144 252 147
f 144 210 252
f 144 64 210
f 144 208 64
f 144 250 208
f 144 149 250
f 144 13 149
f 144 83 13
f 144 225 83
f 143 224 84
f 143 84 14
f 143 14 146
f 143 146 251
f 143 251 209
f 143 209 63
f 143 63 207
f 143 207 249
f 143 249 148
f 143 148 12
f 143 12 82
f 143 82 224
f 62 234 233
f 233 61 62
f 234 184 183
f 183 233 234
f 184 315 314
f 314 183 184
f 315 116 115
f 115 314 315
f 116 45 44
f 44 115 116
f 45 227 226
f 226 44 45
f 227 43 42
f 42 226 227
f 43 114 113
f 113 42 43
f 114 317 316
f 316 113 114
f 317 182 181
f 181 316 317
f 182 232 231
f 231 181 182
f 232 62 61
f 61 231 232
f 312 234 62
f 312 184 234
f 312 315 184
f 312 116 315
f 312 45 116
f 312 227 45
f 312 43 227
f 312 114 43
f 312 317 114
f 312 182 317
f 312 232 182
f 312 62 232
f 311 61 233
f 311 233 183
f 311 183 314
f 311 314 115
f 311 115 44
f 311 44 226
f 311 226 42
f 311 42 113
f 311 113 316
f 311 316 181
f 311 181 231
f 311 231 61
f 125 257 255
f 126 124 256
f 125 123 124
f 257 258 256
f 123 255 256
f 125 126 258
f 255 123 125
f 256 258 126
f 124 126 125
f 256 255 257
f 256 124 123
f 258 257 125
f 247 162 163
f 163 248 247
f 162 93 94
f 94 163 162
f 93 343 344
f 344 94 93
f 343 211 212
f 212 344 343
f 211 261 262
f 262 212 211
f 261 271 272
f 272 262 261
f 271 16 17
f 17 272 271
f 16 105 106
f 106 17 16
f 105 111 112
f 112 106 105
f 111 158 159
f 159 112 111
f 158 26 27
f 27 159 158
f 26 275 276
f 276 27 26
f 275 215 216
f 216 276 275
f 215 117 118
f 118 216 215
f 117 217 218
f 218 118 117
f 217 277 278
f 278 218 217
f 277 28 29
f 29 278 277
f 28 160 161
f 161 29 28
f 160 109 110
f 110 161 160
f 109 103 104
f 104 110 109
f 103 20 21
f 21 104 103
f 20 269 270
f 270 21 20
f 269 259 260
f 260 270 269
f 259 213 214
f 214 260 259
f 213 345 346
f 346 214 213
f 345 95 96
f 96 346 345
f 95 164 165
f 165 96 95
f 164 247 248
f 248 165 164
f 18 162 247
f 18 93 162
f 18 343 93
f 18 211 343
f 18 261 211
f 18 271 261
f 18 16 271
f 18 105 16
f 18 111 105
f 18 158 111
f 18 26 158
f 18 275 26
f 18 215 275
f 18 117 215
f 18 217 117
f 18 277 217
f 18 28 277
f 18 160 28
f 18 109 160
f 18 103 109
f 18 20 103
f 18 269 20
f 18 259 269
f 18 213 259
f 18 345 213
f 18 95 345
f 18 164 95
f 18 247 164
f 19 248 163
f 19 163 94
f 19 94 344
f 19 344 212
f 19 212 262
f 19 262 272
f 19 272 17
f 19 17 106
f 19 106 112
f 19 112 159
f 19 159 27
f 19 27 276
f 19 276 216
f 19 216 118
f 19 118 218
f 19 218 278
f 19 278 29
f 19 29 161
f 19 161 110
f 19 110 104
f 19 104 21
f 19 21 270
f 19 270 260
f 19 260 214
f 19 214 346
f 19 346 96
f 19 96 165
f 19 165 248
f 200 49 48
f 48 199 200
f 49 334 333
f 333 48 49
f 334 72 71
f 71 333 334
f 72 290 289
f 289 71 72
f 290 194 193
f 193 289 290
f 194 122 121
f 121 193 194
f 122 169 168
f 168 121 122
f 169 134 133
f 133 168 169
f 134 284 283
f 283 133 134
f 284 132 131
f 131 283 284
f 132 171 170
f 170 131 132
f 171 120 119
f 119 170 171
f 120 196 195
f 195 119 120
f 196 292 291
f 291 195 196
f 292 70 69
f 69 291 292
f 70 336 335
f 335 69 70
f 336 47 46
f 46 335 336
f 47 200 199
f 199 46 47
f 236 49 200
f 236 334 49
f 236 72 334
f 236 290 72
f 236 194 290
f 236 122 194
f 236 169 122
f 236 134 169
f 236 284 134
f 236 132 284
f 236 171 132
f 236 120 171
f 236 196 120
f 236 292 196
f 236 70 292
f 236 336 70
f 236 47 336
f 236 200 47
f 235 199 48
f 235 48 333
f 235 333 71
f 235 71 289
f 235 289 193
f 235 193 121
f 235 121 168
f 235 168 133
f 235 133 283
f 235 283 131
f 235 131 170
f 235 170 119
f 235 119 195
f 235 195 291
f 235 291 69
f 235 69 335
f 235 335 46
f 235 46 199
f 37 138 137
f 137 36 37
f 138 321 320
f 320 137 138
f 321 102 101
f 101 320 321
f 102 190 189
f 189 101 102
f 190 39 38
f 38 189 190
f 39 11 10
f 10 38 39
f 11 326 325
f 325 10 11
f 326 176 175
f 175 325 326
f 176 268 267
f 267 175 176
f 268 54 53
f 53 267 268
f 54 240 239
f 239 53 54
f 240 330 329
f 329 239 240
f 330 238 237
f 237 329 330
f 238 52 51
f 51 237 238
f 52 266 265
f 265 51 52
f 266 178 177
f 177 265 266
f 178 328 327
f 327 177 178
f 328 6 5
f 5 327 328
f 6 41 40
f 40 5 6
f 41 192 191
f 191 40 41
f 192 100 99
f 99 191 192
f 100 319 318
f 318 99 100
f 319 136 135
f 135 318 319
f 136 37 36
f 36 135 136
f 9 138 37
f 9 321 138
f 9 102 321
f 9 190 102
f 9 39 190
f 9 11 39
f 9 326 11
f 9 176 326
f 9 268 176
f 9 54 268
f 9 240 54
f 9 330 240
f 9 238 330
f 9 52 238
f 9 266 52
f 9 178 266
f 9 328 178
f 9 6 328
f 9 41 6
f 9 192 41
f 9 100 192
f 9 319 100
f 9 136 319
f 9 37 136
f 8 36 137
f 8 137 320
f 8 320 101
f 8 101 189
f 8 189 38
f 8 38 10
f 8 10 325
f 8 325 175
f 8 175 267
f 8 267 53
f 8 53 239
f 8 239 329
f 8 329 237
f 8 237 51
f 8 51 265
f 8 265 177
f 8 177 327
f 8 327 5
f 8 5 40
f 8 40 191
f 8 191 99
f 8 99 318
f 8 318 135
f 8 135 36
f 127 297 298
f 298 128 127
f 297 24 25
f 25 298 297
f 24 293 294
f 294 25 24
f 293 67 68
f 68 294 293
f 67 154 155
f 155 68 67
f 154 1 2
f 2 155 154
f 1 220 221
f 221 2 1
f 220 303 304
f 304 221 220
f 303 77 78
f 78 304 303
f 77 349 350
f 350 78 77
f 349 73 74
f 74 350 349
f 73 253 254
f 254 74 73
f 253 75 76
f 76 254 253
f 75 347 348
f 348 76 75
f 347 79 80
f 80 348 347
f 79 301 302
f 302 80 79
f 301 222 223
f 223 302 301
f 222 3 4
f 4 223 222
f 3 156 157
f 157 4 3
f 156 65 66
f 66 157 156
f 65 295 296
f 296 66 65
f 295 22 23
f 23 296 295
f 22 299 300
f 300 23 22
f 299 127 128
f 128 300 299
f 7 297 127
f 7 24 297
f 7 293 24
f 7 67 293
f 7 154 67
f 7 1 154
f 7 220 1
f 7 303 220
f 7 77 303
f 7 349 77
f 7 73 349
f 7 253 73
f 7 75 253
f 7 347 75
f 7 79 347
f 7 301 79
f 7 222 301
f 7 3 222
f 7 156 3
f 7 65 156
f 7 295 65
f 7 22 295
f 7 299 22
f 7 127 299
f 9 128 298
f 9 298 25
f 9 25 294
f 9 294 68
f 9 68 155
f 9 155 2
f 9 2 221
f 9 221 304
f 9 304 78
f 9 78 350
f 9 350 74
f 9 74 254
f 9 254 76
f 9 76 348
f 9 348 80
f 9 80 302
f 9 302 223
f 9 223 4
f 9 4 157
f 9 157 66
f 9 66 296
f 9 296 23
f 9 23 300
f 9 300 128
f 60 310 307
f 59 56 306
f 60 57 56
f 310 309 306
f 57 307 306
f 60 59 309
f 307 57 60
f 306 309 59
f 56 59 60
f 306 307 310
f 306 56 57
f 309 310 60
f 58 308 305
f 60 57 307
f 58 55 57
f 308 310 307
f 55 305 307
f 58 60 310
f 305 55 58
f 307 310 60
f 57 60 58
f 307 305 308
f 307 57 55
f 310 308 58