# factory lowpoly
mtllib factory_lowpoly.mtl
v -3.000000 0.000000 -1.750000
v -3.000000 0.000000 1.750000
v -3.000000 2.000000 -1.750000
v -3.000000 2.000000 1.750000
v 3.000000 0.000000 -1.750000
v 3.000000 0.000000 1.750000
v 3.000000 2.000000 -1.750000
v 3.000000 2.000000 1.750000
v -3.000000 2.000000 -1.750000
v -3.000000 2.000000 1.750000
v -3.000000 2.200000 -1.750000
v -3.000000 2.200000 1.750000
v 3.000000 2.000000 -1.750000
v 3.000000 2.000000 1.750000
v 3.000000 2.200000 -1.750000
v 3.000000 2.200000 1.750000
v 2.000000 1.000000 1.200000
v 2.000000 4.000000 1.200000
v 1.986370 1.000000 1.303528
v 1.986370 4.000000 1.303528
v 1.946410 1.000000 1.400000
v 1.946410 4.000000 1.400000
v 1.882843 1.000000 1.482843
v 1.882843 4.000000 1.482843
v 1.800000 1.000000 1.546410
v 1.800000 4.000000 1.546410
v 1.703528 1.000000 1.586370
v 1.703528 4.000000 1.586370
v 1.600000 1.000000 1.600000
v 1.600000 4.000000 1.600000
v 1.496472 1.000000 1.586370
v 1.496472 4.000000 1.586370
v 1.400000 1.000000 1.546410
v 1.400000 4.000000 1.546410
v 1.317157 1.000000 1.482843
v 1.317157 4.000000 1.482843
v 1.253590 1.000000 1.400000
v 1.253590 4.000000 1.400000
v 1.213630 1.000000 1.303528
v 1.213630 4.000000 1.303528
v 1.200000 1.000000 1.200000
v 1.200000 4.000000 1.200000
v 1.213630 1.000000 1.096472
v 1.213630 4.000000 1.096472
v 1.253590 1.000000 1.000000
v 1.253590 4.000000 1.000000
v 1.317157 1.000000 0.917157
v 1.317157 4.000000 0.917157
v 1.400000 1.000000 0.853590
v 1.400000 4.000000 0.853590
v 1.496472 1.000000 0.813630
v 1.496472 4.000000 0.813630
v 1.600000 1.000000 0.800000
v 1.600000 4.000000 0.800000
v 1.703528 1.000000 0.813630
v 1.703528 4.000000 0.813630
v 1.800000 1.000000 0.853590
v 1.800000 4.000000 0.853590
v 1.882843 1.000000 0.917157
v 1.882843 4.000000 0.917157
v 1.946410 1.000000 1.000000
v 1.946410 4.000000 1.000000
v 1.986370 1.000000 1.096472
v 1.986370 4.000000 1.096472
v 1.600000 1.000000 1.200000
v 1.600000 4.000000 1.200000
v 2.020000 4.000000 1.200000
v 2.020000 4.200000 1.200000
v 2.005689 4.000000 1.308704
v 2.005689 4.200000 1.308704
v 1.963731 4.000000 1.410000
v 1.963731 4.200000 1.410000
v 1.896985 4.000000 1.496985
v 1.896985 4.200000 1.496985
v 1.810000 4.000000 1.563731
v 1.810000 4.200000 1.563731
v 1.708704 4.000000 1.605689
v 1.708704 4.200000 1.605689
v 1.600000 4.000000 1.620000
v 1.600000 4.200000 1.620000
v 1.491296 4.000000 1.605689
v 1.491296 4.200000 1.605689
v 1.390000 4.000000 1.563731
v 1.390000 4.200000 1.563731
v 1.303015 4.000000 1.496985
v 1.303015 4.200000 1.496985
v 1.236269 4.000000 1.410000
v 1.236269 4.200000 1.410000
v 1.194311 4.000000 1.308704
v 1.194311 4.200000 1.308704
v 1.180000 4.000000 1.200000
v 1.180000 4.200000 1.200000
v 1.194311 4.000000 1.091296
v 1.194311 4.200000 1.091296
v 1.236269 4.000000 0.990000
v 1.236269 4.200000 0.990000
v 1.303015 4.000000 0.903015
v 1.303015 4.200000 0.903015
v 1.390000 4.000000 0.836269
v 1.390000 4.200000 0.836269
v 1.491296 4.000000 0.794311
v 1.491296 4.200000 0.794311
v 1.600000 4.000000 0.780000
v 1.600000 4.200000 0.780000
v 1.708704 4.000000 0.794311
v 1.708704 4.200000 0.794311
v 1.810000 4.000000 0.836269
v 1.810000 4.200000 0.836269
v 1.896985 4.000000 0.903015
v 1.896985 4.200000 0.903015
v 1.963731 4.000000 0.990000
v 1.963731 4.200000 0.990000
v 2.005689 4.000000 1.091296
v 2.005689 4.200000 1.091296
v 1.600000 4.000000 1.200000
v 1.600000 4.200000 1.200000
v -0.380000 1.000000 0.800000
v -0.380000 3.200000 0.800000
v -0.387237 1.000000 0.841042
v -0.387237 3.200000 0.841042
v -0.408075 1.000000 0.877135
v -0.408075 3.200000 0.877135
v -0.440000 1.000000 0.903923
v -0.440000 3.200000 0.903923
v -0.479162 1.000000 0.918177
v -0.479162 3.200000 0.918177
v -0.520838 1.000000 0.918177
v -0.520838 3.200000 0.918177
v -0.560000 1.000000 0.903923
v -0.560000 3.200000 0.903923
v -0.591925 1.000000 0.877135
v -0.591925 3.200000 0.877135
v -0.612763 1.000000 0.841042
v -0.612763 3.200000 0.841042
v -0.620000 1.000000 0.800000
v -0.620000 3.200000 0.800000
v -0.612763 1.000000 0.758958
v -0.612763 3.200000 0.758958
v -0.591925 1.000000 0.722865
v -0.591925 3.200000 0.722865
v -0.560000 1.000000 0.696077
v -0.560000 3.200000 0.696077
v -0.520838 1.000000 0.681823
v -0.520838 3.200000 0.681823
v -0.479162 1.000000 0.681823
v -0.479162 3.200000 0.681823
v -0.440000 1.000000 0.696077
v -0.440000 3.200000 0.696077
v -0.408075 1.000000 0.722865
v -0.408075 3.200000 0.722865
v -0.387237 1.000000 0.758958
v -0.387237 3.200000 0.758958
v -0.500000 1.000000 0.800000
v -0.500000 3.200000 0.800000
v -2.000000 0.500000 -0.800000
v -2.000000 1.700000 -0.800000
v -2.030087 0.500000 -0.532975
v -2.030087 1.700000 -0.532975
v -2.118837 0.500000 -0.279340
v -2.118837 1.700000 -0.279340
v -2.261802 0.500000 -0.051812
v -2.261802 1.700000 -0.051812
v -2.451812 0.500000 0.138198
v -2.451812 1.700000 0.138198
v -2.679340 0.500000 0.281163
v -2.679340 1.700000 0.281163
v -2.932975 0.500000 0.369913
v -2.932975 1.700000 0.369913
v -3.200000 0.500000 0.400000
v -3.200000 1.700000 0.400000
v -3.467025 0.500000 0.369913
v -3.467025 1.700000 0.369913
v -3.720660 0.500000 0.281163
v -3.720660 1.700000 0.281163
v -3.948188 0.500000 0.138198
v -3.948188 1.700000 0.138198
v -4.138198 0.500000 -0.051812
v -4.138198 1.700000 -0.051812
v -4.281163 0.500000 -0.279340
v -4.281163 1.700000 -0.279340
v -4.369913 0.500000 -0.532975
v -4.369913 1.700000 -0.532975
v -4.400000 0.500000 -0.800000
v -4.400000 1.700000 -0.800000
v -4.369913 0.500000 -1.067025
v -4.369913 1.700000 -1.067025
v -4.281163 0.500000 -1.320660
v -4.281163 1.700000 -1.320660
v -4.138198 0.500000 -1.548188
v -4.138198 1.700000 -1.548188
v -3.948188 0.500000 -1.738198
v -3.948188 1.700000 -1.738198
v -3.720660 0.500000 -1.881163
v -3.720660 1.700000 -1.881163
v -3.467025 0.500000 -1.969913
v -3.467025 1.700000 -1.969913
v -3.200000 0.500000 -2.000000
v -3.200000 1.700000 -2.000000
v -2.932975 0.500000 -1.969913
v -2.932975 1.700000 -1.969913
v -2.679340 0.500000 -1.881163
v -2.679340 1.700000 -1.881163
v -2.451812 0.500000 -1.738198
v -2.451812 1.700000 -1.738198
v -2.261802 0.500000 -1.548188
v -2.261802 1.700000 -1.548188
v -2.118837 0.500000 -1.320660
v -2.118837 1.700000 -1.320660
v -2.030087 0.500000 -1.067025
v -2.030087 1.700000 -1.067025
v -3.200000 0.500000 -0.800000
v -3.200000 1.700000 -0.800000
v 2.000000 0.000000 -2.000000
v 2.000000 0.000000 0.400000
v 2.000000 1.000000 -2.000000
v 2.000000 1.000000 0.400000
v 4.400000 0.000000 -2.000000
v 4.400000 0.000000 0.400000
v 4.400000 1.000000 -2.000000
v 4.400000 1.000000 0.400000
v -4.420000 0.250000 1.300000
v -4.420000 0.750000 1.300000
v -4.430718 0.250000 1.340000
v -4.430718 0.750000 1.340000
v -4.460000 0.250000 1.369282
v -4.460000 0.750000 1.369282
v -4.500000 0.250000 1.380000
v -4.500000 0.750000 1.380000
v -4.540000 0.250000 1.369282
v -4.540000 0.750000 1.369282
v -4.569282 0.250000 1.340000
v -4.569282 0.750000 1.340000
v -4.580000 0.250000 1.300000
v -4.580000 0.750000 1.300000
v -4.569282 0.250000 1.260000
v -4.569282 0.750000 1.260000
v -4.540000 0.250000 1.230718
v -4.540000 0.750000 1.230718
v -4.500000 0.250000 1.220000
v -4.500000 0.750000 1.220000
v -4.460000 0.250000 1.230718
v -4.460000 0.750000 1.230718
v -4.430718 0.250000 1.260000
v -4.430718 0.750000 1.260000
v -4.500000 0.250000 1.300000
v -4.500000 0.750000 1.300000
v -4.050000 0.750000 1.300000
v -4.077138 0.750000 1.453909
v -4.155280 0.750000 1.589254
v -4.275000 0.750000 1.689711
v -4.421858 0.750000 1.743163
v -4.578142 0.750000 1.743163
v -4.725000 0.750000 1.689711
v -4.844720 0.750000 1.589254
v -4.922862 0.750000 1.453909
v -4.950000 0.750000 1.300000
v -4.922862 0.750000 1.146091
v -4.844720 0.750000 1.010746
v -4.725000 0.750000 0.910289
v -4.578142 0.750000 0.856837
v -4.421858 0.750000 0.856837
v -4.275000 0.750000 0.910289
v -4.155280 0.750000 1.010746
v -4.077138 0.750000 1.146091
v -4.500000 1.650000 1.300000
v -4.500000 0.750000 1.300000
v -4.120000 0.250000 -1.600000
v -4.120000 0.750000 -1.600000
v -4.130718 0.250000 -1.560000
v -4.130718 0.750000 -1.560000
v -4.160000 0.250000 -1.530718
v -4.160000 0.750000 -1.530718
v -4.200000 0.250000 -1.520000
v -4.200000 0.750000 -1.520000
v -4.240000 0.250000 -1.530718
v -4.240000 0.750000 -1.530718
v -4.269282 0.250000 -1.560000
v -4.269282 0.750000 -1.560000
v -4.280000 0.250000 -1.600000
v -4.280000 0.750000 -1.600000
v -4.269282 0.250000 -1.640000
v -4.269282 0.750000 -1.640000
v -4.240000 0.250000 -1.669282
v -4.240000 0.750000 -1.669282
v -4.200000 0.250000 -1.680000
v -4.200000 0.750000 -1.680000
v -4.160000 0.250000 -1.669282
v -4.160000 0.750000 -1.669282
v -4.130718 0.250000 -1.640000
v -4.130718 0.750000 -1.640000
v -4.200000 0.250000 -1.600000
v -4.200000 0.750000 -1.600000
v -3.750000 0.750000 -1.600000
v -3.777138 0.750000 -1.446091
v -3.855280 0.750000 -1.310746
v -3.975000 0.750000 -1.210289
v -4.121858 0.750000 -1.156837
v -4.278142 0.750000 -1.156837
v -4.425000 0.750000 -1.210289
v -4.544720 0.750000 -1.310746
v -4.622862 0.750000 -1.446091
v -4.650000 0.750000 -1.600000
v -4.622862 0.750000 -1.753909
v -4.544720 0.750000 -1.889254
v -4.425000 0.750000 -1.989711
v -4.278142 0.750000 -2.043163
v -4.121858 0.750000 -2.043163
v -3.975000 0.750000 -1.989711
v -3.855280 0.750000 -1.889254
v -3.777138 0.750000 -1.753909
v -4.200000 1.650000 -1.600000
v -4.200000 0.750000 -1.600000
v 4.680000 0.250000 -1.500000
v 4.680000 0.750000 -1.500000
v 4.669282 0.250000 -1.460000
v 4.669282 0.750000 -1.460000
v 4.640000 0.250000 -1.430718
v 4.640000 0.750000 -1.430718
v 4.600000 0.250000 -1.420000
v 4.600000 0.750000 -1.420000
v 4.560000 0.250000 -1.430718
v 4.560000 0.750000 -1.430718
v 4.530718 0.250000 -1.460000
v 4.530718 0.750000 -1.460000
v 4.520000 0.250000 -1.500000
v 4.520000 0.750000 -1.500000
v 4.530718 0.250000 -1.540000
v 4.530718 0.750000 -1.540000
v 4.560000 0.250000 -1.569282
v 4.560000 0.750000 -1.569282
v 4.600000 0.250000 -1.580000
v 4.600000 0.750000 -1.580000
v 4.640000 0.250000 -1.569282
v 4.640000 0.750000 -1.569282
v 4.669282 0.250000 -1.540000
v 4.669282 0.750000 -1.540000
v 4.600000 0.250000 -1.500000
v 4.600000 0.750000 -1.500000
v 5.050000 0.750000 -1.500000
v 5.022862 0.750000 -1.346091
v 4.944720 0.750000 -1.210746
v 4.825000 0.750000 -1.110289
v 4.678142 0.750000 -1.056837
v 4.521858 0.750000 -1.056837
v 4.375000 0.750000 -1.110289
v 4.255280 0.750000 -1.210746
v 4.177138 0.750000 -1.346091
v 4.150000 0.750000 -1.500000
v 4.177138 0.750000 -1.653909
v 4.255280 0.750000 -1.789254
v 4.375000 0.750000 -1.889711
v 4.521858 0.750000 -1.943163
v 4.678142 0.750000 -1.943163
v 4.825000 0.750000 -1.889711
v 4.944720 0.750000 -1.789254
v 5.022862 0.750000 -1.653909
v 4.600000 1.650000 -1.500000
v 4.600000 0.750000 -1.500000
usemtl building
f 1 5 6 2
f 3 4 8 7
f 1 2 4 3
f 5 7 8 6
f 2 6 8 4
f 1 3 7 5
usemtl roof
f 9 13 14 10
f 11 12 16 15
f 9 10 12 11
f 13 15 16 14
f 10 14 16 12
f 9 11 15 13
usemtl chimney
f 17 19 20 18
f 19 21 22 20
f 21 23 24 22
f 23 25 26 24
f 25 27 28 26
f 27 29 30 28
f 29 31 32 30
f 31 33 34 32
f 33 35 36 34
f 35 37 38 36
f 37 39 40 38
f 39 41 42 40
f 41 43 44 42
f 43 45 46 44
f 45 47 48 46
f 47 49 50 48
f 49 51 52 50
f 51 53 54 52
f 53 55 56 54
f 55 57 58 56
f 57 59 60 58
f 59 61 62 60
f 61 63 64 62
f 63 17 18 64
f 65 19 17
f 65 21 19
f 65 23 21
f 65 25 23
f 65 27 25
f 65 29 27
f 65 31 29
f 65 33 31
f 65 35 33
f 65 37 35
f 65 39 37
f 65 41 39
f 65 43 41
f 65 45 43
f 65 47 45
f 65 49 47
f 65 51 49
f 65 53 51
f 65 55 53
f 65 57 55
f 65 59 57
f 65 61 59
f 65 63 61
f 65 17 63
f 66 18 20
f 66 20 22
f 66 22 24
f 66 24 26
f 66 26 28
f 66 28 30
f 66 30 32
f 66 32 34
f 66 34 36
f 66 36 38
f 66 38 40
f 66 40 42
f 66 42 44
f 66 44 46
f 66 46 48
f 66 48 50
f 66 50 52
f 66 52 54
f 66 54 56
f 66 56 58
f 66 58 60
f 66 60 62
f 66 62 64
f 66 64 18
usemtl chimney_tip
f 67 69 70 68
f 69 71 72 70
f 71 73 74 72
f 73 75 76 74
f 75 77 78 76
f 77 79 80 78
f 79 81 82 80
f 81 83 84 82
f 83 85 86 84
f 85 87 88 86
f 87 89 90 88
f 89 91 92 90
f 91 93 94 92
f 93 95 96 94
f 95 97 98 96
f 97 99 100 98
f 99 101 102 100
f 101 103 104 102
f 103 105 106 104
f 105 107 108 106
f 107 109 110 108
f 109 111 112 110
f 111 113 114 112
f 113 67 68 114
f 115 69 67
f 115 71 69
f 115 73 71
f 115 75 73
f 115 77 75
f 115 79 77
f 115 81 79
f 115 83 81
f 115 85 83
f 115 87 85
f 115 89 87
f 115 91 89
f 115 93 91
f 115 95 93
f 115 97 95
f 115 99 97
f 115 101 99
f 115 103 101
f 115 105 103
f 115 107 105
f 115 109 107
f 115 111 109
f 115 113 111
f 115 67 113
f 116 68 70
f 116 70 72
f 116 72 74
f 116 74 76
f 116 76 78
f 116 78 80
f 116 80 82
f 116 82 84
f 116 84 86
f 116 86 88
f 116 88 90
f 116 90 92
f 116 92 94
f 116 94 96
f 116 96 98
f 116 98 100
f 116 100 102
f 116 102 104
f 116 104 106
f 116 106 108
f 116 108 110
f 116 110 112
f 116 112 114
f 116 114 68
usemtl pipe
f 117 119 120 118
f 119 121 122 120
f 121 123 124 122
f 123 125 126 124
f 125 127 128 126
f 127 129 130 128
f 129 131 132 130
f 131 133 134 132
f 133 135 136 134
f 135 137 138 136
f 137 139 140 138
f 139 141 142 140
f 141 143 144 142
f 143 145 146 144
f 145 147 148 146
f 147 149 150 148
f 149 151 152 150
f 151 117 118 152
f 153 119 117
f 153 121 119
f 153 123 121
f 153 125 123
f 153 127 125
f 153 129 127
f 153 131 129
f 153 133 131
f 153 135 133
f 153 137 135
f 153 139 137
f 153 141 139
f 153 143 141
f 153 145 143
f 153 147 145
f 153 149 147
f 153 151 149
f 153 117 151
f 154 118 120
f 154 120 122
f 154 122 124
f 154 124 126
f 154 126 128
f 154 128 130
f 154 130 132
f 154 132 134
f 154 134 136
f 154 136 138
f 154 138 140
f 154 140 142
f 154 142 144
f 154 144 146
f 154 146 148
f 154 148 150
f 154 150 152
f 154 152 118
usemtl tank
f 155 157 158 156
f 157 159 160 158
f 159 161 162 160
f 161 163 164 162
f 163 165 166 164
f 165 167 168 166
f 167 169 170 168
f 169 171 172 170
f 171 173 174 172
f 173 175 176 174
f 175 177 178 176
f 177 179 180 178
f 179 181 182 180
f 181 183 184 182
f 183 185 186 184
f 185 187 188 186
f 187 189 190 188
f 189 191 192 190
f 191 193 194 192
f 193 195 196 194
f 195 197 198 196
f 197 199 200 198
f 199 201 202 200
f 201 203 204 202
f 203 205 206 204
f 205 207 208 206
f 207 209 210 208
f 209 155 156 210
f 211 157 155
f 211 159 157
f 211 161 159
f 211 163 161
f 211 165 163
f 211 167 165
f 211 169 167
f 211 171 169
f 211 173 171
f 211 175 173
f 211 177 175
f 211 179 177
f 211 181 179
f 211 183 181
f 211 185 183
f 211 187 185
f 211 189 187
f 211 191 189
f 211 193 191
f 211 195 193
f 211 197 195
f 211 199 197
f 211 201 199
f 211 203 201
f 211 205 203
f 211 207 205
f 211 209 207
f 211 155 209
f 212 156 158
f 212 158 160
f 212 160 162
f 212 162 164
f 212 164 166
f 212 166 168
f 212 168 170
f 212 170 172
f 212 172 174
f 212 174 176
f 212 176 178
f 212 178 180
f 212 180 182
f 212 182 184
f 212 184 186
f 212 186 188
f 212 188 190
f 212 190 192
f 212 192 194
f 212 194 196
f 212 196 198
f 212 198 200
f 212 200 202
f 212 202 204
f 212 204 206
f 212 206 208
f 212 208 210
f 212 210 156
usemtl pool
f 213 217 218 214
f 215 216 220 219
f 213 214 216 215
f 217 219 220 218
f 214 218 220 216
f 213 215 219 217
usemtl tree_trunk
f 221 223 224 222
f 223 225 226 224
f 225 227 228 226
f 227 229 230 228
f 229 231 232 230
f 231 233 234 232
f 233 235 236 234
f 235 237 238 236
f 237 239 240 238
f 239 241 242 240
f 241 243 244 242
f 243 221 222 244
f 245 223 221
f 245 225 223
f 245 227 225
f 245 229 227
f 245 231 229
f 245 233 231
f 245 235 233
f 245 237 235
f 245 239 237
f 245 241 239
f 245 243 241
f 245 221 243
f 246 222 224
f 246 224 226
f 246 226 228
f 246 228 230
f 246 230 232
f 246 232 234
f 246 234 236
f 246 236 238
f 246 238 240
f 246 240 242
f 246 242 244
f 246 244 222
usemtl tree_crown
f 247 248 265
f 248 249 265
f 249 250 265
f 250 251 265
f 251 252 265
f 252 253 265
f 253 254 265
f 254 255 265
f 255 256 265
f 256 257 265
f 257 258 265
f 258 259 265
f 259 260 265
f 260 261 265
f 261 262 265
f 262 263 265
f 263 264 265
f 264 247 265
f 266 247 248
f 266 248 249
f 266 249 250
f 266 250 251
f 266 251 252
f 266 252 253
f 266 253 254
f 266 254 255
f 266 255 256
f 266 256 257
f 266 257 258
f 266 258 259
f 266 259 260
f 266 260 261
f 266 261 262
f 266 262 263
f 266 263 264
f 266 264 247
usemtl tree_trunk
f 267 269 270 268
f 269 271 272 270
f 271 273 274 272
f 273 275 276 274
f 275 277 278 276
f 277 279 280 278
f 279 281 282 280
f 281 283 284 282
f 283 285 286 284
f 285 287 288 286
f 287 289 290 288
f 289 267 268 290
f 291 269 267
f 291 271 269
f 291 273 271
f 291 275 273
f 291 277 275
f 291 279 277
f 291 281 279
f 291 283 281
f 291 285 283
f 291 287 285
f 291 289 287
f 291 267 289
f 292 268 270
f 292 270 272
f 292 272 274
f 292 274 276
f 292 276 278
f 292 278 280
f 292 280 282
f 292 282 284
f 292 284 286
f 292 286 288
f 292 288 290
f 292 290 268
usemtl tree_crown
f 293 294 311
f 294 295 311
f 295 296 311
f 296 297 311
f 297 298 311
f 298 299 311
f 299 300 311
f 300 301 311
f 301 302 311
f 302 303 311
f 303 304 311
f 304 305 311
f 305 306 311
f 306 307 311
f 307 308 311
f 308 309 311
f 309 310 311
f 310 293 311
f 312 293 294
f 312 294 295
f 312 295 296
f 312 296 297
f 312 297 298
f 312 298 299
f 312 299 300
f 312 300 301
f 312 301 302
f 312 302 303
f 312 303 304
f 312 304 305
f 312 305 306
f 312 306 307
f 312 307 308
f 312 308 309
f 312 309 310
f 312 310 293
usemtl tree_trunk
f 313 315 316 314
f 315 317 318 316
f 317 319 320 318
f 319 321 322 320
f 321 323 324 322
f 323 325 326 324
f 325 327 328 326
f 327 329 330 328
f 329 331 332 330
f 331 333 334 332
f 333 335 336 334
f 335 313 314 336
f 337 315 313
f 337 317 315
f 337 319 317
f 337 321 319
f 337 323 321
f 337 325 323
f 337 327 325
f 337 329 327
f 337 331 329
f 337 333 331
f 337 335 333
f 337 313 335
f 338 314 316
f 338 316 318
f 338 318 320
f 338 320 322
f 338 322 324
f 338 324 326
f 338 326 328
f 338 328 330
f 338 330 332
f 338 332 334
f 338 334 336
f 338 336 314
usemtl tree_crown
f 339 340 357
f 340 341 357
f 341 342 357
f 342 343 357
f 343 344 357
f 344 345 357
f 345 346 357
f 346 347 357
f 347 348 357
f 348 349 357
f 349 350 357
f 350 351 357
f 351 352 357
f 352 353 357
f 353 354 357
f 354 355 357
f 355 356 357
f 356 339 357
f 358 339 340
f 358 340 341
f 358 341 342
f 358 342 343
f 358 343 344
f 358 344 345
f 358 345 346
f 358 346 347
f 358 347 348
f 358 348 349
f 358 349 350
f 358 350 351
f 358 351 352
f 358 352 353
f 358 353 354
f 358 354 355
f 358 355 356
f 358 356 339
