# https://github.com/mikedh/trimesh
v 0.00000000 0.00000000 0.00000000
v 0.00000000 0.43500000 -0.00000000
v 0.00000000 1.30500000 -0.00000000
v 0.00000000 2.17500000 -0.00000000
v 0.00000000 2.04506620 -0.91477214
v 0.00000000 0.56493380 -0.91477214
v 0.00000000 0.46811363 -0.47548376
v 0.00000000 2.14188637 -0.47548376
v 0.00000000 0.84761393 -1.48013241
v 0.00000000 1.76238607 -1.48013241
v 0.00000000 0.00000000 1.74000000
v 0.00000000 1.30500000 1.74000000
v 0.00000000 -0.00000000 -1.74000000
v 0.00000000 1.30500000 -1.74000000
v 0.00000000 0.84761393 1.48013241
v 0.00000000 1.76238607 1.48013241
v 0.00000000 0.46811363 0.47548376
v 0.00000000 2.14188637 0.47548376
v 0.00000000 2.04506620 0.91477214
v 0.00000000 0.56493380 0.91477214
v 1.39200000 -0.00000000 -1.07896737
v 1.39200000 0.87000000 -1.07896737
v 1.39200000 -0.00000000 -1.53103263
v 1.39200000 0.87000000 -1.53103263
v -0.53768957 0.87000000 -1.40768957
v -0.53768957 1.74000000 -1.40768957
v -0.53768957 0.87000000 1.40768957
v -0.53768957 1.74000000 1.40768957
v -1.50104316 1.68248305 0.45221193
v -1.50104316 0.92751695 0.45221193
v -1.50104316 1.68248305 -0.45221193
v -1.50104316 0.92751695 -0.45221193
v -1.60950000 -0.00000000 -1.08750000
v -1.60950000 2.17500000 -1.08750000
v -0.28268013 1.53369303 1.65483834
v -0.28268013 1.07630697 1.65483834
v -0.28268013 1.53369303 -1.65483834
v -0.28268013 1.07630697 -1.65483834
v -1.20717803 1.16525883 1.22156081
v -1.20717803 1.44474117 1.22156081
v -1.20717803 1.16525883 -1.22156081
v -1.20717803 1.44474117 -1.22156081
v -1.82700000 -0.00000000 -0.87000000
v -1.82700000 2.61000000 -0.87000000
v 0.95700000 -0.00000000 -1.07896737
v 0.95700000 1.08750000 -1.07896737
v 0.95700000 -0.00000000 -1.53103263
v 0.95700000 1.08750000 -1.53103263
v 1.65300000 -0.00000000 -1.07896737
v 1.65300000 0.87000000 -1.07896737
v 1.65300000 -0.00000000 -1.53103263
v 1.65300000 0.87000000 -1.53103263
v -0.91477214 2.04506620 -0.00000000
v -0.91477214 0.56493380 -0.00000000
v -0.91477214 1.30500000 -1.48013241
v -0.91477214 1.30500000 1.48013241
v 0.66586917 0.00000000 1.60755039
v 0.66586917 1.30500000 1.60755039
v 0.66586917 -0.00000000 -1.60755039
v 0.66586917 1.30500000 -1.60755039
v -0.47548376 1.30500000 1.67377274
v -0.47548376 1.30500000 -1.67377274
v -1.49561552 -0.00000000 -1.17024192
v -1.49561552 2.17500000 -1.17024192
v -1.49561552 -0.00000000 -1.00475808
v -1.49561552 2.17500000 -1.00475808
v 1.22156081 0.70141098 -0.27948234
v 1.22156081 1.90858902 -0.27948234
v 1.22156081 0.70141098 0.27948234
v 1.22156081 1.90858902 0.27948234
v -1.19745227 1.81637317 0.74006620
v -1.19745227 0.79362683 0.74006620
v -1.19745227 1.81637317 -0.74006620
v -1.19745227 0.79362683 -0.74006620
v -0.27948234 1.91578041 -1.20717803
v -0.27948234 0.69421959 -1.20717803
v -0.27948234 1.91578041 1.20717803
v -0.27948234 0.69421959 1.20717803
v 1.65483834 1.16365993 0.45738607
v 1.65483834 1.44634007 0.45738607
v 1.65483834 1.16365993 -0.45738607
v 1.65483834 1.44634007 -0.45738607
v -0.87000000 2.00884479 -0.53768957
v -0.87000000 0.60115521 -0.53768957
v -0.87000000 0.00000000 2.61000000
v -0.87000000 0.87000000 2.61000000
v -0.87000000 0.00000000 1.74000000
v -0.87000000 0.87000000 1.74000000
v -0.87000000 2.00884479 0.53768957
v -0.87000000 0.60115521 0.53768957
v 1.21800000 -0.00000000 -1.07896737
v 1.21800000 1.08750000 -1.07896737
v 1.21800000 -0.00000000 -1.53103263
v 1.21800000 1.08750000 -1.53103263
v 2.61000000 0.00000000 0.00000000
v 2.61000000 1.08750000 -0.00000000
v 2.61000000 -0.00000000 -1.08750000
v 2.61000000 1.08750000 -1.08750000
v 2.61000000 0.00000000 1.08750000
v 2.61000000 1.08750000 1.08750000
v -1.71311552 -0.00000000 -0.95274192
v -1.71311552 2.61000000 -0.95274192
v -1.71311552 -0.00000000 -0.78725808
v -1.71311552 2.61000000 -0.78725808
v -1.40768957 1.03615521 -0.87000000
v -1.40768957 1.57384479 -0.87000000
v -1.40768957 1.03615521 0.87000000
v -1.40768957 1.57384479 0.87000000
v -1.48013241 0.84761393 -0.00000000
v -1.48013241 1.76238607 -0.00000000
v -1.48013241 1.30500000 -0.91477214
v -1.48013241 1.30500000 0.91477214
v 0.45221193 0.55447842 -0.75496610
v 0.45221193 2.05552158 -0.75496610
v 0.45221193 0.55447842 0.75496610
v 0.45221193 2.05552158 0.75496610
v 1.02274634 1.67503310 -1.19745227
v 1.02274634 0.93496690 -1.19745227
v 1.02274634 1.67503310 1.19745227
v 1.02274634 0.93496690 1.19745227
v 0.74006620 0.70627386 1.02274634
v 0.74006620 1.90372614 1.02274634
v 0.74006620 0.70627386 -1.02274634
v 0.74006620 1.90372614 -1.02274634
v -1.23036580 -0.00000000 -1.23036580
v -1.23036580 1.30500000 -1.23036580
v -1.23036580 0.00000000 1.23036580
v -1.23036580 1.30500000 1.23036580
v -0.75496610 1.07889403 -1.50104316
v -0.75496610 1.53110597 -1.50104316
v -0.75496610 1.07889403 1.50104316
v -0.75496610 1.53110597 1.50104316
v 1.60755039 0.00000000 0.66586917
v 1.60755039 1.30500000 0.66586917
v 1.60755039 -0.00000000 -0.66586917
v 1.60755039 1.30500000 -0.66586917
v -1.45211552 -0.00000000 -1.13863732
v -1.45211552 2.17500000 -1.13863732
v -1.45211552 -0.00000000 -1.03636268
v -1.45211552 2.17500000 -1.03636268
v 0.45738607 2.13241917 -0.28268013
v 0.45738607 0.47758083 -0.28268013
v 0.45738607 2.13241917 0.28268013
v 0.45738607 0.47758083 0.28268013
v -1.66961552 -0.00000000 -0.92113732
v -1.66961552 2.61000000 -0.92113732
v -1.66961552 -0.00000000 -0.81886268
v -1.66961552 2.61000000 -0.81886268
v -1.52250000 -0.00000000 -1.08750000
v -1.52250000 2.17500000 -1.08750000
v 1.26150000 -0.00000000 -1.30500000
v 1.26150000 0.87000000 -1.30500000
v 1.67377274 1.06725812 -0.00000000
v 1.67377274 1.54274188 -0.00000000
v 1.74000000 0.00000000 0.00000000
v 1.74000000 1.30500000 -0.00000000
v -1.59288448 -0.00000000 -1.13863732
v -1.59288448 2.17500000 -1.13863732
v -1.59288448 -0.00000000 -1.03636268
v -1.59288448 2.17500000 -1.03636268
v -1.74000000 0.00000000 0.00000000
v -1.74000000 1.30500000 -0.00000000
v -1.74000000 -0.00000000 -0.87000000
v -1.74000000 2.61000000 -0.87000000
v -1.67377274 1.06725812 -0.00000000
v -1.67377274 1.54274188 -0.00000000
v 1.74853263 -0.00000000 -1.43550000
v 1.74853263 0.87000000 -1.43550000
v 1.74853263 -0.00000000 -1.17450000
v 1.74853263 0.87000000 -1.17450000
v 0.82650000 -0.00000000 -1.30500000
v 0.82650000 1.08750000 -1.30500000
v 1.52250000 0.00000000 0.00000000
v 1.52250000 1.08750000 -0.00000000
v 1.52250000 -0.00000000 -1.56600000
v 1.52250000 0.87000000 -1.56600000
v 1.52250000 -0.00000000 -1.30500000
v 1.52250000 0.87000000 -1.30500000
v 1.52250000 -0.00000000 -1.04400000
v 1.52250000 0.87000000 -1.04400000
v -1.81038448 -0.00000000 -0.92113732
v -1.81038448 2.61000000 -0.92113732
v -1.81038448 -0.00000000 -0.81886268
v -1.81038448 2.61000000 -0.81886268
v -0.45738607 2.13241917 -0.28268013
v -0.45738607 0.47758083 -0.28268013
v -0.45738607 2.13241917 0.28268013
v -0.45738607 0.47758083 0.28268013
v 1.29646737 -0.00000000 -1.43550000
v 1.29646737 0.87000000 -1.43550000
v 1.29646737 -0.00000000 -1.17450000
v 1.29646737 0.87000000 -1.17450000
v 3.15375000 -0.00000000 -0.94180263
v 3.15375000 1.08750000 -0.94180263
v 3.15375000 0.00000000 0.94180263
v 3.15375000 1.08750000 0.94180263
v 1.66819737 0.00000000 0.54375000
v 1.66819737 1.08750000 0.54375000
v 1.66819737 -0.00000000 -0.54375000
v 1.66819737 1.08750000 -0.54375000
v -1.60755039 0.00000000 0.66586917
v -1.60755039 1.30500000 0.66586917
v -1.60755039 -0.00000000 -0.66586917
v -1.60755039 1.30500000 -0.66586917
v 0.75496610 1.07889403 -1.50104316
v 0.75496610 1.53110597 -1.50104316
v 0.75496610 1.07889403 1.50104316
v 0.75496610 1.53110597 1.50104316
v 1.23036580 -0.00000000 -1.23036580
v 1.23036580 1.30500000 -1.23036580
v 1.23036580 0.00000000 1.23036580
v 1.23036580 1.30500000 1.23036580
v -0.74006620 0.70627386 1.02274634
v -0.74006620 1.90372614 1.02274634
v -0.74006620 0.70627386 -1.02274634
v -0.74006620 1.90372614 -1.02274634
v 1.31353263 -0.00000000 -1.43550000
v 1.31353263 1.08750000 -1.43550000
v 1.31353263 -0.00000000 -1.17450000
v 1.31353263 1.08750000 -1.17450000
v 1.08750000 -0.00000000 -1.56600000
v 1.08750000 1.08750000 -1.56600000
v 1.08750000 -0.00000000 -1.30500000
v 1.08750000 1.08750000 -1.30500000
v 1.08750000 -0.00000000 -1.04400000
v 1.08750000 1.08750000 -1.04400000
v 1.78350000 -0.00000000 -1.30500000
v 1.78350000 0.87000000 -1.30500000
v -1.54938448 -0.00000000 -1.17024192
v -1.54938448 2.17500000 -1.17024192
v -1.54938448 -0.00000000 -1.00475808
v -1.54938448 2.17500000 -1.00475808
v 0.86146737 -0.00000000 -1.43550000
v 0.86146737 1.08750000 -1.43550000
v 0.86146737 -0.00000000 -1.17450000
v 0.86146737 1.08750000 -1.17450000
v -1.02274634 1.67503310 -1.19745227
v -1.02274634 0.93496690 -1.19745227
v -1.02274634 1.67503310 1.19745227
v -1.02274634 0.93496690 1.19745227
v -0.45221193 0.55447842 -0.75496610
v -0.45221193 2.05552158 -0.75496610
v -0.45221193 0.55447842 0.75496610
v -0.45221193 2.05552158 0.75496610
v 1.48013241 0.84761393 -0.00000000
v 1.48013241 1.76238607 -0.00000000
v 1.48013241 1.30500000 -0.91477214
v 1.48013241 1.30500000 0.91477214
v 1.40768957 1.03615521 -0.87000000
v 1.40768957 1.57384479 -0.87000000
v 1.40768957 1.03615521 0.87000000
v 1.40768957 1.57384479 0.87000000
v 0.87000000 2.00884479 -0.53768957
v 0.87000000 0.60115521 -0.53768957
v 0.87000000 0.00000000 2.61000000
v 0.87000000 0.87000000 2.61000000
v 0.87000000 0.00000000 1.74000000
v 0.87000000 0.87000000 1.74000000
v 0.87000000 2.00884479 0.53768957
v 0.87000000 0.60115521 0.53768957
v -1.76688448 -0.00000000 -0.95274192
v -1.76688448 2.61000000 -0.95274192
v -1.76688448 -0.00000000 -0.78725808
v -1.76688448 2.61000000 -0.78725808
v -1.65483834 1.16365993 0.45738607
v -1.65483834 1.44634007 0.45738607
v -1.65483834 1.16365993 -0.45738607
v -1.65483834 1.44634007 -0.45738607
v 0.27948234 1.91578041 -1.20717803
v 0.27948234 0.69421959 -1.20717803
v 0.27948234 1.91578041 1.20717803
v 0.27948234 0.69421959 1.20717803
v 1.19745227 1.81637317 0.74006620
v 1.19745227 0.79362683 0.74006620
v 1.19745227 1.81637317 -0.74006620
v 1.19745227 0.79362683 -0.74006620
v -1.22156081 0.70141098 -0.27948234
v -1.22156081 1.90858902 -0.27948234
v -1.22156081 0.70141098 0.27948234
v -1.22156081 1.90858902 0.27948234
v -1.43550000 -0.00000000 -1.08750000
v -1.43550000 2.17500000 -1.08750000
v 1.34850000 -0.00000000 -1.30500000
v 1.34850000 1.08750000 -1.30500000
v 0.47548376 1.30500000 1.67377274
v 0.47548376 1.30500000 -1.67377274
v -0.66586917 0.00000000 1.60755039
v -0.66586917 1.30500000 1.60755039
v -0.66586917 -0.00000000 -1.60755039
v -0.66586917 1.30500000 -1.60755039
v 0.91477214 2.04506620 -0.00000000
v 0.91477214 0.56493380 -0.00000000
v 0.91477214 1.30500000 -1.48013241
v 0.91477214 1.30500000 1.48013241
v -1.65300000 -0.00000000 -0.87000000
v -1.65300000 2.61000000 -0.87000000
v 3.55180263 0.00000000 0.54375000
v 3.55180263 1.08750000 0.54375000
v 3.55180263 -0.00000000 -0.54375000
v 3.55180263 1.08750000 -0.54375000
v 2.06625000 -0.00000000 -0.94180263
v 2.06625000 1.08750000 -0.94180263
v 2.06625000 0.00000000 0.94180263
v 2.06625000 1.08750000 0.94180263
v 1.20717803 1.16525883 1.22156081
v 1.20717803 1.44474117 1.22156081
v 1.20717803 1.16525883 -1.22156081
v 1.20717803 1.44474117 -1.22156081
v 0.28268013 1.53369303 1.65483834
v 0.28268013 1.07630697 1.65483834
v 0.28268013 1.53369303 -1.65483834
v 0.28268013 1.07630697 -1.65483834
v 3.69750000 0.00000000 0.00000000
v 3.69750000 1.08750000 -0.00000000
v 1.50104316 1.68248305 0.45221193
v 1.50104316 0.92751695 0.45221193
v 1.50104316 1.68248305 -0.45221193
v 1.50104316 0.92751695 -0.45221193
v 0.53768957 0.87000000 -1.40768957
v 0.53768957 1.74000000 -1.40768957
v 0.53768957 0.87000000 1.40768957
v 0.53768957 1.74000000 1.40768957
f 155 1 135
f 155 135 156
f 156 135 136
f 156 136 3
f 135 1 209
f 135 209 136
f 136 209 210
f 136 210 3
f 209 1 59
f 209 59 210
f 210 59 60
f 210 60 3
f 59 1 13
f 59 13 60
f 60 13 14
f 60 14 3
f 13 1 289
f 13 289 14
f 14 289 290
f 14 290 3
f 289 1 125
f 289 125 290
f 290 125 126
f 290 126 3
f 125 1 203
f 125 203 126
f 126 203 204
f 126 204 3
f 203 1 161
f 203 161 204
f 204 161 162
f 204 162 3
f 161 1 201
f 161 201 162
f 162 201 202
f 162 202 3
f 201 1 127
f 201 127 202
f 202 127 128
f 202 128 3
f 127 1 287
f 127 287 128
f 128 287 288
f 128 288 3
f 287 1 11
f 287 11 288
f 288 11 12
f 288 12 3
f 11 1 57
f 11 57 12
f 12 57 58
f 12 58 3
f 57 1 211
f 57 211 58
f 58 211 212
f 58 212 3
f 211 1 133
f 211 133 212
f 212 133 134
f 212 134 3
f 133 1 155
f 133 155 134
f 134 155 156
f 134 156 3
f 55 42 130
f 42 106 237
f 130 237 26
f 42 237 130
f 106 31 73
f 31 110 278
f 73 278 83
f 31 278 73
f 26 216 75
f 216 83 242
f 75 242 5
f 216 242 75
f 106 73 237
f 73 83 216
f 237 216 26
f 73 216 237
f 55 130 62
f 130 26 37
f 62 37 14
f 130 37 62
f 26 75 10
f 75 5 269
f 10 269 320
f 75 269 10
f 14 311 286
f 311 320 206
f 286 206 293
f 311 206 286
f 26 10 37
f 10 320 311
f 37 311 14
f 10 311 37
f 55 62 129
f 62 14 38
f 129 38 25
f 62 38 129
f 14 286 312
f 286 293 205
f 312 205 319
f 286 205 312
f 25 9 76
f 9 319 270
f 76 270 6
f 9 270 76
f 14 312 38
f 312 319 9
f 38 9 25
f 312 9 38
f 55 129 41
f 129 25 238
f 41 238 105
f 129 238 41
f 25 76 215
f 76 6 241
f 215 241 84
f 76 241 215
f 105 74 32
f 74 84 277
f 32 277 109
f 74 277 32
f 25 215 238
f 215 84 74
f 238 74 105
f 215 74 238
f 55 41 42
f 41 105 111
f 42 111 106
f 41 111 42
f 105 32 267
f 32 109 165
f 267 165 162
f 32 165 267
f 106 268 31
f 268 162 166
f 31 166 110
f 268 166 31
f 105 267 111
f 267 162 268
f 111 268 106
f 267 268 111
f 293 206 308
f 206 320 117
f 308 117 250
f 206 117 308
f 320 269 124
f 269 5 114
f 124 114 253
f 269 114 124
f 250 275 317
f 275 253 68
f 317 68 246
f 275 68 317
f 320 124 117
f 124 253 275
f 117 275 250
f 124 275 117
f 5 242 8
f 242 83 185
f 8 185 4
f 242 185 8
f 83 278 53
f 278 110 280
f 53 280 89
f 278 280 53
f 4 187 18
f 187 89 244
f 18 244 19
f 187 244 18
f 83 53 185
f 53 89 187
f 185 187 4
f 53 187 185
f 110 166 29
f 166 162 266
f 29 266 108
f 166 266 29
f 162 165 265
f 165 109 30
f 265 30 107
f 165 30 265
f 108 112 40
f 112 107 39
f 40 39 56
f 112 39 40
f 162 265 266
f 265 107 112
f 266 112 108
f 265 112 266
f 109 277 279
f 277 84 54
f 279 54 90
f 277 54 279
f 84 241 186
f 241 6 7
f 186 7 2
f 241 7 186
f 90 188 243
f 188 2 17
f 243 17 20
f 188 17 243
f 84 186 54
f 186 2 188
f 54 188 90
f 186 188 54
f 6 270 113
f 270 319 123
f 113 123 254
f 270 123 113
f 319 205 118
f 205 293 307
f 118 307 249
f 205 307 118
f 254 276 67
f 276 249 318
f 67 318 245
f 276 318 67
f 319 118 123
f 118 249 276
f 123 276 254
f 118 276 123
f 294 306 208
f 306 252 119
f 208 119 322
f 306 119 208
f 252 315 273
f 315 246 70
f 273 70 259
f 315 70 273
f 322 122 271
f 122 259 116
f 271 116 19
f 122 116 271
f 252 273 119
f 273 259 122
f 119 122 322
f 273 122 119
f 294 208 285
f 208 322 309
f 285 309 12
f 208 309 285
f 322 271 16
f 271 19 77
f 16 77 28
f 271 77 16
f 12 35 61
f 35 28 132
f 61 132 56
f 35 132 61
f 322 16 309
f 16 28 35
f 309 35 12
f 16 35 309
f 294 285 207
f 285 12 310
f 207 310 321
f 285 310 207
f 12 61 36
f 61 56 131
f 36 131 27
f 61 131 36
f 321 15 272
f 15 27 78
f 272 78 20
f 15 78 272
f 12 36 310
f 36 27 15
f 310 15 321
f 36 15 310
f 294 207 305
f 207 321 120
f 305 120 251
f 207 120 305
f 321 272 121
f 272 20 115
f 121 115 260
f 272 115 121
f 251 274 316
f 274 260 69
f 316 69 245
f 274 69 316
f 321 121 120
f 121 260 274
f 120 274 251
f 121 274 120
f 294 305 306
f 305 251 248
f 306 248 252
f 305 248 306
f 251 316 79
f 316 245 153
f 79 153 156
f 316 153 79
f 252 80 315
f 80 156 154
f 315 154 246
f 80 154 315
f 251 79 248
f 79 156 80
f 248 80 252
f 79 80 248
f 19 116 18
f 116 259 143
f 18 143 4
f 116 143 18
f 259 70 291
f 70 246 68
f 291 68 253
f 70 68 291
f 4 141 8
f 141 253 114
f 8 114 5
f 141 114 8
f 259 291 143
f 291 253 141
f 143 141 4
f 291 141 143
f 56 132 40
f 132 28 239
f 40 239 108
f 132 239 40
f 28 77 214
f 77 19 244
f 214 244 89
f 77 244 214
f 108 71 29
f 71 89 280
f 29 280 110
f 71 280 29
f 28 214 239
f 214 89 71
f 239 71 108
f 214 71 239
f 20 78 243
f 78 27 213
f 243 213 90
f 78 213 243
f 27 131 240
f 131 56 39
f 240 39 107
f 131 39 240
f 90 72 279
f 72 107 30
f 279 30 109
f 72 30 279
f 27 240 213
f 240 107 72
f 213 72 90
f 240 72 213
f 245 69 67
f 69 260 292
f 67 292 254
f 69 292 67
f 260 115 144
f 115 20 17
f 144 17 2
f 115 17 144
f 254 142 113
f 142 2 7
f 113 7 6
f 142 7 113
f 260 144 292
f 144 2 142
f 292 142 254
f 144 142 292
f 246 154 317
f 154 156 82
f 317 82 250
f 154 82 317
f 156 153 81
f 153 245 318
f 81 318 249
f 153 318 81
f 250 247 308
f 247 249 307
f 308 307 293
f 247 307 308
f 156 81 82
f 81 249 247
f 82 247 250
f 81 247 82
f 313 95 299
f 313 299 314
f 314 299 300
f 314 300 96
f 299 95 193
f 299 193 300
f 300 193 194
f 300 194 96
f 193 95 97
f 193 97 194
f 194 97 98
f 194 98 96
f 97 95 301
f 97 301 98
f 98 301 302
f 98 302 96
f 301 95 199
f 301 199 302
f 302 199 200
f 302 200 96
f 199 95 173
f 199 173 200
f 200 173 174
f 200 174 96
f 173 95 197
f 173 197 174
f 174 197 198
f 174 198 96
f 197 95 303
f 197 303 198
f 198 303 304
f 198 304 96
f 303 95 99
f 303 99 304
f 304 99 100
f 304 100 96
f 99 95 195
f 99 195 100
f 100 195 196
f 100 196 96
f 195 95 297
f 195 297 196
f 196 297 298
f 196 298 96
f 297 95 313
f 297 313 298
f 298 313 314
f 298 314 96
f 295 163 145
f 295 145 296
f 296 145 146
f 296 146 164
f 145 163 101
f 145 101 146
f 146 101 102
f 146 102 164
f 101 163 261
f 101 261 102
f 102 261 262
f 102 262 164
f 261 163 181
f 261 181 262
f 262 181 182
f 262 182 164
f 181 163 43
f 181 43 182
f 182 43 44
f 182 44 164
f 43 163 183
f 43 183 44
f 44 183 184
f 44 184 164
f 183 163 263
f 183 263 184
f 184 263 264
f 184 264 164
f 263 163 103
f 263 103 264
f 264 103 104
f 264 104 164
f 103 163 147
f 103 147 104
f 104 147 148
f 104 148 164
f 147 163 295
f 147 295 148
f 148 295 296
f 148 296 164
f 281 149 137
f 281 137 282
f 282 137 138
f 282 138 150
f 137 149 63
f 137 63 138
f 138 63 64
f 138 64 150
f 63 149 229
f 63 229 64
f 64 229 230
f 64 230 150
f 229 149 157
f 229 157 230
f 230 157 158
f 230 158 150
f 157 149 33
f 157 33 158
f 158 33 34
f 158 34 150
f 33 149 159
f 33 159 34
f 34 159 160
f 34 160 150
f 159 149 231
f 159 231 160
f 160 231 232
f 160 232 150
f 231 149 65
f 231 65 232
f 232 65 66
f 232 66 150
f 65 149 139
f 65 139 66
f 66 139 140
f 66 140 150
f 139 149 281
f 139 281 140
f 140 281 282
f 140 282 150
f 283 223 217
f 283 217 284
f 284 217 218
f 284 218 224
f 217 223 93
f 217 93 218
f 218 93 94
f 218 94 224
f 93 223 221
f 93 221 94
f 94 221 222
f 94 222 224
f 221 223 47
f 221 47 222
f 222 47 48
f 222 48 224
f 47 223 233
f 47 233 48
f 48 233 234
f 48 234 224
f 233 223 171
f 233 171 234
f 234 171 172
f 234 172 224
f 171 223 235
f 171 235 172
f 172 235 236
f 172 236 224
f 235 223 45
f 235 45 236
f 236 45 46
f 236 46 224
f 45 223 225
f 45 225 46
f 46 225 226
f 46 226 224
f 225 223 91
f 225 91 226
f 226 91 92
f 226 92 224
f 91 223 219
f 91 219 92
f 92 219 220
f 92 220 224
f 219 223 283
f 219 283 220
f 220 283 284
f 220 284 224
f 227 177 167
f 227 167 228
f 228 167 168
f 228 168 178
f 167 177 51
f 167 51 168
f 168 51 52
f 168 52 178
f 51 177 175
f 51 175 52
f 52 175 176
f 52 176 178
f 175 177 23
f 175 23 176
f 176 23 24
f 176 24 178
f 23 177 189
f 23 189 24
f 24 189 190
f 24 190 178
f 189 177 151
f 189 151 190
f 190 151 152
f 190 152 178
f 151 177 191
f 151 191 152
f 152 191 192
f 152 192 178
f 191 177 21
f 191 21 192
f 192 21 22
f 192 22 178
f 21 177 179
f 21 179 22
f 22 179 180
f 22 180 178
f 179 177 49
f 179 49 180
f 180 49 50
f 180 50 178
f 49 177 169
f 49 169 50
f 50 169 170
f 50 170 178
f 169 177 227
f 169 227 170
f 170 227 228
f 170 228 178
f 86 88 85
f 255 86 85
f 85 88 87
f 87 255 85
f 86 258 88
f 256 86 255
f 256 258 86
f 88 258 87
f 257 255 87
f 87 258 257
f 257 256 255
f 258 256 257