# https://github.com/mikedh/trimesh
v 0.00000000 0.00000000 0.00000000
v 0.00000000 5.00000000 0.00000000
v 0.00000000 3.00000000 0.00000000
v 0.00000000 1.00000000 0.00000000
v 0.00000000 -0.00000000 4.00000000
v 0.00000000 3.00000000 4.00000000
v 0.00000000 0.00000000 -4.00000000
v 0.00000000 3.00000000 -4.00000000
v 0.00000000 4.92387672 1.09306612
v 0.00000000 1.07612328 1.09306612
v 0.00000000 4.05146222 3.40260323
v 0.00000000 1.94853778 3.40260323
v 0.00000000 1.29869838 2.10292445
v 0.00000000 4.70130162 2.10292445
v 0.00000000 1.29869838 -2.10292445
v 0.00000000 4.70130162 -2.10292445
v 0.00000000 4.05146222 -3.40260323
v 0.00000000 1.94853778 -3.40260323
v 0.00000000 4.92387672 -1.09306612
v 0.00000000 1.07612328 -1.09306612
v -2.00000000 -0.00000000 4.00000000
v -2.00000000 2.00000000 4.00000000
v -2.00000000 -0.00000000 6.00000000
v -2.00000000 2.00000000 6.00000000
v -2.00000000 1.38196601 -1.23606798
v -2.00000000 4.61803399 -1.23606798
v -2.00000000 1.38196601 1.23606798
v -2.00000000 4.61803399 1.23606798
v 6.00000000 0.00000000 0.00000000
v 6.00000000 2.50000000 0.00000000
v 6.00000000 -0.00000000 2.50000000
v 6.00000000 2.50000000 2.50000000
v 6.00000000 0.00000000 -2.50000000
v 6.00000000 2.50000000 -2.50000000
v -4.20000000 0.00000000 -2.00000000
v -4.20000000 6.00000000 -2.00000000
v 3.80000000 0.00000000 -2.48038476
v 3.80000000 2.00000000 -2.48038476
v 3.80000000 0.00000000 -3.51961524
v 3.80000000 2.00000000 -3.51961524
v 2.80000000 0.00000000 -2.48038476
v 2.80000000 2.50000000 -2.48038476
v 2.80000000 0.00000000 -3.51961524
v 2.80000000 2.50000000 -3.51961524
v -4.00000000 0.00000000 0.00000000
v -4.00000000 3.00000000 0.00000000
v -4.00000000 0.00000000 -2.00000000
v -4.00000000 6.00000000 -2.00000000
v 4.00000000 0.00000000 0.00000000
v 4.00000000 3.00000000 0.00000000
v -3.80000000 0.00000000 -2.00000000
v -3.80000000 6.00000000 -2.00000000
v 2.00000000 -0.00000000 4.00000000
v 2.00000000 2.00000000 4.00000000
v 2.00000000 -0.00000000 6.00000000
v 2.00000000 2.00000000 6.00000000
v 2.00000000 1.38196601 -1.23606798
v 2.00000000 4.61803399 -1.23606798
v 2.00000000 1.38196601 1.23606798
v 2.00000000 4.61803399 1.23606798
v 3.20000000 0.00000000 -2.48038476
v 3.20000000 2.00000000 -2.48038476
v 3.20000000 0.00000000 -3.51961524
v 3.20000000 2.00000000 -3.51961524
v 2.20000000 0.00000000 -2.48038476
v 2.20000000 2.50000000 -2.48038476
v 2.20000000 0.00000000 -3.51961524
v 2.20000000 2.50000000 -3.51961524
v -2.77512191 2.67875593 2.80818578
v -2.77512191 3.32124407 2.80818578
v -2.77512191 2.67875593 -2.80818578
v -2.77512191 3.32124407 -2.80818578
v -1.09306612 3.00000000 3.84775343
v -1.09306612 3.00000000 -3.84775343
v -4.06180340 0.00000000 -2.19021130
v -4.06180340 6.00000000 -2.19021130
v -4.06180340 0.00000000 -1.80978870
v -4.06180340 6.00000000 -1.80978870
v -3.66180340 0.00000000 -2.61755705
v -3.66180340 5.00000000 -2.61755705
v -3.66180340 0.00000000 -2.38244295
v -3.66180340 5.00000000 -2.38244295
v -1.70130162 4.37638192 -2.35114101
v -1.70130162 1.62361808 -2.35114101
v -1.70130162 4.37638192 2.35114101
v -1.70130162 1.62361808 2.35114101
v 1.23606798 4.00000000 -3.23606798
v 1.23606798 2.00000000 -3.23606798
v 1.23606798 4.00000000 3.23606798
v 1.23606798 2.00000000 3.23606798
v 3.23606798 2.38196601 2.00000000
v 3.23606798 3.61803399 2.00000000
v 3.23606798 2.38196601 -2.00000000
v 3.23606798 3.61803399 -2.00000000
v 3.83493649 0.00000000 -1.25000000
v 3.83493649 2.50000000 -1.25000000
v 3.83493649 -0.00000000 1.25000000
v 3.83493649 2.50000000 1.25000000
v -0.64248814 1.59590711 2.77512191
v -0.64248814 4.40409289 2.77512191
v -0.64248814 1.59590711 -2.77512191
v -0.64248814 4.40409289 -2.77512191
v -3.40260323 4.05146222 0.00000000
v -3.40260323 1.94853778 0.00000000
v -3.40260323 3.00000000 2.10292445
v -3.40260323 3.00000000 -2.10292445
v 1.03956765 1.27466304 1.73555426
v 1.03956765 4.72533696 1.73555426
v 1.03956765 1.27466304 -1.73555426
v 1.03956765 4.72533696 -1.73555426
v -1.73555426 2.48021617 -3.45067392
v -1.73555426 3.51978383 -3.45067392
v -1.73555426 2.48021617 3.45067392
v -1.73555426 3.51978383 3.45067392
v -2.10292445 1.29869838 0.00000000
v -2.10292445 4.70130162 0.00000000
v -2.10292445 3.00000000 3.40260323
v -2.10292445 3.00000000 -3.40260323
v -1.53073373 -0.00000000 3.69551813
v -1.53073373 3.00000000 3.69551813
v -1.53073373 0.00000000 -3.69551813
v -1.53073373 3.00000000 -3.69551813
v -3.80422607 2.67508030 -1.05146222
v -3.80422607 3.32491970 -1.05146222
v -3.80422607 2.67508030 1.05146222
v -3.80422607 3.32491970 1.05146222
v 4.01961524 0.00000000 -3.30000000
v 4.01961524 2.00000000 -3.30000000
v 4.01961524 0.00000000 -2.70000000
v 4.01961524 2.00000000 -2.70000000
v 3.01961524 0.00000000 -3.30000000
v 3.01961524 2.50000000 -3.30000000
v 3.01961524 0.00000000 -2.70000000
v 3.01961524 2.50000000 -2.70000000
v -3.69551813 -0.00000000 1.53073373
v -3.69551813 3.00000000 1.53073373
v -3.69551813 0.00000000 -1.53073373
v -3.69551813 3.00000000 -1.53073373
v 7.25000000 -0.00000000 2.16506351
v 7.25000000 2.50000000 2.16506351
v 7.25000000 0.00000000 -2.16506351
v 7.25000000 2.50000000 -2.16506351
v -3.84775343 3.54653306 0.00000000
v -3.84775343 2.45346694 0.00000000
v 2.82842712 0.00000000 -2.82842712
v 2.82842712 3.00000000 -2.82842712
v 2.82842712 -0.00000000 2.82842712
v 2.82842712 3.00000000 2.82842712
v 2.75276384 4.17557050 1.70130162
v 2.75276384 1.82442950 1.70130162
v 2.75276384 4.17557050 -1.70130162
v 2.75276384 1.82442950 -1.70130162
v -2.80818578 1.61243904 0.64248814
v -2.80818578 4.38756096 0.64248814
v -2.80818578 1.61243904 -0.64248814
v -2.80818578 4.38756096 -0.64248814
v 1.05146222 1.09788697 0.64983939
v 1.05146222 4.90211303 0.64983939
v 1.05146222 1.09788697 -0.64983939
v 1.05146222 4.90211303 -0.64983939
v -3.83819660 0.00000000 -1.88244295
v -3.83819660 6.00000000 -1.88244295
v -3.83819660 0.00000000 -2.11755705
v -3.83819660 6.00000000 -2.11755705
v -3.43819660 0.00000000 -2.30978870
v -3.43819660 5.00000000 -2.30978870
v -3.43819660 0.00000000 -2.69021130
v -3.43819660 5.00000000 -2.69021130
v 2.35114101 3.85065081 -2.75276384
v 2.35114101 2.14934919 -2.75276384
v 2.35114101 3.85065081 2.75276384
v 2.35114101 2.14934919 2.75276384
v -0.64983939 2.47426889 3.80422607
v -0.64983939 3.52573111 3.80422607
v -0.64983939 2.47426889 -3.80422607
v -0.64983939 3.52573111 -3.80422607
v 2.90000000 0.00000000 -3.00000000
v 2.90000000 2.00000000 -3.00000000
v 4.10000000 0.00000000 -3.00000000
v 4.10000000 2.00000000 -3.00000000
v 1.90000000 0.00000000 -3.00000000
v 1.90000000 2.50000000 -3.00000000
v 3.10000000 0.00000000 -3.00000000
v 3.10000000 2.50000000 -3.00000000
v -3.70000000 0.00000000 -2.50000000
v -3.70000000 5.00000000 -2.50000000
v 3.45067392 3.86777713 -1.03956765
v 3.45067392 2.13222287 -1.03956765
v 3.45067392 3.86777713 1.03956765
v 3.45067392 2.13222287 1.03956765
v -3.50000000 0.00000000 -2.50000000
v -3.50000000 5.00000000 -2.50000000
v 3.50000000 0.00000000 0.00000000
v 3.50000000 2.50000000 0.00000000
v 3.50000000 0.00000000 -2.40000000
v 3.50000000 2.00000000 -2.40000000
v 3.50000000 0.00000000 -3.60000000
v 3.50000000 2.00000000 -3.60000000
v 3.50000000 0.00000000 -3.00000000
v 3.50000000 2.00000000 -3.00000000
v -3.30000000 0.00000000 -2.50000000
v -3.30000000 5.00000000 -2.50000000
v -3.45067392 3.86777713 -1.03956765
v -3.45067392 2.13222287 -1.03956765
v -3.45067392 3.86777713 1.03956765
v -3.45067392 2.13222287 1.03956765
v 2.50000000 0.00000000 -2.40000000
v 2.50000000 2.50000000 -2.40000000
v 2.50000000 0.00000000 -3.60000000
v 2.50000000 2.50000000 -3.60000000
v 2.50000000 0.00000000 -3.00000000
v 2.50000000 2.50000000 -3.00000000
v 8.50000000 0.00000000 0.00000000
v 8.50000000 2.50000000 0.00000000
v 0.64983939 2.47426889 3.80422607
v 0.64983939 3.52573111 3.80422607
v 0.64983939 2.47426889 -3.80422607
v 0.64983939 3.52573111 -3.80422607
v -2.35114101 3.85065081 -2.75276384
v -2.35114101 2.14934919 -2.75276384
v -2.35114101 3.85065081 2.75276384
v -2.35114101 2.14934919 2.75276384
v -3.56180340 0.00000000 -2.30978870
v -3.56180340 5.00000000 -2.30978870
v -3.56180340 0.00000000 -2.69021130
v -3.56180340 5.00000000 -2.69021130
v -4.16180340 0.00000000 -1.88244295
v -4.16180340 6.00000000 -1.88244295
v -4.16180340 0.00000000 -2.11755705
v -4.16180340 6.00000000 -2.11755705
v -1.05146222 1.09788697 0.64983939
v -1.05146222 4.90211303 0.64983939
v -1.05146222 1.09788697 -0.64983939
v -1.05146222 4.90211303 -0.64983939
v 2.80818578 1.61243904 0.64248814
v 2.80818578 4.38756096 0.64248814
v 2.80818578 1.61243904 -0.64248814
v 2.80818578 4.38756096 -0.64248814
v -2.75276384 4.17557050 1.70130162
v -2.75276384 1.82442950 1.70130162
v -2.75276384 4.17557050 -1.70130162
v -2.75276384 1.82442950 -1.70130162
v -2.82842712 0.00000000 -2.82842712
v -2.82842712 3.00000000 -2.82842712
v -2.82842712 -0.00000000 2.82842712
v -2.82842712 3.00000000 2.82842712
v 3.84775343 3.54653306 0.00000000
v 3.84775343 2.45346694 0.00000000
v 4.75000000 -0.00000000 2.16506351
v 4.75000000 2.50000000 2.16506351
v 4.75000000 0.00000000 -2.16506351
v 4.75000000 2.50000000 -2.16506351
v 3.69551813 -0.00000000 1.53073373
v 3.69551813 3.00000000 1.53073373
v 3.69551813 0.00000000 -1.53073373
v 3.69551813 3.00000000 -1.53073373
v 2.98038476 0.00000000 -3.30000000
v 2.98038476 2.00000000 -3.30000000
v 2.98038476 0.00000000 -2.70000000
v 2.98038476 2.00000000 -2.70000000
v 1.98038476 0.00000000 -3.30000000
v 1.98038476 2.50000000 -3.30000000
v 1.98038476 0.00000000 -2.70000000
v 1.98038476 2.50000000 -2.70000000
v 3.80422607 2.67508030 -1.05146222
v 3.80422607 3.32491970 -1.05146222
v 3.80422607 2.67508030 1.05146222
v 3.80422607 3.32491970 1.05146222
v 1.53073373 -0.00000000 3.69551813
v 1.53073373 3.00000000 3.69551813
v 1.53073373 0.00000000 -3.69551813
v 1.53073373 3.00000000 -3.69551813
v 2.10292445 1.29869838 0.00000000
v 2.10292445 4.70130162 0.00000000
v 2.10292445 3.00000000 3.40260323
v 2.10292445 3.00000000 -3.40260323
v 1.73555426 2.48021617 -3.45067392
v 1.73555426 3.51978383 -3.45067392
v 1.73555426 2.48021617 3.45067392
v 1.73555426 3.51978383 3.45067392
v -1.03956765 1.27466304 1.73555426
v -1.03956765 4.72533696 1.73555426
v -1.03956765 1.27466304 -1.73555426
v -1.03956765 4.72533696 -1.73555426
v 3.40260323 4.05146222 0.00000000
v 3.40260323 1.94853778 0.00000000
v 3.40260323 3.00000000 2.10292445
v 3.40260323 3.00000000 -2.10292445
v 0.64248814 1.59590711 2.77512191
v 0.64248814 4.40409289 2.77512191
v 0.64248814 1.59590711 -2.77512191
v 0.64248814 4.40409289 -2.77512191
v 8.16506351 0.00000000 -1.25000000
v 8.16506351 2.50000000 -1.25000000
v 8.16506351 -0.00000000 1.25000000
v 8.16506351 2.50000000 1.25000000
v -3.23606798 2.38196601 2.00000000
v -3.23606798 3.61803399 2.00000000
v -3.23606798 2.38196601 -2.00000000
v -3.23606798 3.61803399 -2.00000000
v -1.23606798 4.00000000 -3.23606798
v -1.23606798 2.00000000 -3.23606798
v -1.23606798 4.00000000 3.23606798
v -1.23606798 2.00000000 3.23606798
v 1.70130162 4.37638192 -2.35114101
v 1.70130162 1.62361808 -2.35114101
v 1.70130162 4.37638192 2.35114101
v 1.70130162 1.62361808 2.35114101
v -3.33819660 0.00000000 -2.61755705
v -3.33819660 5.00000000 -2.61755705
v -3.33819660 0.00000000 -2.38244295
v -3.33819660 5.00000000 -2.38244295
v -3.93819660 0.00000000 -2.19021130
v -3.93819660 6.00000000 -2.19021130
v -3.93819660 0.00000000 -1.80978870
v -3.93819660 6.00000000 -1.80978870
v 1.09306612 3.00000000 3.84775343
v 1.09306612 3.00000000 -3.84775343
v 2.77512191 2.67875593 2.80818578
v 2.77512191 3.32124407 2.80818578
v 2.77512191 2.67875593 -2.80818578
v 2.77512191 3.32124407 -2.80818578
f 49 1 255
f 49 255 50
f 50 255 256
f 50 256 3
f 255 1 145
f 255 145 256
f 256 145 146
f 256 146 3
f 145 1 271
f 145 271 146
f 146 271 272
f 146 272 3
f 271 1 7
f 271 7 272
f 272 7 8
f 272 8 3
f 7 1 121
f 7 121 8
f 8 121 122
f 8 122 3
f 121 1 243
f 121 243 122
f 122 243 244
f 122 244 3
f 243 1 137
f 243 137 244
f 244 137 138
f 244 138 3
f 137 1 45
f 137 45 138
f 138 45 46
f 138 46 3
f 45 1 135
f 45 135 46
f 46 135 136
f 46 136 3
f 135 1 245
f 135 245 136
f 136 245 246
f 136 246 3
f 245 1 119
f 245 119 246
f 246 119 120
f 246 120 3
f 119 1 5
f 119 5 120
f 120 5 6
f 120 6 3
f 5 1 269
f 5 269 6
f 6 269 270
f 6 270 3
f 269 1 147
f 269 147 270
f 270 147 148
f 270 148 3
f 147 1 253
f 147 253 148
f 148 253 254
f 148 254 3
f 253 1 49
f 253 49 254
f 254 49 50
f 254 50 3
f 118 72 112
f 72 300 219
f 112 219 301
f 72 219 112
f 300 203 241
f 203 103 156
f 241 156 26
f 203 156 241
f 301 83 102
f 83 26 284
f 102 284 16
f 83 284 102
f 300 241 219
f 241 26 83
f 219 83 301
f 241 83 219
f 118 112 74
f 112 301 176
f 74 176 8
f 112 176 74
f 301 102 17
f 102 16 292
f 17 292 87
f 102 292 17
f 8 218 318
f 218 87 278
f 318 278 276
f 218 278 318
f 301 17 176
f 17 87 218
f 176 218 8
f 17 218 176
f 118 74 111
f 74 8 175
f 111 175 302
f 74 175 111
f 8 318 217
f 318 276 277
f 217 277 88
f 318 277 217
f 302 18 101
f 18 88 291
f 101 291 15
f 18 291 101
f 8 217 175
f 217 88 18
f 175 18 302
f 217 18 175
f 118 111 71
f 111 302 220
f 71 220 299
f 111 220 71
f 302 101 84
f 101 15 283
f 84 283 25
f 101 283 84
f 299 242 204
f 242 25 155
f 204 155 104
f 242 155 204
f 302 84 220
f 84 25 242
f 220 242 299
f 84 242 220
f 118 71 72
f 71 299 106
f 72 106 300
f 71 106 72
f 299 204 123
f 204 104 144
f 123 144 46
f 204 144 123
f 300 124 203
f 124 46 143
f 203 143 103
f 124 143 203
f 299 123 106
f 123 46 124
f 106 124 300
f 123 124 106
f 276 278 322
f 278 87 169
f 322 169 94
f 278 169 322
f 87 292 305
f 292 16 110
f 305 110 58
f 292 110 305
f 94 151 187
f 151 58 238
f 187 238 285
f 151 238 187
f 87 305 169
f 305 58 151
f 169 151 94
f 305 151 169
f 16 284 19
f 284 26 234
f 19 234 2
f 284 234 19
f 26 156 116
f 156 103 154
f 116 154 28
f 156 154 116
f 2 232 9
f 232 28 282
f 9 282 14
f 232 282 9
f 26 116 234
f 116 28 232
f 234 232 2
f 116 232 234
f 103 143 205
f 143 46 126
f 205 126 298
f 143 126 205
f 46 144 125
f 144 104 206
f 125 206 297
f 144 206 125
f 298 105 70
f 105 297 69
f 70 69 117
f 105 69 70
f 46 125 126
f 125 297 105
f 126 105 298
f 125 105 126
f 104 155 153
f 155 25 115
f 153 115 27
f 155 115 153
f 25 283 233
f 283 15 20
f 233 20 4
f 283 20 233
f 27 231 281
f 231 4 10
f 281 10 13
f 231 10 281
f 25 233 115
f 233 4 231
f 115 231 27
f 233 231 115
f 15 291 109
f 291 88 306
f 109 306 57
f 291 306 109
f 88 277 170
f 277 276 321
f 170 321 93
f 277 321 170
f 57 152 237
f 152 93 188
f 237 188 286
f 152 188 237
f 88 170 306
f 170 93 152
f 306 152 57
f 170 152 306
f 275 320 280
f 320 92 171
f 280 171 89
f 320 171 280
f 92 189 149
f 189 285 236
f 149 236 60
f 189 236 149
f 89 307 290
f 307 60 108
f 290 108 14
f 307 108 290
f 92 149 171
f 149 60 307
f 171 307 89
f 149 307 171
f 275 280 317
f 280 89 216
f 317 216 6
f 280 216 317
f 89 290 11
f 290 14 100
f 11 100 303
f 290 100 11
f 6 174 73
f 174 303 114
f 73 114 117
f 174 114 73
f 89 11 216
f 11 303 174
f 216 174 6
f 11 174 216
f 275 317 279
f 317 6 215
f 279 215 90
f 317 215 279
f 6 73 173
f 73 117 113
f 173 113 304
f 73 113 173
f 90 12 289
f 12 304 99
f 289 99 13
f 12 99 289
f 6 173 215
f 173 304 12
f 215 12 90
f 173 12 215
f 275 279 319
f 279 90 172
f 319 172 91
f 279 172 319
f 90 289 308
f 289 13 107
f 308 107 59
f 289 107 308
f 91 150 190
f 150 59 235
f 190 235 286
f 150 235 190
f 90 308 172
f 308 59 150
f 172 150 91
f 308 150 172
f 275 319 320
f 319 91 287
f 320 287 92
f 319 287 320
f 91 190 267
f 190 286 248
f 267 248 50
f 190 248 267
f 92 268 189
f 268 50 247
f 189 247 285
f 268 247 189
f 91 267 287
f 267 50 268
f 287 268 92
f 267 268 287
f 14 108 9
f 108 60 158
f 9 158 2
f 108 158 9
f 60 236 274
f 236 285 238
f 274 238 58
f 236 238 274
f 2 160 19
f 160 58 110
f 19 110 16
f 160 110 19
f 60 274 158
f 274 58 160
f 158 160 2
f 274 160 158
f 117 114 70
f 114 303 221
f 70 221 298
f 114 221 70
f 303 100 85
f 100 14 282
f 85 282 28
f 100 282 85
f 298 239 205
f 239 28 154
f 205 154 103
f 239 154 205
f 303 85 221
f 85 28 239
f 221 239 298
f 85 239 221
f 13 99 281
f 99 304 86
f 281 86 27
f 99 86 281
f 304 113 222
f 113 117 69
f 222 69 297
f 113 69 222
f 27 240 153
f 240 297 206
f 153 206 104
f 240 206 153
f 304 222 86
f 222 297 240
f 86 240 27
f 222 240 86
f 286 235 237
f 235 59 273
f 237 273 57
f 235 273 237
f 59 107 157
f 107 13 10
f 157 10 4
f 107 10 157
f 57 159 109
f 159 4 20
f 109 20 15
f 159 20 109
f 59 157 273
f 157 4 159
f 273 159 57
f 157 159 273
f 285 247 187
f 247 50 266
f 187 266 94
f 247 266 187
f 50 248 265
f 248 286 188
f 265 188 93
f 248 188 265
f 94 288 322
f 288 93 321
f 322 321 276
f 288 321 322
f 50 265 266
f 265 93 288
f 266 288 94
f 265 288 266
f 213 29 293
f 213 293 214
f 214 293 294
f 214 294 30
f 293 29 141
f 293 141 294
f 294 141 142
f 294 142 30
f 141 29 33
f 141 33 142
f 142 33 34
f 142 34 30
f 33 29 251
f 33 251 34
f 34 251 252
f 34 252 30
f 251 29 95
f 251 95 252
f 252 95 96
f 252 96 30
f 95 29 193
f 95 193 96
f 96 193 194
f 96 194 30
f 193 29 97
f 193 97 194
f 194 97 98
f 194 98 30
f 97 29 249
f 97 249 98
f 98 249 250
f 98 250 30
f 249 29 31
f 249 31 250
f 250 31 32
f 250 32 30
f 31 29 139
f 31 139 32
f 32 139 140
f 32 140 30
f 139 29 295
f 139 295 140
f 140 295 296
f 140 296 30
f 295 29 213
f 295 213 296
f 296 213 214
f 296 214 30
f 51 47 163
f 51 163 52
f 52 163 164
f 52 164 48
f 163 47 313
f 163 313 164
f 164 313 314
f 164 314 48
f 313 47 75
f 313 75 314
f 314 75 76
f 314 76 48
f 75 47 229
f 75 229 76
f 76 229 230
f 76 230 48
f 229 47 35
f 229 35 230
f 230 35 36
f 230 36 48
f 35 47 227
f 35 227 36
f 36 227 228
f 36 228 48
f 227 47 77
f 227 77 228
f 228 77 78
f 228 78 48
f 77 47 315
f 77 315 78
f 78 315 316
f 78 316 48
f 315 47 161
f 315 161 316
f 316 161 162
f 316 162 48
f 161 47 51
f 161 51 162
f 162 51 52
f 162 52 48
f 201 191 309
f 201 309 202
f 202 309 310
f 202 310 192
f 309 191 167
f 309 167 310
f 310 167 168
f 310 168 192
f 167 191 225
f 167 225 168
f 168 225 226
f 168 226 192
f 225 191 79
f 225 79 226
f 226 79 80
f 226 80 192
f 79 191 185
f 79 185 80
f 80 185 186
f 80 186 192
f 185 191 81
f 185 81 186
f 186 81 82
f 186 82 192
f 81 191 223
f 81 223 82
f 82 223 224
f 82 224 192
f 223 191 165
f 223 165 224
f 224 165 166
f 224 166 192
f 165 191 311
f 165 311 166
f 166 311 312
f 166 312 192
f 311 191 201
f 311 201 312
f 312 201 202
f 312 202 192
f 183 211 131
f 183 131 184
f 184 131 132
f 184 132 212
f 131 211 43
f 131 43 132
f 132 43 44
f 132 44 212
f 43 211 209
f 43 209 44
f 44 209 210
f 44 210 212
f 209 211 67
f 209 67 210
f 210 67 68
f 210 68 212
f 67 211 261
f 67 261 68
f 68 261 262
f 68 262 212
f 261 211 181
f 261 181 262
f 262 181 182
f 262 182 212
f 181 211 263
f 181 263 182
f 182 263 264
f 182 264 212
f 263 211 65
f 263 65 264
f 264 65 66
f 264 66 212
f 65 211 207
f 65 207 66
f 66 207 208
f 66 208 212
f 207 211 41
f 207 41 208
f 208 41 42
f 208 42 212
f 41 211 133
f 41 133 42
f 42 133 134
f 42 134 212
f 133 211 183
f 133 183 134
f 134 183 184
f 134 184 212
f 179 199 127
f 179 127 180
f 180 127 128
f 180 128 200
f 127 199 39
f 127 39 128
f 128 39 40
f 128 40 200
f 39 199 197
f 39 197 40
f 40 197 198
f 40 198 200
f 197 199 63
f 197 63 198
f 198 63 64
f 198 64 200
f 63 199 257
f 63 257 64
f 64 257 258
f 64 258 200
f 257 199 177
f 257 177 258
f 258 177 178
f 258 178 200
f 177 199 259
f 177 259 178
f 178 259 260
f 178 260 200
f 259 199 61
f 259 61 260
f 260 61 62
f 260 62 200
f 61 199 195
f 61 195 62
f 62 195 196
f 62 196 200
f 195 199 37
f 195 37 196
f 196 37 38
f 196 38 200
f 37 199 129
f 37 129 38
f 38 129 130
f 38 130 200
f 129 199 179
f 129 179 130
f 130 179 180
f 130 180 200
f 24 22 23
f 55 24 23
f 23 22 21
f 21 55 23
f 24 54 22
f 56 24 55
f 56 54 24
f 22 54 21
f 53 55 21
f 21 54 53
f 53 56 55
f 54 56 53