# https://github.com/mikedh/trimesh
mtllib material_0.mtl
usemtl material_0
v 0.00000000 0.00000000 0.00000000
v 0.00000000 5.00000000 0.00000000
v 0.00000000 5.00000000 -1.20000000
v 0.00000000 27.00000000 -1.20000000
v 0.00000000 -0.00000000 4.00000000
v 0.00000000 5.00000000 4.00000000
v 0.00000000 0.00000000 -4.00000000
v 0.00000000 5.00000000 -4.00000000
v 0.00000000 5.00000000 1.20000000
v 0.00000000 27.00000000 1.20000000
v 8.00000000 -0.00000000 3.46410162
v 8.00000000 5.00000000 3.46410162
v 8.00000000 0.00000000 -3.46410162
v 8.00000000 5.00000000 -3.46410162
v 1.20000000 5.00000000 0.00000000
v 1.20000000 27.00000000 0.00000000
v 16.00000000 0.00000000 -7.50000000
v 16.00000000 16.00000000 -7.50000000
v 16.00000000 0.00000000 -4.50000000
v 16.00000000 16.00000000 -4.50000000
v -11.20000000 5.00000000 0.00000000
v -11.20000000 27.00000000 0.00000000
v -10.00000000 0.00000000 0.00000000
v -10.00000000 5.00000000 0.00000000
v -10.00000000 5.00000000 -1.20000000
v -10.00000000 27.00000000 -1.20000000
v -10.00000000 -0.00000000 4.00000000
v -10.00000000 5.00000000 4.00000000
v -10.00000000 0.00000000 -4.00000000
v -10.00000000 5.00000000 -4.00000000
v -10.00000000 5.00000000 1.20000000
v -10.00000000 27.00000000 1.20000000
v -2.00000000 -0.00000000 3.46410162
v -2.00000000 5.00000000 3.46410162
v -2.00000000 0.00000000 -3.46410162
v -2.00000000 5.00000000 -3.46410162
v -8.80000000 5.00000000 0.00000000
v -8.80000000 27.00000000 0.00000000
v 6.00000000 0.00000000 0.00000000
v 6.00000000 5.00000000 0.00000000
v 14.00000000 0.00000000 0.00000000
v 14.00000000 5.00000000 0.00000000
v 14.00000000 -0.00000000 1.00000000
v 14.00000000 4.00000000 1.00000000
v 14.00000000 -0.00000000 7.00000000
v 14.00000000 4.00000000 7.00000000
v -12.00000000 -0.00000000 3.46410162
v -12.00000000 5.00000000 3.46410162
v -12.00000000 0.00000000 -3.46410162
v -12.00000000 5.00000000 -3.46410162
v -4.00000000 0.00000000 0.00000000
v -4.00000000 5.00000000 0.00000000
v 4.00000000 0.00000000 0.00000000
v 4.00000000 5.00000000 0.00000000
v 12.00000000 -0.00000000 3.46410162
v 12.00000000 5.00000000 3.46410162
v 12.00000000 0.00000000 -3.46410162
v 12.00000000 5.00000000 -3.46410162
v -14.00000000 0.00000000 0.00000000
v -14.00000000 5.00000000 0.00000000
v -14.00000000 -0.00000000 1.00000000
v -14.00000000 4.00000000 1.00000000
v -14.00000000 -0.00000000 7.00000000
v -14.00000000 4.00000000 7.00000000
v -6.00000000 0.00000000 0.00000000
v -6.00000000 5.00000000 0.00000000
v 8.80000000 5.00000000 0.00000000
v 8.80000000 27.00000000 0.00000000
v 2.00000000 -0.00000000 3.46410162
v 2.00000000 5.00000000 3.46410162
v 2.00000000 0.00000000 -3.46410162
v 2.00000000 5.00000000 -3.46410162
v 10.00000000 0.00000000 0.00000000
v 10.00000000 5.00000000 0.00000000
v 10.00000000 5.00000000 -1.20000000
v 10.00000000 27.00000000 -1.20000000
v 10.00000000 -0.00000000 4.00000000
v 10.00000000 5.00000000 4.00000000
v 10.00000000 0.00000000 -4.00000000
v 10.00000000 5.00000000 -4.00000000
v 10.00000000 5.00000000 1.20000000
v 10.00000000 27.00000000 1.20000000
v 11.20000000 5.00000000 0.00000000
v 11.20000000 27.00000000 0.00000000
v -1.20000000 5.00000000 0.00000000
v -1.20000000 27.00000000 0.00000000
v -8.00000000 -0.00000000 3.46410162
v -8.00000000 5.00000000 3.46410162
v -8.00000000 0.00000000 -3.46410162
v -8.00000000 5.00000000 -3.46410162
v 9.65165839 5.00000000 1.14832840
v 9.65165839 27.00000000 1.14832840
v 9.65165839 5.00000000 -1.14832840
v 9.65165839 27.00000000 -1.14832840
v -0.34834161 5.00000000 1.14832840
v -0.34834161 27.00000000 1.14832840
v -0.34834161 5.00000000 -1.14832840
v -0.34834161 27.00000000 -1.14832840
v -10.34834161 5.00000000 1.14832840
v -10.34834161 27.00000000 1.14832840
v -10.34834161 5.00000000 -1.14832840
v -10.34834161 27.00000000 -1.14832840
v -8.82305766 5.00000000 0.23410839
v -8.82305766 27.00000000 0.23410839
v -8.82305766 5.00000000 -0.23410839
v -8.82305766 27.00000000 -0.23410839
v 11.17694234 5.00000000 0.23410839
v 11.17694234 27.00000000 0.23410839
v 11.17694234 5.00000000 -0.23410839
v 11.17694234 27.00000000 -0.23410839
v 1.17694234 5.00000000 0.23410839
v 1.17694234 27.00000000 0.23410839
v 1.17694234 5.00000000 -0.23410839
v 1.17694234 27.00000000 -0.23410839
v 13.86370331 -0.00000000 1.03527618
v 13.86370331 5.00000000 1.03527618
v 13.86370331 0.00000000 -1.03527618
v 13.86370331 5.00000000 -1.03527618
v 3.86370331 -0.00000000 1.03527618
v 3.86370331 5.00000000 1.03527618
v 3.86370331 0.00000000 -1.03527618
v 3.86370331 5.00000000 -1.03527618
v -6.13629669 -0.00000000 1.03527618
v -6.13629669 5.00000000 1.03527618
v -6.13629669 0.00000000 -1.03527618
v -6.13629669 5.00000000 -1.03527618
v 8.46926627 -0.00000000 3.69551813
v 8.46926627 5.00000000 3.69551813
v 8.46926627 0.00000000 -3.69551813
v 8.46926627 5.00000000 -3.69551813
v -1.53073373 -0.00000000 3.69551813
v -1.53073373 5.00000000 3.69551813
v -1.53073373 0.00000000 -3.69551813
v -1.53073373 5.00000000 -3.69551813
v -11.53073373 -0.00000000 3.69551813
v -11.53073373 5.00000000 3.69551813
v -11.53073373 0.00000000 -3.69551813
v -11.53073373 5.00000000 -3.69551813
v 9.54077988 5.00000000 1.10865544
v 9.54077988 27.00000000 1.10865544
v 9.54077988 5.00000000 -1.10865544
v 9.54077988 27.00000000 -1.10865544
v -0.45922012 5.00000000 1.10865544
v -0.45922012 27.00000000 1.10865544
v -0.45922012 5.00000000 -1.10865544
v -0.45922012 27.00000000 -1.10865544
v -10.45922012 5.00000000 1.10865544
v -10.45922012 27.00000000 1.10865544
v -10.45922012 5.00000000 -1.10865544
v -10.45922012 27.00000000 -1.10865544
v 9.23872806 5.00000000 0.92761254
v 9.23872806 27.00000000 0.92761254
v 9.23872806 5.00000000 -0.92761254
v 9.23872806 27.00000000 -0.92761254
v -0.76127194 5.00000000 0.92761254
v -0.76127194 27.00000000 0.92761254
v -0.76127194 5.00000000 -0.92761254
v -0.76127194 27.00000000 -0.92761254
v 16.91314214 0.00000000 -7.19003001
v 16.91314214 16.00000000 -7.19003001
v 16.91314214 0.00000000 -4.80996999
v 16.91314214 16.00000000 -4.80996999
v -10.76127194 5.00000000 0.92761254
v -10.76127194 27.00000000 0.92761254
v -10.76127194 5.00000000 -0.92761254
v -10.76127194 27.00000000 -0.92761254
v 8.80577833 5.00000000 0.11762057
v 8.80577833 27.00000000 0.11762057
v 8.80577833 5.00000000 -0.11762057
v 8.80577833 27.00000000 -0.11762057
v -1.19422167 5.00000000 0.11762057
v -1.19422167 27.00000000 0.11762057
v -1.19422167 5.00000000 -0.11762057
v -1.19422167 27.00000000 -0.11762057
v -11.19422167 5.00000000 0.11762057
v -11.19422167 27.00000000 0.11762057
v -11.19422167 5.00000000 -0.11762057
v -11.19422167 27.00000000 -0.11762057
v 17.44888874 0.00000000 -5.61177143
v 17.44888874 16.00000000 -5.61177143
v 17.44888874 0.00000000 -6.38822857
v 17.44888874 16.00000000 -6.38822857
v 10.52210477 -0.00000000 3.96577945
v 10.52210477 5.00000000 3.96577945
v 10.52210477 0.00000000 -3.96577945
v 10.52210477 5.00000000 -3.96577945
v 0.52210477 -0.00000000 3.96577945
v 0.52210477 5.00000000 3.96577945
v 0.52210477 0.00000000 -3.96577945
v 0.52210477 5.00000000 -3.96577945
v -9.47789523 -0.00000000 3.96577945
v -9.47789523 5.00000000 3.96577945
v -9.47789523 0.00000000 -3.96577945
v -9.47789523 5.00000000 -3.96577945
v 16.19578929 0.00000000 -4.51283271
v 16.19578929 16.00000000 -4.51283271
v 16.19578929 0.00000000 -7.48716729
v 16.19578929 16.00000000 -7.48716729
v 15.61177143 0.00000000 -7.44888874
v 15.61177143 16.00000000 -7.44888874
v 15.61177143 0.00000000 -4.55111126
v 15.61177143 16.00000000 -4.55111126
v -11.14832840 5.00000000 0.34834161
v -11.14832840 27.00000000 0.34834161
v -11.14832840 5.00000000 -0.34834161
v -11.14832840 27.00000000 -0.34834161
v 0.56567608 5.00000000 1.05830552
v 0.56567608 27.00000000 1.05830552
v 0.56567608 5.00000000 -1.05830552
v 0.56567608 27.00000000 -1.05830552
v -9.43432392 5.00000000 1.05830552
v -9.43432392 27.00000000 1.05830552
v -9.43432392 5.00000000 -1.05830552
v -9.43432392 27.00000000 -1.05830552
v 8.85167160 5.00000000 0.34834161
v 8.85167160 27.00000000 0.34834161
v 8.85167160 5.00000000 -0.34834161
v 8.85167160 27.00000000 -0.34834161
v -1.14832840 5.00000000 0.34834161
v -1.14832840 27.00000000 0.34834161
v -1.14832840 5.00000000 -0.34834161
v -1.14832840 27.00000000 -0.34834161
v 10.56567608 5.00000000 1.05830552
v 10.56567608 27.00000000 1.05830552
v 10.56567608 5.00000000 -1.05830552
v 10.56567608 27.00000000 -1.05830552
v -3.69551813 -0.00000000 1.53073373
v -3.69551813 5.00000000 1.53073373
v -3.69551813 0.00000000 -1.53073373
v -3.69551813 5.00000000 -1.53073373
v -13.69551813 -0.00000000 1.53073373
v -13.69551813 5.00000000 1.53073373
v -13.69551813 0.00000000 -1.53073373
v -13.69551813 5.00000000 -1.53073373
v 6.30448187 -0.00000000 1.53073373
v 6.30448187 5.00000000 1.53073373
v 6.30448187 0.00000000 -1.53073373
v 6.30448187 5.00000000 -1.53073373
v 14.70096189 0.00000000 -5.25000000
v 14.70096189 16.00000000 -5.25000000
v 14.70096189 0.00000000 -6.75000000
v 14.70096189 16.00000000 -6.75000000
v 8.96472382 0.00000000 -3.86370331
v 8.96472382 5.00000000 -3.86370331
v 8.96472382 -0.00000000 3.86370331
v 8.96472382 5.00000000 3.86370331
v -1.03527618 0.00000000 -3.86370331
v -1.03527618 5.00000000 -3.86370331
v -1.03527618 -0.00000000 3.86370331
v -1.03527618 5.00000000 3.86370331
v -11.03527618 0.00000000 -3.86370331
v -11.03527618 5.00000000 -3.86370331
v -11.03527618 -0.00000000 3.86370331
v -11.03527618 5.00000000 3.86370331
v 15.25000000 0.00000000 -4.70096189
v 15.25000000 16.00000000 -4.70096189
v 15.25000000 0.00000000 -7.29903811
v 15.25000000 16.00000000 -7.29903811
v 7.56495428 -0.00000000 3.17341336
v 7.56495428 5.00000000 3.17341336
v 7.56495428 0.00000000 -3.17341336
v 7.56495428 5.00000000 -3.17341336
v -2.43504572 -0.00000000 3.17341336
v -2.43504572 5.00000000 3.17341336
v -2.43504572 0.00000000 -3.17341336
v -2.43504572 5.00000000 -3.17341336
v -12.43504572 -0.00000000 3.17341336
v -12.43504572 5.00000000 3.17341336
v -12.43504572 0.00000000 -3.17341336
v -12.43504572 5.00000000 -3.17341336
v 14.51283271 0.00000000 -6.19578929
v 14.51283271 16.00000000 -6.19578929
v 14.51283271 0.00000000 -5.80421071
v 14.51283271 16.00000000 -5.80421071
v -3.46410162 -0.00000000 2.00000000
v -3.46410162 5.00000000 2.00000000
v -3.46410162 0.00000000 -2.00000000
v -3.46410162 5.00000000 -2.00000000
v -13.46410162 -0.00000000 2.00000000
v -13.46410162 5.00000000 2.00000000
v -13.46410162 0.00000000 -2.00000000
v -13.46410162 5.00000000 -2.00000000
v 10.84852814 5.00000000 -0.84852814
v 10.84852814 27.00000000 -0.84852814
v 10.84852814 5.00000000 0.84852814
v 10.84852814 27.00000000 0.84852814
v 0.84852814 5.00000000 -0.84852814
v 0.84852814 27.00000000 -0.84852814
v 0.84852814 5.00000000 0.84852814
v 0.84852814 27.00000000 0.84852814
v -9.15147186 5.00000000 -0.84852814
v -9.15147186 27.00000000 -0.84852814
v -9.15147186 5.00000000 0.84852814
v -9.15147186 27.00000000 0.84852814
v 6.53589838 -0.00000000 2.00000000
v 6.53589838 5.00000000 2.00000000
v 6.53589838 0.00000000 -2.00000000
v 6.53589838 5.00000000 -2.00000000
v 14.61418070 0.00000000 -5.42597485
v 14.61418070 16.00000000 -5.42597485
v 14.61418070 0.00000000 -6.57402515
v 14.61418070 16.00000000 -6.57402515
v -7.17157288 0.00000000 -2.82842712
v -7.17157288 5.00000000 -2.82842712
v -7.17157288 -0.00000000 2.82842712
v -7.17157288 5.00000000 2.82842712
v 12.82842712 0.00000000 -2.82842712
v 12.82842712 5.00000000 -2.82842712
v 12.82842712 -0.00000000 2.82842712
v 12.82842712 5.00000000 2.82842712
v 2.82842712 0.00000000 -2.82842712
v 2.82842712 5.00000000 -2.82842712
v 2.82842712 -0.00000000 2.82842712
v 2.82842712 5.00000000 2.82842712
v 9.07238746 5.00000000 0.76127194
v 9.07238746 27.00000000 0.76127194
v 9.07238746 5.00000000 -0.76127194
v 9.07238746 27.00000000 -0.76127194
v -0.92761254 5.00000000 0.76127194
v -0.92761254 27.00000000 0.76127194
v -0.92761254 5.00000000 -0.76127194
v -0.92761254 27.00000000 -0.76127194
v -10.92761254 5.00000000 0.76127194
v -10.92761254 27.00000000 0.76127194
v -10.92761254 5.00000000 -0.76127194
v -10.92761254 27.00000000 -0.76127194
v 10.99776353 5.00000000 0.66668428
v 10.99776353 27.00000000 0.66668428
v 10.99776353 5.00000000 -0.66668428
v 10.99776353 27.00000000 -0.66668428
v 0.99776353 5.00000000 0.66668428
v 0.99776353 27.00000000 0.66668428
v 0.99776353 5.00000000 -0.66668428
v 0.99776353 27.00000000 -0.66668428
v 17.06066017 0.00000000 -7.06066017
v 17.06066017 16.00000000 -7.06066017
v 17.06066017 0.00000000 -4.93933983
v 17.06066017 16.00000000 -4.93933983
v -9.00223647 5.00000000 0.66668428
v -9.00223647 27.00000000 0.66668428
v -9.00223647 5.00000000 -0.66668428
v -9.00223647 27.00000000 -0.66668428
v 6.03422055 0.00000000 -0.52210477
v 6.03422055 5.00000000 -0.52210477
v 6.03422055 -0.00000000 0.52210477
v 6.03422055 5.00000000 0.52210477
v -3.96577945 0.00000000 -0.52210477
v -3.96577945 5.00000000 -0.52210477
v -3.96577945 -0.00000000 0.52210477
v -3.96577945 5.00000000 0.52210477
v -13.96577945 0.00000000 -0.52210477
v -13.96577945 5.00000000 -0.52210477
v -13.96577945 -0.00000000 0.52210477
v -13.96577945 5.00000000 0.52210477
v -1.05830552 5.00000000 -0.56567608
v -1.05830552 27.00000000 -0.56567608
v -1.05830552 5.00000000 0.56567608
v -1.05830552 27.00000000 0.56567608
v -11.05830552 5.00000000 -0.56567608
v -11.05830552 27.00000000 -0.56567608
v -11.05830552 5.00000000 0.56567608
v -11.05830552 27.00000000 0.56567608
v 6.82658664 -0.00000000 2.43504572
v 6.82658664 5.00000000 2.43504572
v 6.82658664 0.00000000 -2.43504572
v 6.82658664 5.00000000 -2.43504572
v -3.17341336 -0.00000000 2.43504572
v -3.17341336 5.00000000 2.43504572
v -3.17341336 0.00000000 -2.43504572
v -3.17341336 5.00000000 -2.43504572
v 8.94169448 5.00000000 -0.56567608
v 8.94169448 27.00000000 -0.56567608
v 8.94169448 5.00000000 0.56567608
v 8.94169448 27.00000000 0.56567608
v -13.17341336 -0.00000000 2.43504572
v -13.17341336 5.00000000 2.43504572
v -13.17341336 0.00000000 -2.43504572
v -13.17341336 5.00000000 -2.43504572
v 9.76589161 5.00000000 -1.17694234
v 9.76589161 27.00000000 -1.17694234
v 9.76589161 5.00000000 1.17694234
v 9.76589161 27.00000000 1.17694234
v -0.23410839 5.00000000 -1.17694234
v -0.23410839 27.00000000 -1.17694234
v -0.23410839 5.00000000 1.17694234
v -0.23410839 27.00000000 1.17694234
v -10.23410839 5.00000000 -1.17694234
v -10.23410839 27.00000000 -1.17694234
v -10.23410839 5.00000000 1.17694234
v -10.23410839 27.00000000 1.17694234
v 15.42597485 0.00000000 -4.61418070
v 15.42597485 16.00000000 -4.61418070
v 15.42597485 0.00000000 -7.38581930
v 15.42597485 16.00000000 -7.38581930
v 9.33331572 5.00000000 -0.99776353
v 9.33331572 27.00000000 -0.99776353
v 9.33331572 5.00000000 0.99776353
v 9.33331572 27.00000000 0.99776353
v -0.66668428 5.00000000 -0.99776353
v -0.66668428 27.00000000 -0.99776353
v -0.66668428 5.00000000 0.99776353
v -0.66668428 27.00000000 0.99776353
v -10.66668428 5.00000000 -0.99776353
v -10.66668428 27.00000000 -0.99776353
v -10.66668428 5.00000000 0.99776353
v -10.66668428 27.00000000 0.99776353
v 9.88237943 5.00000000 1.19422167
v 9.88237943 27.00000000 1.19422167
v 9.88237943 5.00000000 -1.19422167
v 9.88237943 27.00000000 -1.19422167
v -0.11762057 5.00000000 1.19422167
v -0.11762057 27.00000000 1.19422167
v -0.11762057 5.00000000 -1.19422167
v -0.11762057 27.00000000 -1.19422167
v -10.11762057 5.00000000 1.19422167
v -10.11762057 27.00000000 1.19422167
v -10.11762057 5.00000000 -1.19422167
v -10.11762057 27.00000000 -1.19422167
v 8.89134456 5.00000000 0.45922012
v 8.89134456 27.00000000 0.45922012
v 8.89134456 5.00000000 -0.45922012
v 8.89134456 27.00000000 -0.45922012
v -1.10865544 5.00000000 0.45922012
v -1.10865544 27.00000000 0.45922012
v -1.10865544 5.00000000 -0.45922012
v -1.10865544 27.00000000 -0.45922012
v -11.10865544 5.00000000 0.45922012
v -11.10865544 27.00000000 0.45922012
v -11.10865544 5.00000000 -0.45922012
v -11.10865544 27.00000000 -0.45922012
v 17.19003001 0.00000000 -6.91314214
v 17.19003001 16.00000000 -6.91314214
v 17.19003001 0.00000000 -5.08685786
v 17.19003001 16.00000000 -5.08685786
v 14.50000000 0.00000000 -6.00000000
v 14.50000000 16.00000000 -6.00000000
v 17.50000000 0.00000000 -6.00000000
v 17.50000000 16.00000000 -6.00000000
v 14.80996999 0.00000000 -6.91314214
v 14.80996999 16.00000000 -6.91314214
v 14.80996999 0.00000000 -5.08685786
v 14.80996999 16.00000000 -5.08685786
v 11.10865544 5.00000000 0.45922012
v 11.10865544 27.00000000 0.45922012
v 11.10865544 5.00000000 -0.45922012
v 11.10865544 27.00000000 -0.45922012
v 1.10865544 5.00000000 0.45922012
v 1.10865544 27.00000000 0.45922012
v 1.10865544 5.00000000 -0.45922012
v 1.10865544 27.00000000 -0.45922012
v -8.89134456 5.00000000 0.45922012
v -8.89134456 27.00000000 0.45922012
v -8.89134456 5.00000000 -0.45922012
v -8.89134456 27.00000000 -0.45922012
v 10.11762057 5.00000000 1.19422167
v 10.11762057 27.00000000 1.19422167
v 10.11762057 5.00000000 -1.19422167
v 10.11762057 27.00000000 -1.19422167
v 0.11762057 5.00000000 1.19422167
v 0.11762057 27.00000000 1.19422167
v 0.11762057 5.00000000 -1.19422167
v 0.11762057 27.00000000 -1.19422167
v -9.88237943 5.00000000 1.19422167
v -9.88237943 27.00000000 1.19422167
v -9.88237943 5.00000000 -1.19422167
v -9.88237943 27.00000000 -1.19422167
v 10.66668428 5.00000000 -0.99776353
v 10.66668428 27.00000000 -0.99776353
v 10.66668428 5.00000000 0.99776353
v 10.66668428 27.00000000 0.99776353
v 0.66668428 5.00000000 -0.99776353
v 0.66668428 27.00000000 -0.99776353
v 0.66668428 5.00000000 0.99776353
v 0.66668428 27.00000000 0.99776353
v -9.33331572 5.00000000 -0.99776353
v -9.33331572 27.00000000 -0.99776353
v -9.33331572 5.00000000 0.99776353
v -9.33331572 27.00000000 0.99776353
v 16.57402515 0.00000000 -4.61418070
v 16.57402515 16.00000000 -4.61418070
v 16.57402515 0.00000000 -7.38581930
v 16.57402515 16.00000000 -7.38581930
v 10.23410839 5.00000000 -1.17694234
v 10.23410839 27.00000000 -1.17694234
v 10.23410839 5.00000000 1.17694234
v 10.23410839 27.00000000 1.17694234
v 0.23410839 5.00000000 -1.17694234
v 0.23410839 27.00000000 -1.17694234
v 0.23410839 5.00000000 1.17694234
v 0.23410839 27.00000000 1.17694234
v -9.76589161 5.00000000 -1.17694234
v -9.76589161 27.00000000 -1.17694234
v -9.76589161 5.00000000 1.17694234
v -9.76589161 27.00000000 1.17694234
v 13.17341336 -0.00000000 2.43504572
v 13.17341336 5.00000000 2.43504572
v 13.17341336 0.00000000 -2.43504572
v 13.17341336 5.00000000 -2.43504572
v -8.94169448 5.00000000 -0.56567608
v -8.94169448 27.00000000 -0.56567608
v -8.94169448 5.00000000 0.56567608
v -8.94169448 27.00000000 0.56567608
v 3.17341336 -0.00000000 2.43504572
v 3.17341336 5.00000000 2.43504572
v 3.17341336 0.00000000 -2.43504572
v 3.17341336 5.00000000 -2.43504572
v -6.82658664 -0.00000000 2.43504572
v -6.82658664 5.00000000 2.43504572
v -6.82658664 0.00000000 -2.43504572
v -6.82658664 5.00000000 -2.43504572
v 11.05830552 5.00000000 -0.56567608
v 11.05830552 27.00000000 -0.56567608
v 11.05830552 5.00000000 0.56567608
v 11.05830552 27.00000000 0.56567608
v 1.05830552 5.00000000 -0.56567608
v 1.05830552 27.00000000 -0.56567608
v 1.05830552 5.00000000 0.56567608
v 1.05830552 27.00000000 0.56567608
v 13.96577945 0.00000000 -0.52210477
v 13.96577945 5.00000000 -0.52210477
v 13.96577945 -0.00000000 0.52210477
v 13.96577945 5.00000000 0.52210477
v 3.96577945 0.00000000 -0.52210477
v 3.96577945 5.00000000 -0.52210477
v 3.96577945 -0.00000000 0.52210477
v 3.96577945 5.00000000 0.52210477
v -6.03422055 0.00000000 -0.52210477
v -6.03422055 5.00000000 -0.52210477
v -6.03422055 -0.00000000 0.52210477
v -6.03422055 5.00000000 0.52210477
v 9.00223647 5.00000000 0.66668428
v 9.00223647 27.00000000 0.66668428
v 9.00223647 5.00000000 -0.66668428
v 9.00223647 27.00000000 -0.66668428
v -0.99776353 5.00000000 0.66668428
v -0.99776353 27.00000000 0.66668428
v -0.99776353 5.00000000 -0.66668428
v -0.99776353 27.00000000 -0.66668428
v 14.93933983 0.00000000 -7.06066017
v 14.93933983 16.00000000 -7.06066017
v 14.93933983 0.00000000 -4.93933983
v 14.93933983 16.00000000 -4.93933983
v -10.99776353 5.00000000 0.66668428
v -10.99776353 27.00000000 0.66668428
v -10.99776353 5.00000000 -0.66668428
v -10.99776353 27.00000000 -0.66668428
v 10.92761254 5.00000000 0.76127194
v 10.92761254 27.00000000 0.76127194
v 10.92761254 5.00000000 -0.76127194
v 10.92761254 27.00000000 -0.76127194
v 0.92761254 5.00000000 0.76127194
v 0.92761254 27.00000000 0.76127194
v 0.92761254 5.00000000 -0.76127194
v 0.92761254 27.00000000 -0.76127194
v -9.07238746 5.00000000 0.76127194
v -9.07238746 27.00000000 0.76127194
v -9.07238746 5.00000000 -0.76127194
v -9.07238746 27.00000000 -0.76127194
v -2.82842712 0.00000000 -2.82842712
v -2.82842712 5.00000000 -2.82842712
v -2.82842712 -0.00000000 2.82842712
v -2.82842712 5.00000000 2.82842712
v -12.82842712 0.00000000 -2.82842712
v -12.82842712 5.00000000 -2.82842712
v -12.82842712 -0.00000000 2.82842712
v -12.82842712 5.00000000 2.82842712
v 7.17157288 0.00000000 -2.82842712
v 7.17157288 5.00000000 -2.82842712
v 7.17157288 -0.00000000 2.82842712
v 7.17157288 5.00000000 2.82842712
v 17.38581930 0.00000000 -5.42597485
v 17.38581930 16.00000000 -5.42597485
v 17.38581930 0.00000000 -6.57402515
v 17.38581930 16.00000000 -6.57402515
v -6.53589838 -0.00000000 2.00000000
v -6.53589838 5.00000000 2.00000000
v -6.53589838 0.00000000 -2.00000000
v -6.53589838 5.00000000 -2.00000000
v 9.15147186 5.00000000 -0.84852814
v 9.15147186 27.00000000 -0.84852814
v 9.15147186 5.00000000 0.84852814
v 9.15147186 27.00000000 0.84852814
v -0.84852814 5.00000000 -0.84852814
v -0.84852814 27.00000000 -0.84852814
v -0.84852814 5.00000000 0.84852814
v -0.84852814 27.00000000 0.84852814
v -10.84852814 5.00000000 -0.84852814
v -10.84852814 27.00000000 -0.84852814
v -10.84852814 5.00000000 0.84852814
v -10.84852814 27.00000000 0.84852814
v 13.46410162 -0.00000000 2.00000000
v 13.46410162 5.00000000 2.00000000
v 13.46410162 0.00000000 -2.00000000
v 13.46410162 5.00000000 -2.00000000
v 3.46410162 -0.00000000 2.00000000
v 3.46410162 5.00000000 2.00000000
v 3.46410162 0.00000000 -2.00000000
v 3.46410162 5.00000000 -2.00000000
v 17.48716729 0.00000000 -6.19578929
v 17.48716729 16.00000000 -6.19578929
v 17.48716729 0.00000000 -5.80421071
v 17.48716729 16.00000000 -5.80421071
v 12.43504572 -0.00000000 3.17341336
v 12.43504572 5.00000000 3.17341336
v 12.43504572 0.00000000 -3.17341336
v 12.43504572 5.00000000 -3.17341336
v 2.43504572 -0.00000000 3.17341336
v 2.43504572 5.00000000 3.17341336
v 2.43504572 0.00000000 -3.17341336
v 2.43504572 5.00000000 -3.17341336
v -7.56495428 -0.00000000 3.17341336
v -7.56495428 5.00000000 3.17341336
v -7.56495428 0.00000000 -3.17341336
v -7.56495428 5.00000000 -3.17341336
v 16.75000000 0.00000000 -4.70096189
v 16.75000000 16.00000000 -4.70096189
v 16.75000000 0.00000000 -7.29903811
v 16.75000000 16.00000000 -7.29903811
v 11.03527618 0.00000000 -3.86370331
v 11.03527618 5.00000000 -3.86370331
v 11.03527618 -0.00000000 3.86370331
v 11.03527618 5.00000000 3.86370331
v 1.03527618 0.00000000 -3.86370331
v 1.03527618 5.00000000 -3.86370331
v 1.03527618 -0.00000000 3.86370331
v 1.03527618 5.00000000 3.86370331
v -8.96472382 0.00000000 -3.86370331
v -8.96472382 5.00000000 -3.86370331
v -8.96472382 -0.00000000 3.86370331
v -8.96472382 5.00000000 3.86370331
v 17.29903811 0.00000000 -5.25000000
v 17.29903811 16.00000000 -5.25000000
v 17.29903811 0.00000000 -6.75000000
v 17.29903811 16.00000000 -6.75000000
v -6.30448187 -0.00000000 1.53073373
v -6.30448187 5.00000000 1.53073373
v -6.30448187 0.00000000 -1.53073373
v -6.30448187 5.00000000 -1.53073373
v 13.69551813 -0.00000000 1.53073373
v 13.69551813 5.00000000 1.53073373
v 13.69551813 0.00000000 -1.53073373
v 13.69551813 5.00000000 -1.53073373
v 3.69551813 -0.00000000 1.53073373
v 3.69551813 5.00000000 1.53073373
v 3.69551813 0.00000000 -1.53073373
v 3.69551813 5.00000000 -1.53073373
v -10.56567608 5.00000000 1.05830552
v -10.56567608 27.00000000 1.05830552
v -10.56567608 5.00000000 -1.05830552
v -10.56567608 27.00000000 -1.05830552
v 1.14832840 5.00000000 0.34834161
v 1.14832840 27.00000000 0.34834161
v 1.14832840 5.00000000 -0.34834161
v 1.14832840 27.00000000 -0.34834161
v -8.85167160 5.00000000 0.34834161
v -8.85167160 27.00000000 0.34834161
v -8.85167160 5.00000000 -0.34834161
v -8.85167160 27.00000000 -0.34834161
v 9.43432392 5.00000000 1.05830552
v 9.43432392 27.00000000 1.05830552
v 9.43432392 5.00000000 -1.05830552
v 9.43432392 27.00000000 -1.05830552
v -0.56567608 5.00000000 1.05830552
v -0.56567608 27.00000000 1.05830552
v -0.56567608 5.00000000 -1.05830552
v -0.56567608 27.00000000 -1.05830552
v 11.14832840 5.00000000 0.34834161
v 11.14832840 27.00000000 0.34834161
v 11.14832840 5.00000000 -0.34834161
v 11.14832840 27.00000000 -0.34834161
v 16.38822857 0.00000000 -7.44888874
v 16.38822857 16.00000000 -7.44888874
v 16.38822857 0.00000000 -4.55111126
v 16.38822857 16.00000000 -4.55111126
v 15.80421071 0.00000000 -4.51283271
v 15.80421071 16.00000000 -4.51283271
v 15.80421071 0.00000000 -7.48716729
v 15.80421071 16.00000000 -7.48716729
v 9.47789523 -0.00000000 3.96577945
v 9.47789523 5.00000000 3.96577945
v 9.47789523 0.00000000 -3.96577945
v 9.47789523 5.00000000 -3.96577945
v -0.52210477 -0.00000000 3.96577945
v -0.52210477 5.00000000 3.96577945
v -0.52210477 0.00000000 -3.96577945
v -0.52210477 5.00000000 -3.96577945
v -10.52210477 -0.00000000 3.96577945
v -10.52210477 5.00000000 3.96577945
v -10.52210477 0.00000000 -3.96577945
v -10.52210477 5.00000000 -3.96577945
v 14.55111126 0.00000000 -5.61177143
v 14.55111126 16.00000000 -5.61177143
v 14.55111126 0.00000000 -6.38822857
v 14.55111126 16.00000000 -6.38822857
v 11.19422167 5.00000000 0.11762057
v 11.19422167 27.00000000 0.11762057
v 11.19422167 5.00000000 -0.11762057
v 11.19422167 27.00000000 -0.11762057
v 1.19422167 5.00000000 0.11762057
v 1.19422167 27.00000000 0.11762057
v 1.19422167 5.00000000 -0.11762057
v 1.19422167 27.00000000 -0.11762057
v -8.80577833 5.00000000 0.11762057
v -8.80577833 27.00000000 0.11762057
v -8.80577833 5.00000000 -0.11762057
v -8.80577833 27.00000000 -0.11762057
v 10.76127194 5.00000000 0.92761254
v 10.76127194 27.00000000 0.92761254
v 10.76127194 5.00000000 -0.92761254
v 10.76127194 27.00000000 -0.92761254
v 0.76127194 5.00000000 0.92761254
v 0.76127194 27.00000000 0.92761254
v 0.76127194 5.00000000 -0.92761254
v 0.76127194 27.00000000 -0.92761254
v 15.08685786 0.00000000 -7.19003001
v 15.08685786 16.00000000 -7.19003001
v 15.08685786 0.00000000 -4.80996999
v 15.08685786 16.00000000 -4.80996999
v -9.23872806 5.00000000 0.92761254
v -9.23872806 27.00000000 0.92761254
v -9.23872806 5.00000000 -0.92761254
v -9.23872806 27.00000000 -0.92761254
v 10.45922012 5.00000000 1.10865544
v 10.45922012 27.00000000 1.10865544
v 10.45922012 5.00000000 -1.10865544
v 10.45922012 27.00000000 -1.10865544
v 0.45922012 5.00000000 1.10865544
v 0.45922012 27.00000000 1.10865544
v 0.45922012 5.00000000 -1.10865544
v 0.45922012 27.00000000 -1.10865544
v -9.54077988 5.00000000 1.10865544
v -9.54077988 27.00000000 1.10865544
v -9.54077988 5.00000000 -1.10865544
v -9.54077988 27.00000000 -1.10865544
v 11.53073373 -0.00000000 3.69551813
v 11.53073373 5.00000000 3.69551813
v 11.53073373 0.00000000 -3.69551813
v 11.53073373 5.00000000 -3.69551813
v 1.53073373 -0.00000000 3.69551813
v 1.53073373 5.00000000 3.69551813
v 1.53073373 0.00000000 -3.69551813
v 1.53073373 5.00000000 -3.69551813
v -8.46926627 -0.00000000 3.69551813
v -8.46926627 5.00000000 3.69551813
v -8.46926627 0.00000000 -3.69551813
v -8.46926627 5.00000000 -3.69551813
v 6.13629669 -0.00000000 1.03527618
v 6.13629669 5.00000000 1.03527618
v 6.13629669 0.00000000 -1.03527618
v 6.13629669 5.00000000 -1.03527618
v -3.86370331 -0.00000000 1.03527618
v -3.86370331 5.00000000 1.03527618
v -3.86370331 0.00000000 -1.03527618
v -3.86370331 5.00000000 -1.03527618
v -13.86370331 -0.00000000 1.03527618
v -13.86370331 5.00000000 1.03527618
v -13.86370331 0.00000000 -1.03527618
v -13.86370331 5.00000000 -1.03527618
v -1.17694234 5.00000000 0.23410839
v -1.17694234 27.00000000 0.23410839
v -1.17694234 5.00000000 -0.23410839
v -1.17694234 27.00000000 -0.23410839
v -11.17694234 5.00000000 0.23410839
v -11.17694234 27.00000000 0.23410839
v -11.17694234 5.00000000 -0.23410839
v -11.17694234 27.00000000 -0.23410839
v 8.82305766 5.00000000 0.23410839
v 8.82305766 27.00000000 0.23410839
v 8.82305766 5.00000000 -0.23410839
v 8.82305766 27.00000000 -0.23410839
v 10.34834161 5.00000000 1.14832840
v 10.34834161 27.00000000 1.14832840
v 10.34834161 5.00000000 -1.14832840
v 10.34834161 27.00000000 -1.14832840
v 0.34834161 5.00000000 1.14832840
v 0.34834161 27.00000000 1.14832840
v 0.34834161 5.00000000 -1.14832840
v 0.34834161 27.00000000 -1.14832840
v -9.65165839 5.00000000 1.14832840
v -9.65165839 27.00000000 1.14832840
v -9.65165839 5.00000000 -1.14832840
v -9.65165839 27.00000000 -1.14832840
vt 0.00000000 1.00000000
vt 0.00000000 0.00000000
vt 0.31250000 1.00000000
vt 0.31250000 0.00000000
vt 0.18750000 1.00000000
vt 0.18750000 0.00000000
vt 0.06250000 1.00000000
vt 0.06250000 0.00000000
vt 0.43750000 1.00000000
vt 0.43750000 0.00000000
vt 0.23374082 1.00000000
vt 0.23374082 0.00000000
vt 0.01625918 1.00000000
vt 0.01625918 0.00000000
vt 0.25000000 1.00000000
vt 0.25000000 0.00000000
vt 0.26744086 1.00000000
vt 0.26744086 0.00000000
vt 0.26090878 1.00000000
vt 0.26090878 0.00000000
vt 0.37500000 1.00000000
vt 0.37500000 0.00000000
vt 0.12500000 1.00000000
vt 0.12500000 0.00000000
vt 0.37024807 1.00000000
vt 0.37024807 0.00000000
vt 0.14013987 1.00000000
vt 0.14013987 0.00000000
vt 0.10986013 1.00000000
vt 0.10986013 0.00000000
vt 0.37975193 1.00000000
vt 0.37975193 0.00000000
vt 0.16666667 1.00000000
vt 0.16666667 0.00000000
vt 0.08333333 1.00000000
vt 0.08333333 0.00000000
vt 0.37500000 1.00000000
vt 0.37500000 0.00000000
vt 0.00000000 1.00000000
vt 0.00000000 0.00000000
vt 0.00000000 1.00000000
vt 0.00000000 0.00000000
vt 0.25000000 1.00000000
vt 0.25000000 0.00000000
vt 0.25000000 1.00000000
vt 0.25000000 0.00000000
vt 0.13618202 1.00000000
vt 0.13618202 0.00000000
vt 0.11381798 1.00000000
vt 0.11381798 0.00000000
vt 0.12500000 1.00000000
vt 0.12500000 0.00000000
vt 0.00000000 1.00000000
vt 0.00000000 0.00000000
vt 0.23881798 1.00000000
vt 0.23881798 0.00000000
vt 0.01118202 1.00000000
vt 0.01118202 0.00000000
vt 0.12500000 1.00000000
vt 0.12500000 0.00000000
vt 0.00000000 1.00000000
vt 0.00000000 0.00000000
vt 0.00000000 1.00000000
vt 0.00000000 0.00000000
vt 0.12500000 1.00000000
vt 0.12500000 0.00000000
vt 0.25000000 1.00000000
vt 0.25000000 0.00000000
vt 0.20833333 1.00000000
vt 0.20833333 0.00000000
vt 0.04166667 1.00000000
vt 0.04166667 0.00000000
vt 0.00000000 1.00000000
vt 0.00000000 0.00000000
vt 0.25475193 1.00000000
vt 0.25475193 0.00000000
vt 0.23486013 1.00000000
vt 0.23486013 0.00000000
vt 0.01513987 1.00000000
vt 0.01513987 0.00000000
vt 0.49524807 1.00000000
vt 0.49524807 0.00000000
vt 0.25000000 1.00000000
vt 0.25000000 0.00000000
vt 0.37500000 1.00000000
vt 0.37500000 0.00000000
vt 0.14125918 1.00000000
vt 0.14125918 0.00000000
vt 0.10874082 1.00000000
vt 0.10874082 0.00000000
vt 0.49528819 1.00000000
vt 0.49528819 0.00000000
vt 0.25471181 1.00000000
vt 0.25471181 0.00000000
vt 0.42578125 1.00000000
vt 0.42578125 0.00000000
vt 0.32421875 1.00000000
vt 0.32421875 0.00000000
vt 0.37939726 1.00000000
vt 0.37939726 0.00000000
vt 0.37060274 1.00000000
vt 0.37060274 0.00000000
vt 0.37605549 1.00000000
vt 0.37605549 0.00000000
vt 0.37394451 1.00000000
vt 0.37394451 0.00000000
vt 0.49916672 1.00000000
vt 0.49916672 0.00000000
vt 0.25083328 1.00000000
vt 0.25083328 0.00000000
vt 0.49218750 1.00000000
vt 0.49218750 0.00000000
vt 0.25781250 1.00000000
vt 0.25781250 0.00000000
vt 0.24703427 1.00000000
vt 0.24703427 0.00000000
vt 0.00296573 1.00000000
vt 0.00296573 0.00000000
vt 0.23958333 1.00000000
vt 0.23958333 0.00000000
vt 0.01041667 1.00000000
vt 0.01041667 0.00000000
vt 0.13165027 1.00000000
vt 0.13165027 0.00000000
vt 0.11834973 1.00000000
vt 0.11834973 0.00000000
vt 0.23362931 1.00000000
vt 0.23362931 0.00000000
vt 0.01637069 1.00000000
vt 0.01637069 0.00000000
vt 0.17187500 1.00000000
vt 0.17187500 0.00000000
vt 0.07812500 1.00000000
vt 0.07812500 0.00000000
vt 0.13734048 1.00000000
vt 0.13734048 0.00000000
vt 0.11265952 1.00000000
vt 0.11265952 0.00000000
vt 0.49539712 1.00000000
vt 0.49539712 0.00000000
vt 0.25460288 1.00000000
vt 0.25460288 0.00000000
vt 0.42187500 1.00000000
vt 0.42187500 0.00000000
vt 0.32812500 1.00000000
vt 0.32812500 0.00000000
vt 0.37920183 1.00000000
vt 0.37920183 0.00000000
vt 0.37079817 1.00000000
vt 0.37079817 0.00000000
vt 0.49601836 1.00000000
vt 0.49601836 0.00000000
vt 0.25398164 1.00000000
vt 0.25398164 0.00000000
vt 0.41015625 1.00000000
vt 0.41015625 0.00000000
vt 0.33984375 1.00000000
vt 0.33984375 0.00000000
vt 0.26599380 1.00000000
vt 0.26599380 0.00000000
vt 0.26102455 1.00000000
vt 0.26102455 0.00000000
vt 0.37842130 1.00000000
vt 0.37842130 0.00000000
vt 0.37157870 1.00000000
vt 0.37157870 0.00000000
vt 0.49946857 1.00000000
vt 0.49946857 0.00000000
vt 0.25053143 1.00000000
vt 0.25053143 0.00000000
vt 0.37890625 1.00000000
vt 0.37890625 0.00000000
vt 0.37109375 1.00000000
vt 0.37109375 0.00000000
vt 0.37541806 1.00000000
vt 0.37541806 0.00000000
vt 0.37458194 1.00000000
vt 0.37458194 0.00000000
vt 0.26238084 1.00000000
vt 0.26238084 0.00000000
vt 0.26396405 1.00000000
vt 0.26396405 0.00000000
vt 0.23565874 1.00000000
vt 0.23565874 0.00000000
vt 0.01434126 1.00000000
vt 0.01434126 0.00000000
vt 0.19270833 1.00000000
vt 0.19270833 0.00000000
vt 0.05729167 1.00000000
vt 0.05729167 0.00000000
vt 0.14076778 1.00000000
vt 0.14076778 0.00000000
vt 0.10923222 1.00000000
vt 0.10923222 0.00000000
vt 0.26081256 1.00000000
vt 0.26081256 0.00000000
vt 0.26722964 1.00000000
vt 0.26722964 0.00000000
vt 0.26771343 1.00000000
vt 0.26771343 0.00000000
vt 0.26128635 1.00000000
vt 0.26128635 0.00000000
vt 0.37624284 1.00000000
vt 0.37624284 0.00000000
vt 0.37375716 1.00000000
vt 0.37375716 0.00000000
vt 0.45703125 1.00000000
vt 0.45703125 0.00000000
vt 0.29296875 1.00000000
vt 0.29296875 0.00000000
vt 0.37944476 1.00000000
vt 0.37944476 0.00000000
vt 0.37055524 1.00000000
vt 0.37055524 0.00000000
vt 0.49843499 1.00000000
vt 0.49843499 0.00000000
vt 0.25156501 1.00000000
vt 0.25156501 0.00000000
vt 0.38671875 1.00000000
vt 0.38671875 0.00000000
vt 0.36328125 1.00000000
vt 0.36328125 0.00000000
vt 0.49602783 1.00000000
vt 0.49602783 0.00000000
vt 0.25397217 1.00000000
vt 0.25397217 0.00000000
vt 0.14062500 1.00000000
vt 0.14062500 0.00000000
vt 0.10937500 1.00000000
vt 0.10937500 0.00000000
vt 0.12942876 1.00000000
vt 0.12942876 0.00000000
vt 0.12057124 1.00000000
vt 0.12057124 0.00000000
vt 0.24052266 1.00000000
vt 0.24052266 0.00000000
vt 0.00947734 1.00000000
vt 0.00947734 0.00000000
vt 0.26364766 1.00000000
vt 0.26364766 0.00000000
vt 0.26712666 1.00000000
vt 0.26712666 0.00000000
vt 0.01619135 1.00000000
vt 0.01619135 0.00000000
vt 0.23380865 1.00000000
vt 0.23380865 0.00000000
vt 0.07291667 1.00000000
vt 0.07291667 0.00000000
vt 0.17708333 1.00000000
vt 0.17708333 0.00000000
vt 0.11159978 1.00000000
vt 0.11159978 0.00000000
vt 0.13840022 1.00000000
vt 0.13840022 0.00000000
vt 0.26189752 1.00000000
vt 0.26189752 0.00000000
vt 0.26776178 1.00000000
vt 0.26776178 0.00000000
vt 0.23419618 1.00000000
vt 0.23419618 0.00000000
vt 0.01580382 1.00000000
vt 0.01580382 0.00000000
vt 0.16145833 1.00000000
vt 0.16145833 0.00000000
vt 0.08854167 1.00000000
vt 0.08854167 0.00000000
vt 0.13494185 1.00000000
vt 0.13494185 0.00000000
vt 0.11505815 1.00000000
vt 0.11505815 0.00000000
vt 0.26605452 1.00000000
vt 0.26605452 0.00000000
vt 0.26513769 1.00000000
vt 0.26513769 0.00000000
vt 0.14583333 1.00000000
vt 0.14583333 0.00000000
vt 0.10416667 1.00000000
vt 0.10416667 0.00000000
vt 0.13086744 1.00000000
vt 0.13086744 0.00000000
vt 0.11913256 1.00000000
vt 0.11913256 0.00000000
vt 0.25310579 1.00000000
vt 0.25310579 0.00000000
vt 0.49689421 1.00000000
vt 0.49689421 0.00000000
vt 0.28125000 1.00000000
vt 0.28125000 0.00000000
vt 0.46875000 1.00000000
vt 0.46875000 0.00000000
vt 0.37132129 1.00000000
vt 0.37132129 0.00000000
vt 0.37867871 1.00000000
vt 0.37867871 0.00000000
vt 0.23818456 1.00000000
vt 0.23818456 0.00000000
vt 0.01181544 1.00000000
vt 0.01181544 0.00000000
vt 0.26414516 1.00000000
vt 0.26414516 0.00000000
vt 0.26681949 1.00000000
vt 0.26681949 0.00000000
vt 0.11005278 1.00000000
vt 0.11005278 0.00000000
vt 0.13994722 1.00000000
vt 0.13994722 0.00000000
vt 0.00863452 1.00000000
vt 0.00863452 0.00000000
vt 0.24136548 1.00000000
vt 0.24136548 0.00000000
vt 0.03125000 1.00000000
vt 0.03125000 0.00000000
vt 0.21875000 1.00000000
vt 0.21875000 0.00000000
vt 0.49666910 1.00000000
vt 0.49666910 0.00000000
vt 0.25333090 1.00000000
vt 0.25333090 0.00000000
vt 0.40234375 1.00000000
vt 0.40234375 0.00000000
vt 0.34765625 1.00000000
vt 0.34765625 0.00000000
vt 0.37776741 1.00000000
vt 0.37776741 0.00000000
vt 0.37223259 1.00000000
vt 0.37223259 0.00000000
vt 0.49759096 1.00000000
vt 0.49759096 0.00000000
vt 0.25240904 1.00000000
vt 0.25240904 0.00000000
vt 0.47656250 1.00000000
vt 0.47656250 0.00000000
vt 0.27343750 1.00000000
vt 0.27343750 0.00000000
vt 0.26561286 1.00000000
vt 0.26561286 0.00000000
vt 0.26121291 1.00000000
vt 0.26121291 0.00000000
vt 0.37794129 1.00000000
vt 0.37794129 0.00000000
vt 0.37205871 1.00000000
vt 0.37205871 0.00000000
vt 0.00343413 1.00000000
vt 0.00343413 0.00000000
vt 0.24656587 1.00000000
vt 0.24656587 0.00000000
vt 0.11979167 1.00000000
vt 0.11979167 0.00000000
vt 0.13020833 1.00000000
vt 0.13020833 0.00000000
vt 0.12351321 1.00000000
vt 0.12351321 0.00000000
vt 0.12648679 1.00000000
vt 0.12648679 0.00000000
vt 0.35546875 1.00000000
vt 0.35546875 0.00000000
vt 0.39453125 1.00000000
vt 0.39453125 0.00000000
vt 0.37296642 1.00000000
vt 0.37296642 0.00000000
vt 0.37703358 1.00000000
vt 0.37703358 0.00000000
vt 0.23636713 1.00000000
vt 0.23636713 0.00000000
vt 0.01363287 1.00000000
vt 0.01363287 0.00000000
vt 0.15104167 1.00000000
vt 0.15104167 0.00000000
vt 0.09895833 1.00000000
vt 0.09895833 0.00000000
vt 0.25251379 1.00000000
vt 0.25251379 0.00000000
vt 0.49748621 1.00000000
vt 0.49748621 0.00000000
vt 0.13227268 1.00000000
vt 0.13227268 0.00000000
vt 0.11772732 1.00000000
vt 0.11772732 0.00000000
vt 0.25477215 1.00000000
vt 0.25477215 0.00000000
vt 0.49522785 1.00000000
vt 0.49522785 0.00000000
vt 0.32031250 1.00000000
vt 0.32031250 0.00000000
vt 0.42968750 1.00000000
vt 0.42968750 0.00000000
vt 0.37044423 1.00000000
vt 0.37044423 0.00000000
vt 0.37955577 1.00000000
vt 0.37955577 0.00000000
vt 0.26156448 1.00000000
vt 0.26156448 0.00000000
vt 0.26776714 1.00000000
vt 0.26776714 0.00000000
vt 0.25423746 1.00000000
vt 0.25423746 0.00000000
vt 0.49576254 1.00000000
vt 0.49576254 0.00000000
vt 0.33593750 1.00000000
vt 0.33593750 0.00000000
vt 0.41406250 1.00000000
vt 0.41406250 0.00000000
vt 0.37128895 1.00000000
vt 0.37128895 0.00000000
vt 0.37871105 1.00000000
vt 0.37871105 0.00000000
vt 0.49521499 1.00000000
vt 0.49521499 0.00000000
vt 0.25478501 1.00000000
vt 0.25478501 0.00000000
vt 0.43359375 1.00000000
vt 0.43359375 0.00000000
vt 0.31640625 1.00000000
vt 0.31640625 0.00000000
vt 0.37967479 1.00000000
vt 0.37967479 0.00000000
vt 0.37032521 1.00000000
vt 0.37032521 0.00000000
vt 0.49794682 1.00000000
vt 0.49794682 0.00000000
vt 0.25205318 1.00000000
vt 0.25205318 0.00000000
vt 0.39062500 1.00000000
vt 0.39062500 0.00000000
vt 0.35937500 1.00000000
vt 0.35937500 0.00000000
vt 0.37664389 1.00000000
vt 0.37664389 0.00000000
vt 0.37335611 1.00000000
vt 0.37335611 0.00000000
vt 0.26521390 1.00000000
vt 0.26521390 0.00000000
vt 0.26144756 1.00000000
vt 0.26144756 0.00000000
vt 0.26561072 1.00000000
vt 0.26561072 0.00000000
vt 0.26314211 1.00000000
vt 0.26314211 0.00000000
vt 0.26737686 1.00000000
vt 0.26737686 0.00000000
vt 0.26316412 1.00000000
vt 0.26316412 0.00000000
vt 0.49835611 1.00000000
vt 0.49835611 0.00000000
vt 0.25164389 1.00000000
vt 0.25164389 0.00000000
vt 0.48437500 1.00000000
vt 0.48437500 0.00000000
vt 0.26562500 1.00000000
vt 0.26562500 0.00000000
vt 0.37705318 1.00000000
vt 0.37705318 0.00000000
vt 0.37294682 1.00000000
vt 0.37294682 0.00000000
vt 0.49532521 1.00000000
vt 0.49532521 0.00000000
vt 0.25467479 1.00000000
vt 0.25467479 0.00000000
vt 0.44140625 1.00000000
vt 0.44140625 0.00000000
vt 0.30859375 1.00000000
vt 0.30859375 0.00000000
vt 0.37978501 1.00000000
vt 0.37978501 0.00000000
vt 0.37021499 1.00000000
vt 0.37021499 0.00000000
vt 0.25371105 1.00000000
vt 0.25371105 0.00000000
vt 0.49628895 1.00000000
vt 0.49628895 0.00000000
vt 0.28906250 1.00000000
vt 0.28906250 0.00000000
vt 0.46093750 1.00000000
vt 0.46093750 0.00000000
vt 0.37076254 1.00000000
vt 0.37076254 0.00000000
vt 0.37923746 1.00000000
vt 0.37923746 0.00000000
vt 0.26080355 1.00000000
vt 0.26080355 0.00000000
vt 0.26667986 1.00000000
vt 0.26667986 0.00000000
vt 0.25455577 1.00000000
vt 0.25455577 0.00000000
vt 0.49544423 1.00000000
vt 0.49544423 0.00000000
vt 0.30468750 1.00000000
vt 0.30468750 0.00000000
vt 0.44531250 1.00000000
vt 0.44531250 0.00000000
vt 0.37022785 1.00000000
vt 0.37022785 0.00000000
vt 0.37977215 1.00000000
vt 0.37977215 0.00000000
vt 0.24272732 1.00000000
vt 0.24272732 0.00000000
vt 0.00727268 1.00000000
vt 0.00727268 0.00000000
vt 0.37248621 1.00000000
vt 0.37248621 0.00000000
vt 0.37751379 1.00000000
vt 0.37751379 0.00000000
vt 0.22395833 1.00000000
vt 0.22395833 0.00000000
vt 0.02604167 1.00000000
vt 0.02604167 0.00000000
vt 0.13863287 1.00000000
vt 0.13863287 0.00000000
vt 0.11136713 1.00000000
vt 0.11136713 0.00000000
vt 0.25203358 1.00000000
vt 0.25203358 0.00000000
vt 0.49796642 1.00000000
vt 0.49796642 0.00000000
vt 0.26953125 1.00000000
vt 0.26953125 0.00000000
vt 0.48046875 1.00000000
vt 0.48046875 0.00000000
vt 0.00148679 1.00000000
vt 0.00148679 0.00000000
vt 0.24851321 1.00000000
vt 0.24851321 0.00000000
vt 0.00520833 1.00000000
vt 0.00520833 0.00000000
vt 0.24479167 1.00000000
vt 0.24479167 0.00000000
vt 0.12156587 1.00000000
vt 0.12156587 0.00000000
vt 0.12843413 1.00000000
vt 0.12843413 0.00000000
vt 0.49705871 1.00000000
vt 0.49705871 0.00000000
vt 0.25294129 1.00000000
vt 0.25294129 0.00000000
vt 0.39843750 1.00000000
vt 0.39843750 0.00000000
vt 0.35156250 1.00000000
vt 0.35156250 0.00000000
vt 0.26756698 1.00000000
vt 0.26756698 0.00000000
vt 0.26270503 1.00000000
vt 0.26270503 0.00000000
vt 0.37740904 1.00000000
vt 0.37740904 0.00000000
vt 0.37259096 1.00000000
vt 0.37259096 0.00000000
vt 0.49723259 1.00000000
vt 0.49723259 0.00000000
vt 0.25276741 1.00000000
vt 0.25276741 0.00000000
vt 0.47265625 1.00000000
vt 0.47265625 0.00000000
vt 0.27734375 1.00000000
vt 0.27734375 0.00000000
vt 0.37833090 1.00000000
vt 0.37833090 0.00000000
vt 0.37166910 1.00000000
vt 0.37166910 0.00000000
vt 0.09375000 1.00000000
vt 0.09375000 0.00000000
vt 0.15625000 1.00000000
vt 0.15625000 0.00000000
vt 0.11636548 1.00000000
vt 0.11636548 0.00000000
vt 0.13363452 1.00000000
vt 0.13363452 0.00000000
vt 0.01494722 1.00000000
vt 0.01494722 0.00000000
vt 0.23505278 1.00000000
vt 0.23505278 0.00000000
vt 0.26203661 1.00000000
vt 0.26203661 0.00000000
vt 0.26438395 1.00000000
vt 0.26438395 0.00000000
vt 0.13681544 1.00000000
vt 0.13681544 0.00000000
vt 0.11318456 1.00000000
vt 0.11318456 0.00000000
vt 0.25367871 1.00000000
vt 0.25367871 0.00000000
vt 0.49632129 1.00000000
vt 0.49632129 0.00000000
vt 0.34375000 1.00000000
vt 0.34375000 0.00000000
vt 0.40625000 1.00000000
vt 0.40625000 0.00000000
vt 0.37189421 1.00000000
vt 0.37189421 0.00000000
vt 0.37810579 1.00000000
vt 0.37810579 0.00000000
vt 0.24413256 1.00000000
vt 0.24413256 0.00000000
vt 0.00586744 1.00000000
vt 0.00586744 0.00000000
vt 0.22916667 1.00000000
vt 0.22916667 0.00000000
vt 0.02083333 1.00000000
vt 0.02083333 0.00000000
vt 0.26354825 1.00000000
vt 0.26354825 0.00000000
vt 0.26275115 1.00000000
vt 0.26275115 0.00000000
vt 0.24005815 1.00000000
vt 0.24005815 0.00000000
vt 0.00994185 1.00000000
vt 0.00994185 0.00000000
vt 0.21354167 1.00000000
vt 0.21354167 0.00000000
vt 0.03645833 1.00000000
vt 0.03645833 0.00000000
vt 0.14080382 1.00000000
vt 0.14080382 0.00000000
vt 0.10919618 1.00000000
vt 0.10919618 0.00000000
vt 0.26088681 1.00000000
vt 0.26088681 0.00000000
vt 0.26635126 1.00000000
vt 0.26635126 0.00000000
vt 0.01340022 1.00000000
vt 0.01340022 0.00000000
vt 0.23659978 1.00000000
vt 0.23659978 0.00000000
vt 0.05208333 1.00000000
vt 0.05208333 0.00000000
vt 0.19791667 1.00000000
vt 0.19791667 0.00000000
vt 0.10880865 1.00000000
vt 0.10880865 0.00000000
vt 0.14119135 1.00000000
vt 0.14119135 0.00000000
vt 0.26172379 1.00000000
vt 0.26172379 0.00000000
vt 0.26480242 1.00000000
vt 0.26480242 0.00000000
vt 0.13447734 1.00000000
vt 0.13447734 0.00000000
vt 0.11552266 1.00000000
vt 0.11552266 0.00000000
vt 0.24557124 1.00000000
vt 0.24557124 0.00000000
vt 0.00442876 1.00000000
vt 0.00442876 0.00000000
vt 0.23437500 1.00000000
vt 0.23437500 0.00000000
vt 0.01562500 1.00000000
vt 0.01562500 0.00000000
vt 0.37897217 1.00000000
vt 0.37897217 0.00000000
vt 0.37102783 1.00000000
vt 0.37102783 0.00000000
vt 0.48828125 1.00000000
vt 0.48828125 0.00000000
vt 0.26171875 1.00000000
vt 0.26171875 0.00000000
vt 0.37656501 1.00000000
vt 0.37656501 0.00000000
vt 0.37343499 1.00000000
vt 0.37343499 0.00000000
vt 0.49555524 1.00000000
vt 0.49555524 0.00000000
vt 0.25444476 1.00000000
vt 0.25444476 0.00000000
vt 0.41796875 1.00000000
vt 0.41796875 0.00000000
vt 0.33203125 1.00000000
vt 0.33203125 0.00000000
vt 0.49875716 1.00000000
vt 0.49875716 0.00000000
vt 0.25124284 1.00000000
vt 0.25124284 0.00000000
vt 0.26697435 1.00000000
vt 0.26697435 0.00000000
vt 0.26077799 1.00000000
vt 0.26077799 0.00000000
vt 0.26106701 1.00000000
vt 0.26106701 0.00000000
vt 0.26760349 1.00000000
vt 0.26760349 0.00000000
vt 0.23423222 1.00000000
vt 0.23423222 0.00000000
vt 0.01576778 1.00000000
vt 0.01576778 0.00000000
vt 0.18229167 1.00000000
vt 0.18229167 0.00000000
vt 0.06770833 1.00000000
vt 0.06770833 0.00000000
vt 0.13934126 1.00000000
vt 0.13934126 0.00000000
vt 0.11065874 1.00000000
vt 0.11065874 0.00000000
vt 0.26464555 1.00000000
vt 0.26464555 0.00000000
vt 0.26646002 1.00000000
vt 0.26646002 0.00000000
vt 0.49958194 1.00000000
vt 0.49958194 0.00000000
vt 0.25041806 1.00000000
vt 0.25041806 0.00000000
vt 0.49609375 1.00000000
vt 0.49609375 0.00000000
vt 0.25390625 1.00000000
vt 0.25390625 0.00000000
vt 0.37553143 1.00000000
vt 0.37553143 0.00000000
vt 0.37446857 1.00000000
vt 0.37446857 0.00000000
vt 0.49657870 1.00000000
vt 0.49657870 0.00000000
vt 0.25342130 1.00000000
vt 0.25342130 0.00000000
vt 0.46484375 1.00000000
vt 0.46484375 0.00000000
vt 0.28515625 1.00000000
vt 0.28515625 0.00000000
vt 0.26769537 1.00000000
vt 0.26769537 0.00000000
vt 0.26228003 1.00000000
vt 0.26228003 0.00000000
vt 0.37898164 1.00000000
vt 0.37898164 0.00000000
vt 0.37101836 1.00000000
vt 0.37101836 0.00000000
vt 0.49579817 1.00000000
vt 0.49579817 0.00000000
vt 0.25420183 1.00000000
vt 0.25420183 0.00000000
vt 0.45312500 1.00000000
vt 0.45312500 0.00000000
vt 0.29687500 1.00000000
vt 0.29687500 0.00000000
vt 0.37960288 1.00000000
vt 0.37960288 0.00000000
vt 0.37039712 1.00000000
vt 0.37039712 0.00000000
vt 0.23765952 1.00000000
vt 0.23765952 0.00000000
vt 0.01234048 1.00000000
vt 0.01234048 0.00000000
vt 0.20312500 1.00000000
vt 0.20312500 0.00000000
vt 0.04687500 1.00000000
vt 0.04687500 0.00000000
vt 0.14137069 1.00000000
vt 0.14137069 0.00000000
vt 0.10862931 1.00000000
vt 0.10862931 0.00000000
vt 0.24334973 1.00000000
vt 0.24334973 0.00000000
vt 0.00665027 1.00000000
vt 0.00665027 0.00000000
vt 0.13541667 1.00000000
vt 0.13541667 0.00000000
vt 0.11458333 1.00000000
vt 0.11458333 0.00000000
vt 0.12796573 1.00000000
vt 0.12796573 0.00000000
vt 0.12203427 1.00000000
vt 0.12203427 0.00000000
vt 0.38281250 1.00000000
vt 0.38281250 0.00000000
vt 0.36718750 1.00000000
vt 0.36718750 0.00000000
vt 0.37583328 1.00000000
vt 0.37583328 0.00000000
vt 0.37416672 1.00000000
vt 0.37416672 0.00000000
vt 0.49894451 1.00000000
vt 0.49894451 0.00000000
vt 0.25105549 1.00000000
vt 0.25105549 0.00000000
vt 0.49560274 1.00000000
vt 0.49560274 0.00000000
vt 0.25439726 1.00000000
vt 0.25439726 0.00000000
vt 0.44921875 1.00000000
vt 0.44921875 0.00000000
vt 0.30078125 1.00000000
vt 0.30078125 0.00000000
vt 0.37971181 1.00000000
vt 0.37971181 0.00000000
vt 0.37028819 1.00000000
vt 0.37028819 0.00000000
f 65/65 23/23 527/527
f 65/65 527/527 66/66
f 66/66 527/527 528/528
f 66/66 528/528 24/24
f 527/527 23/23 125/125
f 527/527 125/125 528/528
f 528/528 125/125 126/126
f 528/528 126/126 24/24
f 125/125 23/23 637/637
f 125/125 637/637 126/126
f 126/126 637/637 638/638
f 126/126 638/638 24/24
f 637/637 23/23 577/577
f 637/637 577/577 638/638
f 638/638 577/577 578/578
f 638/638 578/578 24/24
f 577/577 23/23 509/509
f 577/577 509/509 578/578
f 578/578 509/509 510/510
f 578/578 510/510 24/24
f 509/509 23/23 303/303
f 509/509 303/303 510/510
f 510/510 303/303 304/304
f 510/510 304/304 24/24
f 303/303 23/23 613/613
f 303/303 613/613 304/304
f 304/304 613/613 614/614
f 304/304 614/614 24/24
f 613/613 23/23 89/89
f 613/613 89/89 614/614
f 614/614 89/89 90/90
f 614/614 90/90 24/24
f 89/89 23/23 745/745
f 89/89 745/745 90/90
f 90/90 745/745 746/746
f 90/90 746/746 24/24
f 745/745 23/23 627/627
f 745/745 627/627 746/746
f 746/746 627/627 628/628
f 746/746 628/628 24/24
f 627/627 23/23 193/193
f 627/627 193/193 628/628
f 628/628 193/193 194/194
f 628/628 194/194 24/24
f 193/193 23/23 29/29
f 193/193 29/29 194/194
f 194/194 29/29 30/30
f 194/194 30/30 24/24
f 29/29 23/23 689/689
f 29/29 689/689 30/30
f 30/30 689/689 690/690
f 30/30 690/690 24/24
f 689/689 23/23 251/251
f 689/689 251/251 690/690
f 690/690 251/251 252/252
f 690/690 252/252 24/24
f 251/251 23/23 137/137
f 251/251 137/137 252/252
f 252/252 137/137 138/138
f 252/252 138/138 24/24
f 137/137 23/23 49/49
f 137/137 49/49 138/138
f 138/138 49/49 50/50
f 138/138 50/50 24/24
f 49/49 23/23 269/269
f 49/49 269/269 50/50
f 50/50 269/269 270/270
f 50/50 270/270 24/24
f 269/269 23/23 563/563
f 269/269 563/563 270/270
f 270/270 563/563 564/564
f 270/270 564/564 24/24
f 563/563 23/23 377/377
f 563/563 377/377 564/564
f 564/564 377/377 378/378
f 564/564 378/378 24/24
f 377/377 23/23 281/281
f 377/377 281/281 378/378
f 378/378 281/281 282/282
f 378/378 282/282 24/24
f 281/281 23/23 233/233
f 281/281 233/233 282/282
f 282/282 233/233 234/234
f 282/282 234/234 24/24
f 233/233 23/23 757/757
f 233/233 757/757 234/234
f 234/234 757/757 758/758
f 234/234 758/758 24/24
f 757/757 23/23 351/351
f 757/757 351/351 758/758
f 758/758 351/351 352/352
f 758/758 352/352 24/24
f 351/351 23/23 59/59
f 351/351 59/59 352/352
f 352/352 59/59 60/60
f 352/352 60/60 24/24
f 59/59 23/23 353/353
f 59/59 353/353 60/60
f 60/60 353/353 354/354
f 60/60 354/354 24/24
f 353/353 23/23 755/755
f 353/353 755/755 354/354
f 354/354 755/755 756/756
f 354/354 756/756 24/24
f 755/755 23/23 231/231
f 755/755 231/231 756/756
f 756/756 231/231 232/232
f 756/756 232/232 24/24
f 231/231 23/23 279/279
f 231/231 279/279 232/232
f 232/232 279/279 280/280
f 232/232 280/280 24/24
f 279/279 23/23 375/375
f 279/279 375/375 280/280
f 280/280 375/375 376/376
f 280/280 376/376 24/24
f 375/375 23/23 565/565
f 375/375 565/565 376/376
f 376/376 565/565 566/566
f 376/376 566/566 24/24
f 565/565 23/23 267/267
f 565/565 267/267 566/566
f 566/566 267/267 268/268
f 566/566 268/268 24/24
f 267/267 23/23 47/47
f 267/267 47/47 268/268
f 268/268 47/47 48/48
f 268/268 48/48 24/24
f 47/47 23/23 135/135
f 47/47 135/135 48/48
f 48/48 135/135 136/136
f 48/48 136/136 24/24
f 135/135 23/23 253/253
f 135/135 253/253 136/136
f 136/136 253/253 254/254
f 136/136 254/254 24/24
f 253/253 23/23 687/687
f 253/253 687/687 254/254
f 254/254 687/687 688/688
f 254/254 688/688 24/24
f 687/687 23/23 27/27
f 687/687 27/27 688/688
f 688/688 27/27 28/28
f 688/688 28/28 24/24
f 27/27 23/23 191/191
f 27/27 191/191 28/28
f 28/28 191/191 192/192
f 28/28 192/192 24/24
f 191/191 23/23 629/629
f 191/191 629/629 192/192
f 192/192 629/629 630/630
f 192/192 630/630 24/24
f 629/629 23/23 743/743
f 629/629 743/743 630/630
f 630/630 743/743 744/744
f 630/630 744/744 24/24
f 743/743 23/23 87/87
f 743/743 87/87 744/744
f 744/744 87/87 88/88
f 744/744 88/88 24/24
f 87/87 23/23 611/611
f 87/87 611/611 88/88
f 88/88 611/611 612/612
f 88/88 612/612 24/24
f 611/611 23/23 305/305
f 611/611 305/305 612/612
f 612/612 305/305 306/306
f 612/612 306/306 24/24
f 305/305 23/23 507/507
f 305/305 507/507 306/306
f 306/306 507/507 508/508
f 306/306 508/508 24/24
f 507/507 23/23 575/575
f 507/507 575/575 508/508
f 508/508 575/575 576/576
f 508/508 576/576 24/24
f 575/575 23/23 635/635
f 575/575 635/635 576/576
f 576/576 635/635 636/636
f 576/576 636/636 24/24
f 635/635 23/23 123/123
f 635/635 123/123 636/636
f 636/636 123/123 124/124
f 636/636 124/124 24/24
f 123/123 23/23 529/529
f 123/123 529/529 124/124
f 124/124 529/529 530/530
f 124/124 530/530 24/24
f 529/529 23/23 65/65
f 529/529 65/65 530/530
f 530/530 65/65 66/66
f 530/530 66/66 24/24
f 37/37 38/38 706/706
f 37/37 706/706 705/705
f 705/705 706/706 106/106
f 705/705 106/106 105/105
f 105/105 106/106 658/658
f 105/105 658/658 657/657
f 657/657 658/658 454/454
f 657/657 454/454 453/453
f 453/453 454/454 500/500
f 453/453 500/500 499/499
f 499/499 500/500 342/342
f 499/499 342/342 341/341
f 341/341 342/342 558/558
f 341/341 558/558 557/557
f 557/557 558/558 292/292
f 557/557 292/292 291/291
f 291/291 292/292 722/722
f 291/291 722/722 721/721
f 721/721 722/722 476/476
f 721/721 476/476 475/475
f 475/475 476/476 214/214
f 475/475 214/214 213/213
f 213/213 214/214 734/734
f 213/213 734/734 733/733
f 733/733 734/734 782/782
f 733/733 782/782 781/781
f 781/781 782/782 492/492
f 781/781 492/492 491/491
f 491/491 492/492 466/466
f 491/491 466/466 465/465
f 465/465 466/466 26/26
f 465/465 26/26 25/25
f 25/25 26/26 418/418
f 25/25 418/418 417/417
f 417/417 418/418 388/388
f 417/417 388/388 387/387
f 387/387 388/388 102/102
f 387/387 102/102 101/101
f 101/101 102/102 150/150
f 101/101 150/150 149/149
f 149/149 150/150 650/650
f 149/149 650/650 649/649
f 649/649 650/650 404/404
f 649/649 404/404 403/403
f 403/403 404/404 166/166
f 403/403 166/166 165/165
f 165/165 166/166 588/588
f 165/165 588/588 587/587
f 587/587 588/588 326/326
f 587/587 326/326 325/325
f 325/325 326/326 546/546
f 325/325 546/546 545/545
f 545/545 546/546 360/360
f 545/545 360/360 359/359
f 359/359 360/360 430/430
f 359/359 430/430 429/429
f 429/429 430/430 206/206
f 429/429 206/206 205/205
f 205/205 206/206 766/766
f 205/205 766/766 765/765
f 765/765 766/766 178/178
f 765/765 178/178 177/177
f 177/177 178/178 22/22
f 177/177 22/22 21/21
f 21/21 22/22 176/176
f 21/21 176/176 175/175
f 175/175 176/176 764/764
f 175/175 764/764 763/763
f 763/763 764/764 204/204
f 763/763 204/204 203/203
f 203/203 204/204 428/428
f 203/203 428/428 427/427
f 427/427 428/428 362/362
f 427/427 362/362 361/361
f 361/361 362/362 544/544
f 361/361 544/544 543/543
f 543/543 544/544 324/324
f 543/543 324/324 323/323
f 323/323 324/324 590/590
f 323/323 590/590 589/589
f 589/589 590/590 164/164
f 589/589 164/164 163/163
f 163/163 164/164 406/406
f 163/163 406/406 405/405
f 405/405 406/406 648/648
f 405/405 648/648 647/647
f 647/647 648/648 148/148
f 647/647 148/148 147/147
f 147/147 148/148 100/100
f 147/147 100/100 99/99
f 99/99 100/100 390/390
f 99/99 390/390 389/389
f 389/389 390/390 416/416
f 389/389 416/416 415/415
f 415/415 416/416 32/32
f 415/415 32/32 31/31
f 31/31 32/32 464/464
f 31/31 464/464 463/463
f 463/463 464/464 494/494
f 463/463 494/494 493/493
f 493/493 494/494 780/780
f 493/493 780/780 779/779
f 779/779 780/780 732/732
f 779/779 732/732 731/731
f 731/731 732/732 212/212
f 731/731 212/212 211/211
f 211/211 212/212 478/478
f 211/211 478/478 477/477
f 477/477 478/478 720/720
f 477/477 720/720 719/719
f 719/719 720/720 294/294
f 719/719 294/294 293/293
f 293/293 294/294 556/556
f 293/293 556/556 555/555
f 555/555 556/556 340/340
f 555/555 340/340 339/339
f 339/339 340/340 502/502
f 339/339 502/502 501/501
f 501/501 502/502 452/452
f 501/501 452/452 451/451
f 451/451 452/452 656/656
f 451/451 656/656 655/655
f 655/655 656/656 104/104
f 655/655 104/104 103/103
f 103/103 104/104 704/704
f 103/103 704/704 703/703
f 703/703 704/704 38/38
f 703/703 38/38 37/37
f 53/53 1/1 523/523
f 53/53 523/523 54/54
f 54/54 523/523 524/524
f 54/54 524/524 2/2
f 523/523 1/1 121/121
f 523/523 121/121 524/524
f 524/524 121/121 122/122
f 524/524 122/122 2/2
f 121/121 1/1 645/645
f 121/121 645/645 122/122
f 122/122 645/645 646/646
f 122/122 646/646 2/2
f 645/645 1/1 597/597
f 645/645 597/597 646/646
f 646/646 597/597 598/598
f 646/646 598/598 2/2
f 597/597 1/1 505/505
f 597/597 505/505 598/598
f 598/598 505/505 506/506
f 598/598 506/506 2/2
f 505/505 1/1 311/311
f 505/505 311/311 506/506
f 506/506 311/311 312/312
f 506/506 312/312 2/2
f 311/311 1/1 609/609
f 311/311 609/609 312/312
f 312/312 609/609 610/610
f 312/312 610/610 2/2
f 609/609 1/1 71/71
f 609/609 71/71 610/610
f 610/610 71/71 72/72
f 610/610 72/72 2/2
f 71/71 1/1 741/741
f 71/71 741/741 72/72
f 72/72 741/741 742/742
f 72/72 742/742 2/2
f 741/741 1/1 623/623
f 741/741 623/623 742/742
f 742/742 623/623 624/624
f 742/742 624/624 2/2
f 623/623 1/1 189/189
f 623/623 189/189 624/624
f 624/624 189/189 190/190
f 624/624 190/190 2/2
f 189/189 1/1 7/7
f 189/189 7/7 190/190
f 190/190 7/7 8/8
f 190/190 8/8 2/2
f 7/7 1/1 685/685
f 7/7 685/685 8/8
f 8/8 685/685 686/686
f 8/8 686/686 2/2
f 685/685 1/1 247/247
f 685/685 247/247 686/686
f 686/686 247/247 248/248
f 686/686 248/248 2/2
f 247/247 1/1 133/133
f 247/247 133/133 248/248
f 248/248 133/133 134/134
f 248/248 134/134 2/2
f 133/133 1/1 35/35
f 133/133 35/35 134/134
f 134/134 35/35 36/36
f 134/134 36/36 2/2
f 35/35 1/1 265/265
f 35/35 265/265 36/36
f 36/36 265/265 266/266
f 36/36 266/266 2/2
f 265/265 1/1 559/559
f 265/265 559/559 266/266
f 266/266 559/559 560/560
f 266/266 560/560 2/2
f 559/559 1/1 369/369
f 559/559 369/369 560/560
f 560/560 369/369 370/370
f 560/560 370/370 2/2
f 369/369 1/1 277/277
f 369/369 277/277 370/370
f 370/370 277/277 278/278
f 370/370 278/278 2/2
f 277/277 1/1 229/229
f 277/277 229/229 278/278
f 278/278 229/229 230/230
f 278/278 230/230 2/2
f 229/229 1/1 753/753
f 229/229 753/753 230/230
f 230/230 753/753 754/754
f 230/230 754/754 2/2
f 753/753 1/1 347/347
f 753/753 347/347 754/754
f 754/754 347/347 348/348
f 754/754 348/348 2/2
f 347/347 1/1 51/51
f 347/347 51/51 348/348
f 348/348 51/51 52/52
f 348/348 52/52 2/2
f 51/51 1/1 349/349
f 51/51 349/349 52/52
f 52/52 349/349 350/350
f 52/52 350/350 2/2
f 349/349 1/1 751/751
f 349/349 751/751 350/350
f 350/350 751/751 752/752
f 350/350 752/752 2/2
f 751/751 1/1 227/227
f 751/751 227/227 752/752
f 752/752 227/227 228/228
f 752/752 228/228 2/2
f 227/227 1/1 275/275
f 227/227 275/275 228/228
f 228/228 275/275 276/276
f 228/228 276/276 2/2
f 275/275 1/1 367/367
f 275/275 367/367 276/276
f 276/276 367/367 368/368
f 276/276 368/368 2/2
f 367/367 1/1 561/561
f 367/367 561/561 368/368
f 368/368 561/561 562/562
f 368/368 562/562 2/2
f 561/561 1/1 263/263
f 561/561 263/263 562/562
f 562/562 263/263 264/264
f 562/562 264/264 2/2
f 263/263 1/1 33/33
f 263/263 33/33 264/264
f 264/264 33/33 34/34
f 264/264 34/34 2/2
f 33/33 1/1 131/131
f 33/33 131/131 34/34
f 34/34 131/131 132/132
f 34/34 132/132 2/2
f 131/131 1/1 249/249
f 131/131 249/249 132/132
f 132/132 249/249 250/250
f 132/132 250/250 2/2
f 249/249 1/1 683/683
f 249/249 683/683 250/250
f 250/250 683/683 684/684
f 250/250 684/684 2/2
f 683/683 1/1 5/5
f 683/683 5/5 684/684
f 684/684 5/5 6/6
f 684/684 6/6 2/2
f 5/5 1/1 187/187
f 5/5 187/187 6/6
f 6/6 187/187 188/188
f 6/6 188/188 2/2
f 187/187 1/1 625/625
f 187/187 625/625 188/188
f 188/188 625/625 626/626
f 188/188 626/626 2/2
f 625/625 1/1 739/739
f 625/625 739/739 626/626
f 626/626 739/739 740/740
f 626/626 740/740 2/2
f 739/739 1/1 69/69
f 739/739 69/69 740/740
f 740/740 69/69 70/70
f 740/740 70/70 2/2
f 69/69 1/1 607/607
f 69/69 607/607 70/70
f 70/70 607/607 608/608
f 70/70 608/608 2/2
f 607/607 1/1 313/313
f 607/607 313/313 608/608
f 608/608 313/313 314/314
f 608/608 314/314 2/2
f 313/313 1/1 503/503
f 313/313 503/503 314/314
f 314/314 503/503 504/504
f 314/314 504/504 2/2
f 503/503 1/1 595/595
f 503/503 595/595 504/504
f 504/504 595/595 596/596
f 504/504 596/596 2/2
f 595/595 1/1 643/643
f 595/595 643/643 596/596
f 596/596 643/643 644/644
f 596/596 644/644 2/2
f 643/643 1/1 119/119
f 643/643 119/119 644/644
f 644/644 119/119 120/120
f 644/644 120/120 2/2
f 119/119 1/1 525/525
f 119/119 525/525 120/120
f 120/120 525/525 526/526
f 120/120 526/526 2/2
f 525/525 1/1 53/53
f 525/525 53/53 526/526
f 526/526 53/53 54/54
f 526/526 54/54 2/2
f 15/15 16/16 702/702
f 15/15 702/702 701/701
f 701/701 702/702 114/114
f 701/701 114/114 113/113
f 113/113 114/114 654/654
f 113/113 654/654 653/653
f 653/653 654/654 450/450
f 653/653 450/450 449/449
f 449/449 450/450 516/516
f 449/449 516/516 515/515
f 515/515 516/516 334/334
f 515/515 334/334 333/333
f 333/333 334/334 554/554
f 333/333 554/554 553/553
f 553/553 554/554 288/288
f 553/553 288/288 287/287
f 287/287 288/288 714/714
f 287/287 714/714 713/713
f 713/713 714/714 472/472
f 713/713 472/472 471/471
f 471/471 472/472 210/210
f 471/471 210/210 209/209
f 209/209 210/210 730/730
f 209/209 730/730 729/729
f 729/729 730/730 778/778
f 729/729 778/778 777/777
f 777/777 778/778 488/488
f 777/777 488/488 487/487
f 487/487 488/488 462/462
f 487/487 462/462 461/461
f 461/461 462/462 4/4
f 461/461 4/4 3/3
f 3/3 4/4 414/414
f 3/3 414/414 413/413
f 413/413 414/414 384/384
f 413/413 384/384 383/383
f 383/383 384/384 98/98
f 383/383 98/98 97/97
f 97/97 98/98 146/146
f 97/97 146/146 145/145
f 145/145 146/146 666/666
f 145/145 666/666 665/665
f 665/665 666/666 400/400
f 665/665 400/400 399/399
f 399/399 400/400 158/158
f 399/399 158/158 157/157
f 157/157 158/158 584/584
f 157/157 584/584 583/583
f 583/583 584/584 322/322
f 583/583 322/322 321/321
f 321/321 322/322 538/538
f 321/321 538/538 537/537
f 537/537 538/538 356/356
f 537/537 356/356 355/355
f 355/355 356/356 426/426
f 355/355 426/426 425/425
f 425/425 426/426 222/222
f 425/425 222/222 221/221
f 221/221 222/222 762/762
f 221/221 762/762 761/761
f 761/761 762/762 174/174
f 761/761 174/174 173/173
f 173/173 174/174 86/86
f 173/173 86/86 85/85
f 85/85 86/86 172/172
f 85/85 172/172 171/171
f 171/171 172/172 760/760
f 171/171 760/760 759/759
f 759/759 760/760 220/220
f 759/759 220/220 219/219
f 219/219 220/220 424/424
f 219/219 424/424 423/423
f 423/423 424/424 358/358
f 423/423 358/358 357/357
f 357/357 358/358 536/536
f 357/357 536/536 535/535
f 535/535 536/536 320/320
f 535/535 320/320 319/319
f 319/319 320/320 586/586
f 319/319 586/586 585/585
f 585/585 586/586 156/156
f 585/585 156/156 155/155
f 155/155 156/156 402/402
f 155/155 402/402 401/401
f 401/401 402/402 664/664
f 401/401 664/664 663/663
f 663/663 664/664 144/144
f 663/663 144/144 143/143
f 143/143 144/144 96/96
f 143/143 96/96 95/95
f 95/95 96/96 386/386
f 95/95 386/386 385/385
f 385/385 386/386 412/412
f 385/385 412/412 411/411
f 411/411 412/412 10/10
f 411/411 10/10 9/9
f 9/9 10/10 460/460
f 9/9 460/460 459/459
f 459/459 460/460 490/490
f 459/459 490/490 489/489
f 489/489 490/490 776/776
f 489/489 776/776 775/775
f 775/775 776/776 728/728
f 775/775 728/728 727/727
f 727/727 728/728 208/208
f 727/727 208/208 207/207
f 207/207 208/208 474/474
f 207/207 474/474 473/473
f 473/473 474/474 712/712
f 473/473 712/712 711/711
f 711/711 712/712 290/290
f 711/711 290/290 289/289
f 289/289 290/290 552/552
f 289/289 552/552 551/551
f 551/551 552/552 332/332
f 551/551 332/332 331/331
f 331/331 332/332 518/518
f 331/331 518/518 517/517
f 517/517 518/518 448/448
f 517/517 448/448 447/447
f 447/447 448/448 652/652
f 447/447 652/652 651/651
f 651/651 652/652 112/112
f 651/651 112/112 111/111
f 111/111 112/112 700/700
f 111/111 700/700 699/699
f 699/699 700/700 16/16
f 699/699 16/16 15/15
f 41/41 73/73 519/519
f 41/41 519/519 42/42
f 42/42 519/519 520/520
f 42/42 520/520 74/74
f 519/519 73/73 117/117
f 519/519 117/117 520/520
f 520/520 117/117 118/118
f 520/520 118/118 74/74
f 117/117 73/73 641/641
f 117/117 641/641 118/118
f 118/118 641/641 642/642
f 118/118 642/642 74/74
f 641/641 73/73 593/593
f 641/641 593/593 642/642
f 642/642 593/593 594/594
f 642/642 594/594 74/74
f 593/593 73/73 497/497
f 593/593 497/497 594/594
f 594/594 497/497 498/498
f 594/594 498/498 74/74
f 497/497 73/73 307/307
f 497/497 307/307 498/498
f 498/498 307/307 308/308
f 498/498 308/308 74/74
f 307/307 73/73 605/605
f 307/307 605/605 308/308
f 308/308 605/605 606/606
f 308/308 606/606 74/74
f 605/605 73/73 57/57
f 605/605 57/57 606/606
f 606/606 57/57 58/58
f 606/606 58/58 74/74
f 57/57 73/73 737/737
f 57/57 737/737 58/58
f 58/58 737/737 738/738
f 58/58 738/738 74/74
f 737/737 73/73 619/619
f 737/737 619/619 738/738
f 738/738 619/619 620/620
f 738/738 620/620 74/74
f 619/619 73/73 185/185
f 619/619 185/185 620/620
f 620/620 185/185 186/186
f 620/620 186/186 74/74
f 185/185 73/73 79/79
f 185/185 79/79 186/186
f 186/186 79/79 80/80
f 186/186 80/80 74/74
f 79/79 73/73 681/681
f 79/79 681/681 80/80
f 80/80 681/681 682/682
f 80/80 682/682 74/74
f 681/681 73/73 243/243
f 681/681 243/243 682/682
f 682/682 243/243 244/244
f 682/682 244/244 74/74
f 243/243 73/73 129/129
f 243/243 129/129 244/244
f 244/244 129/129 130/130
f 244/244 130/130 74/74
f 129/129 73/73 13/13
f 129/129 13/13 130/130
f 130/130 13/13 14/14
f 130/130 14/14 74/74
f 13/13 73/73 261/261
f 13/13 261/261 14/14
f 14/14 261/261 262/262
f 14/14 262/262 74/74
f 261/261 73/73 567/567
f 261/261 567/567 262/262
f 262/262 567/567 568/568
f 262/262 568/568 74/74
f 567/567 73/73 365/365
f 567/567 365/365 568/568
f 568/568 365/365 366/366
f 568/568 366/366 74/74
f 365/365 73/73 297/297
f 365/365 297/297 366/366
f 366/366 297/297 298/298
f 366/366 298/298 74/74
f 297/297 73/73 237/237
f 297/297 237/237 298/298
f 298/298 237/237 238/238
f 298/298 238/238 74/74
f 237/237 73/73 749/749
f 237/237 749/749 238/238
f 238/238 749/749 750/750
f 238/238 750/750 74/74
f 749/749 73/73 343/343
f 749/749 343/343 750/750
f 750/750 343/343 344/344
f 750/750 344/344 74/74
f 343/343 73/73 39/39
f 343/343 39/39 344/344
f 344/344 39/39 40/40
f 344/344 40/40 74/74
f 39/39 73/73 345/345
f 39/39 345/345 40/40
f 40/40 345/345 346/346
f 40/40 346/346 74/74
f 345/345 73/73 747/747
f 345/345 747/747 346/346
f 346/346 747/747 748/748
f 346/346 748/748 74/74
f 747/747 73/73 235/235
f 747/747 235/235 748/748
f 748/748 235/235 236/236
f 748/748 236/236 74/74
f 235/235 73/73 295/295
f 235/235 295/295 236/236
f 236/236 295/295 296/296
f 236/236 296/296 74/74
f 295/295 73/73 363/363
f 295/295 363/363 296/296
f 296/296 363/363 364/364
f 296/296 364/364 74/74
f 363/363 73/73 569/569
f 363/363 569/569 364/364
f 364/364 569/569 570/570
f 364/364 570/570 74/74
f 569/569 73/73 259/259
f 569/569 259/259 570/570
f 570/570 259/259 260/260
f 570/570 260/260 74/74
f 259/259 73/73 11/11
f 259/259 11/11 260/260
f 260/260 11/11 12/12
f 260/260 12/12 74/74
f 11/11 73/73 127/127
f 11/11 127/127 12/12
f 12/12 127/127 128/128
f 12/12 128/128 74/74
f 127/127 73/73 245/245
f 127/127 245/245 128/128
f 128/128 245/245 246/246
f 128/128 246/246 74/74
f 245/245 73/73 679/679
f 245/245 679/679 246/246
f 246/246 679/679 680/680
f 246/246 680/680 74/74
f 679/679 73/73 77/77
f 679/679 77/77 680/680
f 680/680 77/77 78/78
f 680/680 78/78 74/74
f 77/77 73/73 183/183
f 77/77 183/183 78/78
f 78/78 183/183 184/184
f 78/78 184/184 74/74
f 183/183 73/73 621/621
f 183/183 621/621 184/184
f 184/184 621/621 622/622
f 184/184 622/622 74/74
f 621/621 73/73 735/735
f 621/621 735/735 622/622
f 622/622 735/735 736/736
f 622/622 736/736 74/74
f 735/735 73/73 55/55
f 735/735 55/55 736/736
f 736/736 55/55 56/56
f 736/736 56/56 74/74
f 55/55 73/73 603/603
f 55/55 603/603 56/56
f 56/56 603/603 604/604
f 56/56 604/604 74/74
f 603/603 73/73 309/309
f 603/603 309/309 604/604
f 604/604 309/309 310/310
f 604/604 310/310 74/74
f 309/309 73/73 495/495
f 309/309 495/495 310/310
f 310/310 495/495 496/496
f 310/310 496/496 74/74
f 495/495 73/73 591/591
f 495/495 591/591 496/496
f 496/496 591/591 592/592
f 496/496 592/592 74/74
f 591/591 73/73 639/639
f 591/591 639/639 592/592
f 592/592 639/639 640/640
f 592/592 640/640 74/74
f 639/639 73/73 115/115
f 639/639 115/115 640/640
f 640/640 115/115 116/116
f 640/640 116/116 74/74
f 115/115 73/73 521/521
f 115/115 521/521 116/116
f 116/116 521/521 522/522
f 116/116 522/522 74/74
f 521/521 73/73 41/41
f 521/521 41/41 522/522
f 522/522 41/41 42/42
f 522/522 42/42 74/74
f 83/83 84/84 698/698
f 83/83 698/698 697/697
f 697/697 698/698 110/110
f 697/697 110/110 109/109
f 109/109 110/110 670/670
f 109/109 670/670 669/669
f 669/669 670/670 446/446
f 669/669 446/446 445/445
f 445/445 446/446 512/512
f 445/445 512/512 511/511
f 511/511 512/512 330/330
f 511/511 330/330 329/329
f 329/329 330/330 550/550
f 329/329 550/550 549/549
f 549/549 550/550 284/284
f 549/549 284/284 283/283
f 283/283 284/284 710/710
f 283/283 710/710 709/709
f 709/709 710/710 468/468
f 709/709 468/468 467/467
f 467/467 468/468 226/226
f 467/467 226/226 225/225
f 225/225 226/226 726/726
f 225/225 726/726 725/725
f 725/725 726/726 774/774
f 725/725 774/774 773/773
f 773/773 774/774 484/484
f 773/773 484/484 483/483
f 483/483 484/484 458/458
f 483/483 458/458 457/457
f 457/457 458/458 76/76
f 457/457 76/76 75/75
f 75/75 76/76 410/410
f 75/75 410/410 409/409
f 409/409 410/410 380/380
f 409/409 380/380 379/379
f 379/379 380/380 94/94
f 379/379 94/94 93/93
f 93/93 94/94 142/142
f 93/93 142/142 141/141
f 141/141 142/142 662/662
f 141/141 662/662 661/661
f 661/661 662/662 396/396
f 661/661 396/396 395/395
f 395/395 396/396 154/154
f 395/395 154/154 153/153
f 153/153 154/154 580/580
f 153/153 580/580 579/579
f 579/579 580/580 318/318
f 579/579 318/318 317/317
f 317/317 318/318 534/534
f 317/317 534/534 533/533
f 533/533 534/534 372/372
f 533/533 372/372 371/371
f 371/371 372/372 422/422
f 371/371 422/422 421/421
f 421/421 422/422 218/218
f 421/421 218/218 217/217
f 217/217 218/218 770/770
f 217/217 770/770 769/769
f 769/769 770/770 170/170
f 769/769 170/170 169/169
f 169/169 170/170 68/68
f 169/169 68/68 67/67
f 67/67 68/68 168/168
f 67/67 168/168 167/167
f 167/167 168/168 768/768
f 167/167 768/768 767/767
f 767/767 768/768 216/216
f 767/767 216/216 215/215
f 215/215 216/216 420/420
f 215/215 420/420 419/419
f 419/419 420/420 374/374
f 419/419 374/374 373/373
f 373/373 374/374 532/532
f 373/373 532/532 531/531
f 531/531 532/532 316/316
f 531/531 316/316 315/315
f 315/315 316/316 582/582
f 315/315 582/582 581/581
f 581/581 582/582 152/152
f 581/581 152/152 151/151
f 151/151 152/152 398/398
f 151/151 398/398 397/397
f 397/397 398/398 660/660
f 397/397 660/660 659/659
f 659/659 660/660 140/140
f 659/659 140/140 139/139
f 139/139 140/140 92/92
f 139/139 92/92 91/91
f 91/91 92/92 382/382
f 91/91 382/382 381/381
f 381/381 382/382 408/408
f 381/381 408/408 407/407
f 407/407 408/408 82/82
f 407/407 82/82 81/81
f 81/81 82/82 456/456
f 81/81 456/456 455/455
f 455/455 456/456 486/486
f 455/455 486/486 485/485
f 485/485 486/486 772/772
f 485/485 772/772 771/771
f 771/771 772/772 724/724
f 771/771 724/724 723/723
f 723/723 724/724 224/224
f 723/723 224/224 223/223
f 223/223 224/224 470/470
f 223/223 470/470 469/469
f 469/469 470/470 708/708
f 469/469 708/708 707/707
f 707/707 708/708 286/286
f 707/707 286/286 285/285
f 285/285 286/286 548/548
f 285/285 548/548 547/547
f 547/547 548/548 328/328
f 547/547 328/328 327/327
f 327/327 328/328 514/514
f 327/327 514/514 513/513
f 513/513 514/514 444/444
f 513/513 444/444 443/443
f 443/443 444/444 668/668
f 443/443 668/668 667/667
f 667/667 668/668 108/108
f 667/667 108/108 107/107
f 107/107 108/108 696/696
f 107/107 696/696 695/695
f 695/695 696/696 84/84
f 695/695 84/84 83/83
f 64/64 62/62 63/63
f 45/45 64/64 63/63
f 63/63 62/62 61/61
f 61/61 45/45 63/63
f 64/64 44/44 62/62
f 46/46 64/64 45/45
f 46/46 44/44 64/64
f 62/62 44/44 61/61
f 43/43 45/45 61/61
f 61/61 44/44 43/43
f 43/43 46/46 45/45
f 44/44 46/46 43/43
f 437/437 438/438 600/600
f 437/437 600/600 599/599
f 599/599 600/600 182/182
f 599/599 182/182 181/181
f 181/181 182/182 574/574
f 181/181 574/574 573/573
f 573/573 574/574 634/634
f 573/573 634/634 633/633
f 633/633 634/634 432/432
f 633/633 432/432 431/431
f 431/431 432/432 336/336
f 431/431 336/336 335/335
f 335/335 336/336 160/160
f 335/335 160/160 159/159
f 159/159 160/160 618/618
f 159/159 618/618 617/617
f 617/617 618/618 482/482
f 617/617 482/482 481/481
f 481/481 482/482 672/672
f 481/481 672/672 671/671
f 671/671 672/672 198/198
f 671/671 198/198 197/197
f 197/197 198/198 18/18
f 197/197 18/18 17/17
f 17/17 18/18 678/678
f 17/17 678/678 677/677
f 677/677 678/678 200/200
f 677/677 200/200 199/199
f 199/199 200/200 394/394
f 199/199 394/394 393/393
f 393/393 394/394 258/258
f 393/393 258/258 257/257
f 257/257 258/258 716/716
f 257/257 716/716 715/715
f 715/715 716/716 540/540
f 715/715 540/540 539/539
f 539/539 540/540 440/440
f 539/539 440/440 439/439
f 439/439 440/440 242/242
f 439/439 242/242 241/241
f 241/241 242/242 302/302
f 241/241 302/302 301/301
f 301/301 302/302 694/694
f 301/301 694/694 693/693
f 693/693 694/694 272/272
f 693/693 272/272 271/271
f 271/271 272/272 436/436
f 271/271 436/436 435/435
f 435/435 436/436 274/274
f 435/435 274/274 273/273
f 273/273 274/274 692/692
f 273/273 692/692 691/691
f 691/691 692/692 300/300
f 691/691 300/300 299/299
f 299/299 300/300 240/240
f 299/299 240/240 239/239
f 239/239 240/240 442/442
f 239/239 442/442 441/441
f 441/441 442/442 542/542
f 441/441 542/542 541/541
f 541/541 542/542 718/718
f 541/541 718/718 717/717
f 717/717 718/718 256/256
f 717/717 256/256 255/255
f 255/255 256/256 392/392
f 255/255 392/392 391/391
f 391/391 392/392 202/202
f 391/391 202/202 201/201
f 201/201 202/202 676/676
f 201/201 676/676 675/675
f 675/675 676/676 20/20
f 675/675 20/20 19/19
f 19/19 20/20 196/196
f 19/19 196/196 195/195
f 195/195 196/196 674/674
f 195/195 674/674 673/673
f 673/673 674/674 480/480
f 673/673 480/480 479/479
f 479/479 480/480 616/616
f 479/479 616/616 615/615
f 615/615 616/616 162/162
f 615/615 162/162 161/161
f 161/161 162/162 338/338
f 161/161 338/338 337/337
f 337/337 338/338 434/434
f 337/337 434/434 433/433
f 433/433 434/434 632/632
f 433/433 632/632 631/631
f 631/631 632/632 572/572
f 631/631 572/572 571/571
f 571/571 572/572 180/180
f 571/571 180/180 179/179
f 179/179 180/180 602/602
f 179/179 602/602 601/601
f 601/601 602/602 438/438
f 601/601 438/438 437/437