# https://github.com/mikedh/trimesh
mtllib material_0.mtl
usemtl material_0
v 0.00000000 0.00000000 0.00000000
v 0.00000000 0.00000000 0.60000000
v 0.00000000 0.00000000 -0.60000000
v 0.00000000 4.05000000 0.18000000
v 0.00000000 4.05000000 -0.18000000
v 0.00000000 0.75000000 0.00000000
v 0.00000000 0.75000000 0.60000000
v 0.00000000 0.75000000 0.18000000
v 0.00000000 0.75000000 -0.18000000
v 0.00000000 0.75000000 -0.60000000
v -1.68000000 4.05000000 0.00000000
v -1.68000000 0.75000000 0.00000000
v 0.60000000 0.00000000 0.00000000
v 0.60000000 0.75000000 0.00000000
v 1.20000000 0.00000000 0.51961525
v 1.20000000 0.00000000 -0.51961525
v 1.20000000 0.75000000 0.51961525
v 1.20000000 0.75000000 -0.51961525
v 1.80000000 0.00000000 0.51961525
v 1.80000000 0.00000000 -0.51961525
v 1.80000000 0.75000000 0.51961525
v 1.80000000 0.75000000 -0.51961525
v 2.40000000 0.00000000 -0.67500000
v 2.40000000 0.00000000 -1.12500000
v 2.40000000 2.40000000 -0.67500000
v 2.40000000 2.40000000 -1.12500000
v -2.10000000 0.00000000 0.00000000
v -2.10000000 0.00000000 1.05000000
v -2.10000000 0.00000000 0.15000000
v -2.10000000 0.60000000 1.05000000
v -2.10000000 0.60000000 0.15000000
v -2.10000000 0.75000000 0.00000000
v 0.18000000 4.05000000 0.00000000
v 0.18000000 0.75000000 0.00000000
v 1.32000000 4.05000000 0.00000000
v 1.32000000 0.75000000 0.00000000
v -1.50000000 0.00000000 0.00000000
v -1.50000000 0.00000000 0.60000000
v -1.50000000 0.00000000 -0.60000000
v -1.50000000 4.05000000 0.18000000
v -1.50000000 4.05000000 -0.18000000
v -1.50000000 0.75000000 0.00000000
v -1.50000000 0.75000000 0.60000000
v -1.50000000 0.75000000 0.18000000
v -1.50000000 0.75000000 -0.18000000
v -1.50000000 0.75000000 -0.60000000
v -0.90000000 0.00000000 0.00000000
v -0.90000000 0.75000000 0.00000000
v -0.30000000 0.00000000 0.51961525
v -0.30000000 0.00000000 -0.51961525
v -0.30000000 0.75000000 0.51961525
v -0.30000000 0.75000000 -0.51961525
v 0.30000000 0.00000000 0.51961525
v 0.30000000 0.00000000 -0.51961525
v 0.30000000 0.75000000 0.51961525
v 0.30000000 0.75000000 -0.51961525
v 0.90000000 0.00000000 0.00000000
v 0.90000000 0.75000000 0.00000000
v 1.50000000 0.00000000 0.00000000
v 1.50000000 0.00000000 0.60000000
v 1.50000000 0.00000000 -0.60000000
v 1.50000000 4.05000000 0.18000000
v 1.50000000 4.05000000 -0.18000000
v 1.50000000 0.75000000 0.00000000
v 1.50000000 0.75000000 0.60000000
v 1.50000000 0.75000000 0.18000000
v 1.50000000 0.75000000 -0.18000000
v 1.50000000 0.75000000 -0.60000000
v -1.32000000 4.05000000 0.00000000
v -1.32000000 0.75000000 0.00000000
v -0.18000000 4.05000000 0.00000000
v -0.18000000 0.75000000 0.00000000
v 2.10000000 0.00000000 0.00000000
v 2.10000000 0.00000000 1.05000000
v 2.10000000 0.00000000 0.15000000
v 2.10000000 0.60000000 1.05000000
v 2.10000000 0.60000000 0.15000000
v 2.10000000 0.75000000 0.00000000
v -1.80000000 0.00000000 0.51961525
v -1.80000000 0.00000000 -0.51961525
v -1.80000000 0.75000000 0.51961525
v -1.80000000 0.75000000 -0.51961525
v -1.20000000 0.00000000 0.51961525
v -1.20000000 0.00000000 -0.51961525
v -1.20000000 0.75000000 0.51961525
v -1.20000000 0.75000000 -0.51961525
v -0.60000000 0.00000000 0.00000000
v -0.60000000 0.75000000 0.00000000
v 1.68000000 4.05000000 0.00000000
v 1.68000000 0.75000000 0.00000000
v 2.59485572 0.00000000 -1.01250000
v 2.59485572 0.00000000 -0.78750000
v 2.59485572 2.40000000 -1.01250000
v 2.59485572 2.40000000 -0.78750000
v 2.42936840 0.00000000 -0.67692491
v 2.42936840 0.00000000 -1.12307509
v 2.42936840 2.40000000 -0.67692491
v 2.42936840 2.40000000 -1.12307509
v 0.10000264 4.05000000 0.14966453
v 0.10000264 4.05000000 -0.14966453
v 0.10000264 0.75000000 0.14966453
v 0.10000264 0.75000000 -0.14966453
v -1.39999736 4.05000000 0.14966453
v -1.39999736 4.05000000 -0.14966453
v -1.39999736 0.75000000 0.14966453
v -1.39999736 0.75000000 -0.14966453
v 1.60000264 4.05000000 0.14966453
v 1.60000264 4.05000000 -0.14966453
v 1.60000264 0.75000000 0.14966453
v 1.60000264 0.75000000 -0.14966453
v -0.17654135 4.05000000 -0.03511626
v -0.17654135 4.05000000 0.03511626
v -0.17654135 0.75000000 -0.03511626
v -0.17654135 0.75000000 0.03511626
v -1.67654135 4.05000000 -0.03511626
v -1.67654135 4.05000000 0.03511626
v -1.67654135 0.75000000 -0.03511626
v -1.67654135 0.75000000 0.03511626
v 1.32345865 4.05000000 -0.03511626
v 1.32345865 4.05000000 0.03511626
v 1.32345865 0.75000000 -0.03511626
v 1.32345865 0.75000000 0.03511626
v -0.36525686 0.00000000 0.47601201
v -0.36525686 0.00000000 -0.47601201
v -0.36525686 0.75000000 0.47601201
v -0.36525686 0.75000000 -0.47601201
v -1.86525686 0.00000000 0.47601201
v -1.86525686 0.00000000 -0.47601201
v -1.86525686 0.75000000 0.47601201
v -1.86525686 0.75000000 -0.47601201
v 1.13474314 0.00000000 0.47601201
v 1.13474314 0.00000000 -0.47601201
v 1.13474314 0.75000000 0.47601201
v 1.13474314 0.75000000 -0.47601201
v 1.37272078 4.05000000 -0.12727922
v 1.37272078 4.05000000 0.12727922
v 1.37272078 0.75000000 -0.12727922
v 1.37272078 0.75000000 0.12727922
v -0.12727922 4.05000000 -0.12727922
v -0.12727922 4.05000000 0.12727922
v -0.12727922 0.75000000 -0.12727922
v -0.12727922 0.75000000 0.12727922
v -1.62727922 4.05000000 -0.12727922
v -1.62727922 4.05000000 0.12727922
v -1.62727922 0.75000000 -0.12727922
v -1.62727922 0.75000000 0.12727922
v 2.55909903 0.00000000 -0.74090097
v 2.55909903 0.00000000 -1.05909903
v 2.55909903 2.40000000 -0.74090097
v 2.55909903 2.40000000 -1.05909903
v -1.56888302 4.05000000 -0.16629832
v -1.56888302 4.05000000 0.16629832
v -1.56888302 0.75000000 -0.16629832
v -1.56888302 0.75000000 0.16629832
v -0.22961006 0.00000000 -0.55432772
v -0.22961006 0.00000000 0.55432772
v -0.22961006 0.75000000 -0.55432772
v -0.22961006 0.75000000 0.55432772
v 1.43111698 4.05000000 -0.16629832
v 1.43111698 4.05000000 0.16629832
v 1.43111698 0.75000000 -0.16629832
v 1.43111698 0.75000000 0.16629832
v -1.72961006 0.00000000 -0.55432772
v -1.72961006 0.00000000 0.55432772
v -1.72961006 0.75000000 -0.55432772
v -1.72961006 0.75000000 0.55432772
v -0.06888302 4.05000000 -0.16629832
v -0.06888302 4.05000000 0.16629832
v -0.06888302 0.75000000 -0.16629832
v -0.06888302 0.75000000 0.16629832
v 1.27038994 0.00000000 -0.55432772
v 1.27038994 0.00000000 0.55432772
v 1.27038994 0.75000000 -0.55432772
v 1.27038994 0.75000000 0.55432772
v -0.17913325 4.05000000 -0.01764308
v -0.17913325 4.05000000 0.01764308
v -0.17913325 0.75000000 -0.01764308
v -0.17913325 0.75000000 0.01764308
v -1.67913325 4.05000000 -0.01764308
v -1.67913325 4.05000000 0.01764308
v -1.67913325 0.75000000 -0.01764308
v -1.67913325 0.75000000 0.01764308
v 1.32086675 4.05000000 -0.01764308
v 1.32086675 4.05000000 0.01764308
v 1.32086675 0.75000000 -0.01764308
v 1.32086675 0.75000000 0.01764308
v 0.07831571 0.00000000 -0.59486691
v 0.07831571 0.00000000 0.59486691
v 0.07831571 0.75000000 -0.59486691
v 0.07831571 0.75000000 0.59486691
v -1.42168428 0.00000000 -0.59486691
v -1.42168428 0.00000000 0.59486691
v -1.42168428 0.75000000 -0.59486691
v -1.42168428 0.75000000 0.59486691
v 1.57831572 0.00000000 -0.59486691
v 1.57831572 0.00000000 0.59486691
v 1.57831572 0.75000000 -0.59486691
v 1.57831572 0.75000000 0.59486691
v 2.26302868 0.00000000 -1.07850450
v 2.26302868 0.00000000 -0.72149550
v 2.26302868 2.40000000 -1.07850450
v 2.26302868 2.40000000 -0.72149550
v -1.41514859 4.05000000 0.15874583
v -1.41514859 4.05000000 -0.15874583
v -1.41514859 0.75000000 0.15874583
v -1.41514859 0.75000000 -0.15874583
v 1.58485141 4.05000000 0.15874583
v 1.58485141 4.05000000 -0.15874583
v 1.58485141 0.75000000 0.15874583
v 1.58485141 0.75000000 -0.15874583
v 0.08485141 4.05000000 0.15874583
v 0.08485141 4.05000000 -0.15874583
v 0.08485141 0.75000000 0.15874583
v 0.08485141 0.75000000 -0.15874583
v 1.65874583 4.05000000 0.08485141
v 1.65874583 4.05000000 -0.08485141
v 1.65874583 0.75000000 0.08485141
v 1.65874583 0.75000000 -0.08485141
v 0.15874583 4.05000000 0.08485141
v 0.15874583 4.05000000 -0.08485141
v 0.15874583 0.75000000 0.08485141
v 0.15874583 0.75000000 -0.08485141
v -1.34125417 4.05000000 0.08485141
v -1.34125417 4.05000000 -0.08485141
v -1.34125417 0.75000000 0.08485141
v -1.34125417 0.75000000 -0.08485141
v 0.90513308 0.00000000 0.07831571
v 0.90513308 0.00000000 -0.07831571
v 0.90513308 0.75000000 0.07831571
v 0.90513308 0.75000000 -0.07831571
v -0.59486691 0.00000000 0.07831571
v -0.59486691 0.00000000 -0.07831571
v -0.59486691 0.75000000 0.07831571
v -0.59486691 0.75000000 -0.07831571
v -2.09486691 0.00000000 0.07831571
v -2.09486691 0.00000000 -0.07831571
v -2.09486691 0.75000000 0.07831571
v -2.09486691 0.75000000 -0.07831571
v 2.62500000 0.00000000 -0.90000000
v 2.62500000 2.40000000 -0.90000000
v -0.17224926 4.05000000 0.05225124
v -0.17224926 4.05000000 -0.05225124
v -0.17224926 0.75000000 0.05225124
v -0.17224926 0.75000000 -0.05225124
v -1.67224926 4.05000000 0.05225124
v -1.67224926 4.05000000 -0.05225124
v -1.67224926 0.75000000 0.05225124
v -1.67224926 0.75000000 -0.05225124
v 1.32775074 4.05000000 0.05225124
v 1.32775074 4.05000000 -0.05225124
v 1.32775074 0.75000000 0.05225124
v 1.32775074 0.75000000 -0.05225124
v -0.57955550 0.00000000 0.15529143
v -0.57955550 0.00000000 -0.15529143
v -0.57955550 0.75000000 0.15529143
v -0.57955550 0.75000000 -0.15529143
v -2.07955550 0.00000000 0.15529143
v -2.07955550 0.00000000 -0.15529143
v -2.07955550 0.75000000 0.15529143
v -2.07955550 0.75000000 -0.15529143
v 0.92044450 0.00000000 0.15529143
v 0.92044450 0.00000000 -0.15529143
v 0.92044450 0.75000000 0.15529143
v 0.92044450 0.75000000 -0.15529143
v 1.55225124 4.05000000 -0.17224926
v 1.55225124 4.05000000 0.17224926
v 1.55225124 0.75000000 -0.17224926
v 1.55225124 0.75000000 0.17224926
v 0.05225124 4.05000000 -0.17224926
v 0.05225124 4.05000000 0.17224926
v 0.05225124 0.75000000 -0.17224926
v 0.05225124 0.75000000 0.17224926
v -1.44774876 4.05000000 -0.17224926
v -1.44774876 4.05000000 0.17224926
v -1.44774876 0.75000000 -0.17224926
v -1.44774876 0.75000000 0.17224926
v 2.19212710 0.00000000 -0.98610377
v 2.19212710 0.00000000 -0.81389623
v 2.19212710 2.40000000 -0.98610377
v 2.19212710 2.40000000 -0.81389623
v -1.07573593 0.00000000 0.42426407
v -1.07573593 0.00000000 -0.42426407
v -1.07573593 0.75000000 0.42426407
v -1.07573593 0.75000000 -0.42426407
v 1.92426407 0.00000000 0.42426407
v 1.92426407 0.00000000 -0.42426407
v 1.92426407 0.75000000 0.42426407
v 1.92426407 0.75000000 -0.42426407
v 0.42426407 0.00000000 0.42426407
v 0.42426407 0.00000000 -0.42426407
v 0.42426407 0.75000000 0.42426407
v 0.42426407 0.75000000 -0.42426407
v -0.01764308 4.05000000 -0.17913325
v -0.01764308 4.05000000 0.17913325
v -0.01764308 0.75000000 -0.17913325
v -0.01764308 0.75000000 0.17913325
v -1.51764309 4.05000000 -0.17913325
v -1.51764309 4.05000000 0.17913325
v -1.51764309 0.75000000 -0.17913325
v -1.51764309 0.75000000 0.17913325
v 1.48235691 4.05000000 -0.17913325
v 1.48235691 4.05000000 0.17913325
v 1.48235691 0.75000000 -0.17913325
v 1.48235691 0.75000000 0.17913325
v 2.18266669 0.00000000 -0.95823428
v 2.18266669 0.00000000 -0.84176571
v 2.18266669 2.40000000 -0.95823428
v 2.18266669 2.40000000 -0.84176571
v 2.22149550 0.00000000 -1.03697132
v 2.22149550 0.00000000 -0.76302868
v 2.22149550 2.40000000 -1.03697132
v 2.22149550 2.40000000 -0.76302868
v 2.28750000 0.00000000 -0.70514429
v 2.28750000 0.00000000 -1.09485572
v 2.28750000 2.40000000 -0.70514429
v 2.28750000 2.40000000 -1.09485572
v -1.02398799 0.00000000 -0.36525686
v -1.02398799 0.00000000 0.36525686
v -1.02398799 0.75000000 -0.36525686
v -1.02398799 0.75000000 0.36525686
v 1.97601201 0.00000000 -0.36525686
v 1.97601201 0.00000000 0.36525686
v 1.97601201 0.75000000 -0.36525686
v 1.97601201 0.75000000 0.36525686
v 0.47601201 0.00000000 -0.36525686
v 0.47601201 0.00000000 0.36525686
v 0.47601201 0.75000000 -0.36525686
v 0.47601201 0.75000000 0.36525686
v 1.36085812 4.05000000 -0.11419079
v 1.36085812 4.05000000 0.11419079
v 1.36085812 0.75000000 -0.11419079
v 1.36085812 0.75000000 0.11419079
v -0.13914188 4.05000000 -0.11419079
v -0.13914188 4.05000000 0.11419079
v -0.13914188 0.75000000 -0.11419079
v -0.13914188 0.75000000 0.11419079
v -1.63914188 4.05000000 -0.11419079
v -1.63914188 4.05000000 0.11419079
v -1.63914188 0.75000000 -0.11419079
v -1.63914188 0.75000000 0.11419079
v -0.98038475 0.00000000 -0.30000000
v -0.98038475 0.00000000 0.30000000
v -0.98038475 0.75000000 -0.30000000
v -0.98038475 0.75000000 0.30000000
v 2.01961524 0.00000000 -0.30000000
v 2.01961524 0.00000000 0.30000000
v 2.01961524 0.75000000 -0.30000000
v 2.01961524 0.75000000 0.30000000
v 0.51961525 0.00000000 -0.30000000
v 0.51961525 0.00000000 0.30000000
v 0.51961525 0.75000000 -0.30000000
v 0.51961525 0.75000000 0.30000000
v -1.35033547 4.05000000 0.10000264
v -1.35033547 4.05000000 -0.10000264
v -1.35033547 0.75000000 0.10000264
v -1.35033547 0.75000000 -0.10000264
v 1.64966453 4.05000000 0.10000264
v 1.64966453 4.05000000 -0.10000264
v 1.64966453 0.75000000 0.10000264
v 1.64966453 0.75000000 -0.10000264
v 0.14966453 4.05000000 0.10000264
v 0.14966453 4.05000000 -0.10000264
v 0.14966453 0.75000000 0.10000264
v 0.14966453 0.75000000 -0.10000264
v 2.62307509 0.00000000 -0.87063161
v 2.62307509 0.00000000 -0.92936840
v 2.62307509 2.40000000 -0.87063161
v 2.62307509 2.40000000 -0.92936840
v -1.53511626 4.05000000 -0.17654135
v -1.53511626 4.05000000 0.17654135
v -1.53511626 0.75000000 -0.17654135
v -1.53511626 0.75000000 0.17654135
v 1.46488374 4.05000000 -0.17654135
v 1.46488374 4.05000000 0.17654135
v 1.46488374 0.75000000 -0.17654135
v 1.46488374 0.75000000 0.17654135
v -0.03511626 4.05000000 -0.17654135
v -0.03511626 4.05000000 0.17654135
v -0.03511626 0.75000000 -0.17654135
v -0.03511626 0.75000000 0.17654135
v -1.34470858 0.00000000 -0.57955550
v -1.34470858 0.00000000 0.57955550
v -1.34470858 0.75000000 -0.57955550
v -1.34470858 0.75000000 0.57955550
v 2.31389623 0.00000000 -1.10787290
v 2.31389623 0.00000000 -0.69212710
v 2.31389623 2.40000000 -1.10787290
v 2.31389623 2.40000000 -0.69212710
v 1.65529142 0.00000000 -0.57955550
v 1.65529142 0.00000000 0.57955550
v 1.65529142 0.75000000 -0.57955550
v 1.65529142 0.75000000 0.57955550
v 0.15529143 0.00000000 -0.57955550
v 0.15529143 0.00000000 0.57955550
v 0.15529143 0.75000000 -0.57955550
v 0.15529143 0.75000000 0.57955550
v 1.33370169 4.05000000 -0.06888302
v 1.33370169 4.05000000 0.06888302
v 1.33370169 0.75000000 -0.06888302
v 1.33370169 0.75000000 0.06888302
v -0.16629832 4.05000000 -0.06888302
v -0.16629832 4.05000000 0.06888302
v -0.16629832 0.75000000 -0.06888302
v -0.16629832 0.75000000 0.06888302
v -1.66629831 4.05000000 -0.06888302
v -1.66629831 4.05000000 0.06888302
v -1.66629831 0.75000000 -0.06888302
v -1.66629831 0.75000000 0.06888302
v 1.38580921 4.05000000 -0.13914188
v 1.38580921 4.05000000 0.13914188
v 1.38580921 0.75000000 -0.13914188
v 1.38580921 0.75000000 0.13914188
v -0.11419079 4.05000000 -0.13914188
v -0.11419079 4.05000000 0.13914188
v -0.11419079 0.75000000 -0.13914188
v -0.11419079 0.75000000 0.13914188
v -1.61419079 4.05000000 -0.13914188
v -1.61419079 4.05000000 0.13914188
v -1.61419079 0.75000000 -0.13914188
v -1.61419079 0.75000000 0.13914188
v 2.34176572 0.00000000 -1.11733331
v 2.34176572 0.00000000 -0.68266669
v 2.34176572 2.40000000 -1.11733331
v 2.34176572 2.40000000 -0.68266669
v -0.55432772 0.00000000 -0.22961006
v -0.55432772 0.00000000 0.22961006
v -0.55432772 0.75000000 -0.22961006
v -0.55432772 0.75000000 0.22961006
v -2.05432772 0.00000000 -0.22961006
v -2.05432772 0.00000000 0.22961006
v -2.05432772 0.75000000 -0.22961006
v -2.05432772 0.75000000 0.22961006
v 0.94567228 0.00000000 -0.22961006
v 0.94567228 0.00000000 0.22961006
v 0.94567228 0.75000000 -0.22961006
v 0.94567228 0.75000000 0.22961006
v -0.94567228 0.00000000 -0.22961006
v -0.94567228 0.00000000 0.22961006
v -0.94567228 0.75000000 -0.22961006
v -0.94567228 0.75000000 0.22961006
v 2.05432772 0.00000000 -0.22961006
v 2.05432772 0.00000000 0.22961006
v 2.05432772 0.75000000 -0.22961006
v 2.05432772 0.75000000 0.22961006
v 0.55432772 0.00000000 -0.22961006
v 0.55432772 0.00000000 0.22961006
v 0.55432772 0.75000000 -0.22961006
v 0.55432772 0.75000000 0.22961006
v 2.45823429 0.00000000 -1.11733331
v 2.45823429 0.00000000 -0.68266669
v 2.45823429 2.40000000 -1.11733331
v 2.45823429 2.40000000 -0.68266669
v 1.61419079 4.05000000 -0.13914188
v 1.61419079 4.05000000 0.13914188
v 1.61419079 0.75000000 -0.13914188
v 1.61419079 0.75000000 0.13914188
v 0.11419079 4.05000000 -0.13914188
v 0.11419079 4.05000000 0.13914188
v 0.11419079 0.75000000 -0.13914188
v 0.11419079 0.75000000 0.13914188
v -1.38580921 4.05000000 -0.13914188
v -1.38580921 4.05000000 0.13914188
v -1.38580921 0.75000000 -0.13914188
v -1.38580921 0.75000000 0.13914188
v 1.66629831 4.05000000 -0.06888302
v 1.66629831 4.05000000 0.06888302
v 1.66629831 0.75000000 -0.06888302
v 1.66629831 0.75000000 0.06888302
v 0.16629832 4.05000000 -0.06888302
v 0.16629832 4.05000000 0.06888302
v 0.16629832 0.75000000 -0.06888302
v 0.16629832 0.75000000 0.06888302
v -1.33370169 4.05000000 -0.06888302
v -1.33370169 4.05000000 0.06888302
v -1.33370169 0.75000000 -0.06888302
v -1.33370169 0.75000000 0.06888302
v 2.48610377 0.00000000 -1.10787290
v 2.48610377 0.00000000 -0.69212710
v 2.48610377 2.40000000 -1.10787290
v 2.48610377 2.40000000 -0.69212710
v -0.15529143 0.00000000 -0.57955550
v -0.15529143 0.00000000 0.57955550
v -0.15529143 0.75000000 -0.57955550
v -0.15529143 0.75000000 0.57955550
v -1.65529142 0.00000000 -0.57955550
v -1.65529142 0.00000000 0.57955550
v -1.65529142 0.75000000 -0.57955550
v -1.65529142 0.75000000 0.57955550
v 1.34470858 0.00000000 -0.57955550
v 1.34470858 0.00000000 0.57955550
v 1.34470858 0.75000000 -0.57955550
v 1.34470858 0.75000000 0.57955550
v 0.03511626 4.05000000 -0.17654135
v 0.03511626 4.05000000 0.17654135
v 0.03511626 0.75000000 -0.17654135
v 0.03511626 0.75000000 0.17654135
v -1.46488374 4.05000000 -0.17654135
v -1.46488374 4.05000000 0.17654135
v -1.46488374 0.75000000 -0.17654135
v -1.46488374 0.75000000 0.17654135
v 1.53511626 4.05000000 -0.17654135
v 1.53511626 4.05000000 0.17654135
v 1.53511626 0.75000000 -0.17654135
v 1.53511626 0.75000000 0.17654135
v 2.17692490 0.00000000 -0.87063161
v 2.17692490 0.00000000 -0.92936840
v 2.17692490 2.40000000 -0.87063161
v 2.17692490 2.40000000 -0.92936840
v -0.14966453 4.05000000 0.10000264
v -0.14966453 4.05000000 -0.10000264
v -0.14966453 0.75000000 0.10000264
v -0.14966453 0.75000000 -0.10000264
v -1.64966453 4.05000000 0.10000264
v -1.64966453 4.05000000 -0.10000264
v -1.64966453 0.75000000 0.10000264
v -1.64966453 0.75000000 -0.10000264
v 1.35033547 4.05000000 0.10000264
v 1.35033547 4.05000000 -0.10000264
v 1.35033547 0.75000000 0.10000264
v 1.35033547 0.75000000 -0.10000264
v -0.51961525 0.00000000 -0.30000000
v -0.51961525 0.00000000 0.30000000
v -0.51961525 0.75000000 -0.30000000
v -0.51961525 0.75000000 0.30000000
v -2.01961524 0.00000000 -0.30000000
v -2.01961524 0.00000000 0.30000000
v -2.01961524 0.75000000 -0.30000000
v -2.01961524 0.75000000 0.30000000
v 0.98038475 0.00000000 -0.30000000
v 0.98038475 0.00000000 0.30000000
v 0.98038475 0.75000000 -0.30000000
v 0.98038475 0.75000000 0.30000000
v 1.63914188 4.05000000 -0.11419079
v 1.63914188 4.05000000 0.11419079
v 1.63914188 0.75000000 -0.11419079
v 1.63914188 0.75000000 0.11419079
v 0.13914188 4.05000000 -0.11419079
v 0.13914188 4.05000000 0.11419079
v 0.13914188 0.75000000 -0.11419079
v 0.13914188 0.75000000 0.11419079
v -1.36085812 4.05000000 -0.11419079
v -1.36085812 4.05000000 0.11419079
v -1.36085812 0.75000000 -0.11419079
v -1.36085812 0.75000000 0.11419079
v -0.47601201 0.00000000 -0.36525686
v -0.47601201 0.00000000 0.36525686
v -0.47601201 0.75000000 -0.36525686
v -0.47601201 0.75000000 0.36525686
v -1.97601201 0.00000000 -0.36525686
v -1.97601201 0.00000000 0.36525686
v -1.97601201 0.75000000 -0.36525686
v -1.97601201 0.75000000 0.36525686
v 1.02398799 0.00000000 -0.36525686
v 1.02398799 0.00000000 0.36525686
v 1.02398799 0.75000000 -0.36525686
v 1.02398799 0.75000000 0.36525686
v 2.51250000 0.00000000 -0.70514429
v 2.51250000 0.00000000 -1.09485572
v 2.51250000 2.40000000 -0.70514429
v 2.51250000 2.40000000 -1.09485572
v 2.57850450 0.00000000 -1.03697132
v 2.57850450 0.00000000 -0.76302868
v 2.57850450 2.40000000 -1.03697132
v 2.57850450 2.40000000 -0.76302868
v 2.61733331 0.00000000 -0.95823428
v 2.61733331 0.00000000 -0.84176571
v 2.61733331 2.40000000 -0.95823428
v 2.61733331 2.40000000 -0.84176571
v -1.48235691 4.05000000 -0.17913325
v -1.48235691 4.05000000 0.17913325
v -1.48235691 0.75000000 -0.17913325
v -1.48235691 0.75000000 0.17913325
v 1.51764309 4.05000000 -0.17913325
v 1.51764309 4.05000000 0.17913325
v 1.51764309 0.75000000 -0.17913325
v 1.51764309 0.75000000 0.17913325
v 0.01764308 4.05000000 -0.17913325
v 0.01764308 4.05000000 0.17913325
v 0.01764308 0.75000000 -0.17913325
v 0.01764308 0.75000000 0.17913325
v -0.42426407 0.00000000 0.42426407
v -0.42426407 0.00000000 -0.42426407
v -0.42426407 0.75000000 0.42426407
v -0.42426407 0.75000000 -0.42426407
v -1.92426407 0.00000000 0.42426407
v -1.92426407 0.00000000 -0.42426407
v -1.92426407 0.75000000 0.42426407
v -1.92426407 0.75000000 -0.42426407
v 1.07573593 0.00000000 0.42426407
v 1.07573593 0.00000000 -0.42426407
v 1.07573593 0.75000000 0.42426407
v 1.07573593 0.75000000 -0.42426407
v 2.60787289 0.00000000 -0.98610377
v 2.60787289 0.00000000 -0.81389623
v 2.60787289 2.40000000 -0.98610377
v 2.60787289 2.40000000 -0.81389623
v 1.44774876 4.05000000 -0.17224926
v 1.44774876 4.05000000 0.17224926
v 1.44774876 0.75000000 -0.17224926
v 1.44774876 0.75000000 0.17224926
v -0.05225124 4.05000000 -0.17224926
v -0.05225124 4.05000000 0.17224926
v -0.05225124 0.75000000 -0.17224926
v -0.05225124 0.75000000 0.17224926
v -1.55225124 4.05000000 -0.17224926
v -1.55225124 4.05000000 0.17224926
v -1.55225124 0.75000000 -0.17224926
v -1.55225124 0.75000000 0.17224926
v -0.92044450 0.00000000 0.15529143
v -0.92044450 0.00000000 -0.15529143
v -0.92044450 0.75000000 0.15529143
v -0.92044450 0.75000000 -0.15529143
v 2.07955550 0.00000000 0.15529143
v 2.07955550 0.00000000 -0.15529143
v 2.07955550 0.75000000 0.15529143
v 2.07955550 0.75000000 -0.15529143
v 0.57955550 0.00000000 0.15529143
v 0.57955550 0.00000000 -0.15529143
v 0.57955550 0.75000000 0.15529143
v 0.57955550 0.75000000 -0.15529143
v -1.32775074 4.05000000 0.05225124
v -1.32775074 4.05000000 -0.05225124
v -1.32775074 0.75000000 0.05225124
v -1.32775074 0.75000000 -0.05225124
v 1.67224926 4.05000000 0.05225124
v 1.67224926 4.05000000 -0.05225124
v 1.67224926 0.75000000 0.05225124
v 1.67224926 0.75000000 -0.05225124
v 0.17224926 4.05000000 0.05225124
v 0.17224926 4.05000000 -0.05225124
v 0.17224926 0.75000000 0.05225124
v 0.17224926 0.75000000 -0.05225124
v 2.17500000 0.00000000 -0.90000000
v 2.17500000 2.40000000 -0.90000000
v 2.09486691 0.00000000 0.07831571
v 2.09486691 0.00000000 -0.07831571
v 2.09486691 0.75000000 0.07831571
v 2.09486691 0.75000000 -0.07831571
v 0.59486691 0.00000000 0.07831571
v 0.59486691 0.00000000 -0.07831571
v 0.59486691 0.75000000 0.07831571
v 0.59486691 0.75000000 -0.07831571
v -0.90513308 0.00000000 0.07831571
v -0.90513308 0.00000000 -0.07831571
v -0.90513308 0.75000000 0.07831571
v -0.90513308 0.75000000 -0.07831571
v 1.34125417 4.05000000 0.08485141
v 1.34125417 4.05000000 -0.08485141
v 1.34125417 0.75000000 0.08485141
v 1.34125417 0.75000000 -0.08485141
v -0.15874583 4.05000000 0.08485141
v -0.15874583 4.05000000 -0.08485141
v -0.15874583 0.75000000 0.08485141
v -0.15874583 0.75000000 -0.08485141
v -1.65874583 4.05000000 0.08485141
v -1.65874583 4.05000000 -0.08485141
v -1.65874583 0.75000000 0.08485141
v -1.65874583 0.75000000 -0.08485141
v -0.08485141 4.05000000 0.15874583
v -0.08485141 4.05000000 -0.15874583
v -0.08485141 0.75000000 0.15874583
v -0.08485141 0.75000000 -0.15874583
v -1.58485141 4.05000000 0.15874583
v -1.58485141 4.05000000 -0.15874583
v -1.58485141 0.75000000 0.15874583
v -1.58485141 0.75000000 -0.15874583
v 1.41514859 4.05000000 0.15874583
v 1.41514859 4.05000000 -0.15874583
v 1.41514859 0.75000000 0.15874583
v 1.41514859 0.75000000 -0.15874583
v 2.53697132 0.00000000 -1.07850450
v 2.53697132 0.00000000 -0.72149550
v 2.53697132 2.40000000 -1.07850450
v 2.53697132 2.40000000 -0.72149550
v -1.57831572 0.00000000 -0.59486691
v -1.57831572 0.00000000 0.59486691
v -1.57831572 0.75000000 -0.59486691
v -1.57831572 0.75000000 0.59486691
v 1.42168428 0.00000000 -0.59486691
v 1.42168428 0.00000000 0.59486691
v 1.42168428 0.75000000 -0.59486691
v 1.42168428 0.75000000 0.59486691
v -0.07831571 0.00000000 -0.59486691
v -0.07831571 0.00000000 0.59486691
v -0.07831571 0.75000000 -0.59486691
v -0.07831571 0.75000000 0.59486691
v -1.32086675 4.05000000 -0.01764308
v -1.32086675 4.05000000 0.01764308
v -1.32086675 0.75000000 -0.01764308
v -1.32086675 0.75000000 0.01764308
v 1.67913325 4.05000000 -0.01764308
v 1.67913325 4.05000000 0.01764308
v 1.67913325 0.75000000 -0.01764308
v 1.67913325 0.75000000 0.01764308
v 0.17913325 4.05000000 -0.01764308
v 0.17913325 4.05000000 0.01764308
v 0.17913325 0.75000000 -0.01764308
v 0.17913325 0.75000000 0.01764308
v -1.27038994 0.00000000 -0.55432772
v -1.27038994 0.00000000 0.55432772
v -1.27038994 0.75000000 -0.55432772
v -1.27038994 0.75000000 0.55432772
v 0.06888302 4.05000000 -0.16629832
v 0.06888302 4.05000000 0.16629832
v 0.06888302 0.75000000 -0.16629832
v 0.06888302 0.75000000 0.16629832
v 1.72961006 0.00000000 -0.55432772
v 1.72961006 0.00000000 0.55432772
v 1.72961006 0.75000000 -0.55432772
v 1.72961006 0.75000000 0.55432772
v -1.43111698 4.05000000 -0.16629832
v -1.43111698 4.05000000 0.16629832
v -1.43111698 0.75000000 -0.16629832
v -1.43111698 0.75000000 0.16629832
v 0.22961006 0.00000000 -0.55432772
v 0.22961006 0.00000000 0.55432772
v 0.22961006 0.75000000 -0.55432772
v 0.22961006 0.75000000 0.55432772
v 1.56888302 4.05000000 -0.16629832
v 1.56888302 4.05000000 0.16629832
v 1.56888302 0.75000000 -0.16629832
v 1.56888302 0.75000000 0.16629832
v 2.24090098 0.00000000 -0.74090097
v 2.24090098 0.00000000 -1.05909903
v 2.24090098 2.40000000 -0.74090097
v 2.24090098 2.40000000 -1.05909903
v 1.62727922 4.05000000 -0.12727922
v 1.62727922 4.05000000 0.12727922
v 1.62727922 0.75000000 -0.12727922
v 1.62727922 0.75000000 0.12727922
v 0.12727922 4.05000000 -0.12727922
v 0.12727922 4.05000000 0.12727922
v 0.12727922 0.75000000 -0.12727922
v 0.12727922 0.75000000 0.12727922
v -1.37272078 4.05000000 -0.12727922
v -1.37272078 4.05000000 0.12727922
v -1.37272078 0.75000000 -0.12727922
v -1.37272078 0.75000000 0.12727922
v -1.13474314 0.00000000 0.47601201
v -1.13474314 0.00000000 -0.47601201
v -1.13474314 0.75000000 0.47601201
v -1.13474314 0.75000000 -0.47601201
v 1.86525686 0.00000000 0.47601201
v 1.86525686 0.00000000 -0.47601201
v 1.86525686 0.75000000 0.47601201
v 1.86525686 0.75000000 -0.47601201
v 0.36525686 0.00000000 0.47601201
v 0.36525686 0.00000000 -0.47601201
v 0.36525686 0.75000000 0.47601201
v 0.36525686 0.75000000 -0.47601201
v -1.32345865 4.05000000 -0.03511626
v -1.32345865 4.05000000 0.03511626
v -1.32345865 0.75000000 -0.03511626
v -1.32345865 0.75000000 0.03511626
v 1.67654135 4.05000000 -0.03511626
v 1.67654135 4.05000000 0.03511626
v 1.67654135 0.75000000 -0.03511626
v 1.67654135 0.75000000 0.03511626
v 0.17654135 4.05000000 -0.03511626
v 0.17654135 4.05000000 0.03511626
v 0.17654135 0.75000000 -0.03511626
v 0.17654135 0.75000000 0.03511626
v -1.60000264 4.05000000 0.14966453
v -1.60000264 4.05000000 -0.14966453
v -1.60000264 0.75000000 0.14966453
v -1.60000264 0.75000000 -0.14966453
v 1.39999736 4.05000000 0.14966453
v 1.39999736 4.05000000 -0.14966453
v 1.39999736 0.75000000 0.14966453
v 1.39999736 0.75000000 -0.14966453
v -0.10000264 4.05000000 0.14966453
v -0.10000264 4.05000000 -0.14966453
v -0.10000264 0.75000000 0.14966453
v -0.10000264 0.75000000 -0.14966453
v 2.37063160 0.00000000 -0.67692491
v 2.37063160 0.00000000 -1.12307509
v 2.37063160 2.40000000 -0.67692491
v 2.37063160 2.40000000 -1.12307509
v 2.20514428 0.00000000 -1.01250000
v 2.20514428 0.00000000 -0.78750000
v 2.20514428 2.40000000 -1.01250000
v 2.20514428 2.40000000 -0.78750000
vt 0.00000000 1.00000000
vt 0.18750000 1.00000000
vt 0.06250000 1.00000000
vt 0.43750000 0.00000000
vt 0.31250000 0.00000000
vt 0.00000000 0.00000000
vt 0.18750000 0.00000000
vt 0.43750000 1.00000000
vt 0.31250000 1.00000000
vt 0.06250000 0.00000000
vt 0.37500000 0.00000000
vt 0.37500000 1.00000000
vt 0.00000000 1.00000000
vt 0.00000000 0.00000000
vt 0.23374082 1.00000000
vt 0.01625918 1.00000000
vt 0.23374082 0.00000000
vt 0.01625918 0.00000000
vt 0.23881798 1.00000000
vt 0.01118202 1.00000000
vt 0.23881798 0.00000000
vt 0.01118202 0.00000000
vt 0.26090878 1.00000000
vt 0.26744086 1.00000000
vt 0.26090878 0.00000000
vt 0.26744086 0.00000000
vt 0.12500000 1.00000000
vt 0.00000000 1.00000000
vt 0.00000000 1.00000000
vt 0.00000000 0.00000000
vt 0.00000000 0.00000000
vt 0.12500000 0.00000000
vt 0.25000000 0.00000000
vt 0.25000000 1.00000000
vt 0.25000000 0.00000000
vt 0.25000000 1.00000000
vt 0.12500000 1.00000000
vt 0.14013987 1.00000000
vt 0.10986013 1.00000000
vt 0.37975193 0.00000000
vt 0.37024807 0.00000000
vt 0.12500000 0.00000000
vt 0.14013987 0.00000000
vt 0.37975193 1.00000000
vt 0.37024807 1.00000000
vt 0.10986013 0.00000000
vt 0.12500000 1.00000000
vt 0.12500000 0.00000000
vt 0.16666667 1.00000000
vt 0.08333333 1.00000000
vt 0.16666667 0.00000000
vt 0.08333333 0.00000000
vt 0.20833333 1.00000000
vt 0.04166667 1.00000000
vt 0.20833333 0.00000000
vt 0.04166667 0.00000000
vt 0.00000000 1.00000000
vt 0.00000000 0.00000000
vt 0.00000000 1.00000000
vt 0.23486013 1.00000000
vt 0.01513987 1.00000000
vt 0.49524807 0.00000000
vt 0.25475193 0.00000000
vt 0.00000000 0.00000000
vt 0.23486013 0.00000000
vt 0.49524807 1.00000000
vt 0.25475193 1.00000000
vt 0.01513987 0.00000000
vt 0.37500000 0.00000000
vt 0.37500000 1.00000000
vt 0.37500000 0.00000000
vt 0.37500000 1.00000000
vt 0.00000000 1.00000000
vt 0.25000000 1.00000000
vt 0.25000000 1.00000000
vt 0.25000000 0.00000000
vt 0.25000000 0.00000000
vt 0.00000000 0.00000000
vt 0.13618202 1.00000000
vt 0.11381798 1.00000000
vt 0.13618202 0.00000000
vt 0.11381798 0.00000000
vt 0.14125918 1.00000000
vt 0.10874082 1.00000000
vt 0.14125918 0.00000000
vt 0.10874082 0.00000000
vt 0.12500000 1.00000000
vt 0.12500000 0.00000000
vt 0.25000000 0.00000000
vt 0.25000000 1.00000000
vt 0.26480242 1.00000000
vt 0.26172379 1.00000000
vt 0.26480242 0.00000000
vt 0.26172379 0.00000000
vt 0.26081256 1.00000000
vt 0.26722964 1.00000000
vt 0.26081256 0.00000000
vt 0.26722964 0.00000000
vt 0.46093750 0.00000000
vt 0.28906250 0.00000000
vt 0.46093750 1.00000000
vt 0.28906250 1.00000000
vt 0.37923746 0.00000000
vt 0.37076254 0.00000000
vt 0.37923746 1.00000000
vt 0.37076254 1.00000000
vt 0.49628895 0.00000000
vt 0.25371105 0.00000000
vt 0.49628895 1.00000000
vt 0.25371105 1.00000000
vt 0.36718750 0.00000000
vt 0.38281250 0.00000000
vt 0.36718750 1.00000000
vt 0.38281250 1.00000000
vt 0.37416672 0.00000000
vt 0.37583328 0.00000000
vt 0.37416672 1.00000000
vt 0.37583328 1.00000000
vt 0.25105549 0.00000000
vt 0.49894451 0.00000000
vt 0.25105549 1.00000000
vt 0.49894451 1.00000000
vt 0.16145833 1.00000000
vt 0.08854167 1.00000000
vt 0.16145833 0.00000000
vt 0.08854167 0.00000000
vt 0.13494185 1.00000000
vt 0.11505815 1.00000000
vt 0.13494185 0.00000000
vt 0.11505815 0.00000000
vt 0.23419618 1.00000000
vt 0.01580382 1.00000000
vt 0.23419618 0.00000000
vt 0.01580382 0.00000000
vt 0.25367871 0.00000000
vt 0.49632129 0.00000000
vt 0.25367871 1.00000000
vt 0.49632129 1.00000000
vt 0.34375000 0.00000000
vt 0.40625000 0.00000000
vt 0.34375000 1.00000000
vt 0.40625000 1.00000000
vt 0.37189421 0.00000000
vt 0.37810579 0.00000000
vt 0.37189421 1.00000000
vt 0.37810579 1.00000000
vt 0.26121291 1.00000000
vt 0.26561286 1.00000000
vt 0.26121291 0.00000000
vt 0.26561286 0.00000000
vt 0.37079817 0.00000000
vt 0.37920183 0.00000000
vt 0.37079817 1.00000000
vt 0.37920183 1.00000000
vt 0.07812500 1.00000000
vt 0.17187500 1.00000000
vt 0.07812500 0.00000000
vt 0.17187500 0.00000000
vt 0.25460288 0.00000000
vt 0.49539712 0.00000000
vt 0.25460288 1.00000000
vt 0.49539712 1.00000000
vt 0.11265952 1.00000000
vt 0.13734048 1.00000000
vt 0.11265952 0.00000000
vt 0.13734048 0.00000000
vt 0.32812500 0.00000000
vt 0.42187500 0.00000000
vt 0.32812500 1.00000000
vt 0.42187500 1.00000000
vt 0.01637069 1.00000000
vt 0.23362931 1.00000000
vt 0.01637069 0.00000000
vt 0.23362931 0.00000000
vt 0.37109375 0.00000000
vt 0.37890625 0.00000000
vt 0.37109375 1.00000000
vt 0.37890625 1.00000000
vt 0.37458194 0.00000000
vt 0.37541806 0.00000000
vt 0.37458194 1.00000000
vt 0.37541806 1.00000000
vt 0.25053143 0.00000000
vt 0.49946857 0.00000000
vt 0.25053143 1.00000000
vt 0.49946857 1.00000000
vt 0.05729167 1.00000000
vt 0.19270833 1.00000000
vt 0.05729167 0.00000000
vt 0.19270833 0.00000000
vt 0.10923222 1.00000000
vt 0.14076778 1.00000000
vt 0.10923222 0.00000000
vt 0.14076778 0.00000000
vt 0.01434126 1.00000000
vt 0.23565874 1.00000000
vt 0.01434126 0.00000000
vt 0.23565874 0.00000000
vt 0.26769537 1.00000000
vt 0.26228003 1.00000000
vt 0.26769537 0.00000000
vt 0.26228003 0.00000000
vt 0.37944476 0.00000000
vt 0.37055524 0.00000000
vt 0.37944476 1.00000000
vt 0.37055524 1.00000000
vt 0.49602783 0.00000000
vt 0.25397217 0.00000000
vt 0.49602783 1.00000000
vt 0.25397217 1.00000000
vt 0.45703125 0.00000000
vt 0.29296875 0.00000000
vt 0.45703125 1.00000000
vt 0.29296875 1.00000000
vt 0.49796642 0.00000000
vt 0.25203358 0.00000000
vt 0.49796642 1.00000000
vt 0.25203358 1.00000000
vt 0.48046875 0.00000000
vt 0.26953125 0.00000000
vt 0.48046875 1.00000000
vt 0.26953125 1.00000000
vt 0.37751379 0.00000000
vt 0.37248621 0.00000000
vt 0.37751379 1.00000000
vt 0.37248621 1.00000000
vt 0.24656587 1.00000000
vt 0.00343413 1.00000000
vt 0.24656587 0.00000000
vt 0.00343413 0.00000000
vt 0.13020833 1.00000000
vt 0.11979167 1.00000000
vt 0.13020833 0.00000000
vt 0.11979167 0.00000000
vt 0.12648679 1.00000000
vt 0.12351321 1.00000000
vt 0.12648679 0.00000000
vt 0.12351321 0.00000000
vt 0.26314211 1.00000000
vt 0.26314211 0.00000000
vt 0.38671875 0.00000000
vt 0.36328125 0.00000000
vt 0.38671875 1.00000000
vt 0.36328125 1.00000000
vt 0.37624284 0.00000000
vt 0.37375716 0.00000000
vt 0.37624284 1.00000000
vt 0.37375716 1.00000000
vt 0.49843499 0.00000000
vt 0.25156501 0.00000000
vt 0.49843499 1.00000000
vt 0.25156501 1.00000000
vt 0.13541667 1.00000000
vt 0.11458333 1.00000000
vt 0.13541667 0.00000000
vt 0.11458333 0.00000000
vt 0.12796573 1.00000000
vt 0.12203427 1.00000000
vt 0.12796573 0.00000000
vt 0.12203427 0.00000000
vt 0.24334973 1.00000000
vt 0.00665027 1.00000000
vt 0.24334973 0.00000000
vt 0.00665027 0.00000000
vt 0.25439726 0.00000000
vt 0.49560274 0.00000000
vt 0.25439726 1.00000000
vt 0.49560274 1.00000000
vt 0.30078125 0.00000000
vt 0.44921875 0.00000000
vt 0.30078125 1.00000000
vt 0.44921875 1.00000000
vt 0.37028819 0.00000000
vt 0.37971181 0.00000000
vt 0.37028819 1.00000000
vt 0.37971181 1.00000000
vt 0.26681949 1.00000000
vt 0.26414516 1.00000000
vt 0.26681949 0.00000000
vt 0.26414516 0.00000000
vt 0.13994722 1.00000000
vt 0.11005278 1.00000000
vt 0.13994722 0.00000000
vt 0.11005278 0.00000000
vt 0.24136548 1.00000000
vt 0.00863452 1.00000000
vt 0.24136548 0.00000000
vt 0.00863452 0.00000000
vt 0.21875000 1.00000000
vt 0.03125000 1.00000000
vt 0.21875000 0.00000000
vt 0.03125000 0.00000000
vt 0.31640625 0.00000000
vt 0.43359375 0.00000000
vt 0.31640625 1.00000000
vt 0.43359375 1.00000000
vt 0.37032521 0.00000000
vt 0.37967479 0.00000000
vt 0.37032521 1.00000000
vt 0.37967479 1.00000000
vt 0.25478501 0.00000000
vt 0.49521499 0.00000000
vt 0.25478501 1.00000000
vt 0.49521499 1.00000000
vt 0.26646002 1.00000000
vt 0.26464555 1.00000000
vt 0.26646002 0.00000000
vt 0.26464555 0.00000000
vt 0.26737686 1.00000000
vt 0.26316412 1.00000000
vt 0.26737686 0.00000000
vt 0.26316412 0.00000000
vt 0.26189752 1.00000000
vt 0.26776178 1.00000000
vt 0.26189752 0.00000000
vt 0.26776178 0.00000000
vt 0.11136713 1.00000000
vt 0.13863287 1.00000000
vt 0.11136713 0.00000000
vt 0.13863287 0.00000000
vt 0.00727268 1.00000000
vt 0.24272732 1.00000000
vt 0.00727268 0.00000000
vt 0.24272732 0.00000000
vt 0.02604167 1.00000000
vt 0.22395833 1.00000000
vt 0.02604167 0.00000000
vt 0.22395833 0.00000000
vt 0.25333090 0.00000000
vt 0.49666910 0.00000000
vt 0.25333090 1.00000000
vt 0.49666910 1.00000000
vt 0.34765625 0.00000000
vt 0.40234375 0.00000000
vt 0.34765625 1.00000000
vt 0.40234375 1.00000000
vt 0.37223259 0.00000000
vt 0.37776741 0.00000000
vt 0.37223259 1.00000000
vt 0.37776741 1.00000000
vt 0.11318456 1.00000000
vt 0.13681544 1.00000000
vt 0.11318456 0.00000000
vt 0.13681544 0.00000000
vt 0.00586744 1.00000000
vt 0.24413256 1.00000000
vt 0.00586744 0.00000000
vt 0.24413256 0.00000000
vt 0.02083333 1.00000000
vt 0.22916667 1.00000000
vt 0.02083333 0.00000000
vt 0.22916667 0.00000000
vt 0.37794129 0.00000000
vt 0.37205871 0.00000000
vt 0.37794129 1.00000000
vt 0.37205871 1.00000000
vt 0.49759096 0.00000000
vt 0.25240904 0.00000000
vt 0.49759096 1.00000000
vt 0.25240904 1.00000000
vt 0.47656250 0.00000000
vt 0.27343750 0.00000000
vt 0.47656250 1.00000000
vt 0.27343750 1.00000000
vt 0.26275115 1.00000000
vt 0.26354825 1.00000000
vt 0.26275115 0.00000000
vt 0.26354825 0.00000000
vt 0.37044423 0.00000000
vt 0.37955577 0.00000000
vt 0.37044423 1.00000000
vt 0.37955577 1.00000000
vt 0.25477215 0.00000000
vt 0.49522785 0.00000000
vt 0.25477215 1.00000000
vt 0.49522785 1.00000000
vt 0.32031250 0.00000000
vt 0.42968750 0.00000000
vt 0.32031250 1.00000000
vt 0.42968750 1.00000000
vt 0.10880865 1.00000000
vt 0.14119135 1.00000000
vt 0.10880865 0.00000000
vt 0.14119135 0.00000000
vt 0.26776714 1.00000000
vt 0.26156448 1.00000000
vt 0.26776714 0.00000000
vt 0.26156448 0.00000000
vt 0.01340022 1.00000000
vt 0.23659978 1.00000000
vt 0.01340022 0.00000000
vt 0.23659978 0.00000000
vt 0.05208333 1.00000000
vt 0.19791667 1.00000000
vt 0.05208333 0.00000000
vt 0.19791667 0.00000000
vt 0.25205318 0.00000000
vt 0.49794682 0.00000000
vt 0.25205318 1.00000000
vt 0.49794682 1.00000000
vt 0.35937500 0.00000000
vt 0.39062500 0.00000000
vt 0.35937500 1.00000000
vt 0.39062500 1.00000000
vt 0.37335611 0.00000000
vt 0.37664389 0.00000000
vt 0.37335611 1.00000000
vt 0.37664389 1.00000000
vt 0.25398164 0.00000000
vt 0.49601836 0.00000000
vt 0.25398164 1.00000000
vt 0.49601836 1.00000000
vt 0.33984375 0.00000000
vt 0.41015625 0.00000000
vt 0.33984375 1.00000000
vt 0.41015625 1.00000000
vt 0.37157870 0.00000000
vt 0.37842130 0.00000000
vt 0.37157870 1.00000000
vt 0.37842130 1.00000000
vt 0.26771343 1.00000000
vt 0.26128635 1.00000000
vt 0.26771343 0.00000000
vt 0.26128635 0.00000000
vt 0.10937500 1.00000000
vt 0.14062500 1.00000000
vt 0.10937500 0.00000000
vt 0.14062500 0.00000000
vt 0.12057124 1.00000000
vt 0.12942876 1.00000000
vt 0.12057124 0.00000000
vt 0.12942876 0.00000000
vt 0.00947734 1.00000000
vt 0.24052266 1.00000000
vt 0.00947734 0.00000000
vt 0.24052266 0.00000000
vt 0.11552266 1.00000000
vt 0.13447734 1.00000000
vt 0.11552266 0.00000000
vt 0.13447734 0.00000000
vt 0.00442876 1.00000000
vt 0.24557124 1.00000000
vt 0.00442876 0.00000000
vt 0.24557124 0.00000000
vt 0.01562500 1.00000000
vt 0.23437500 1.00000000
vt 0.01562500 0.00000000
vt 0.23437500 0.00000000
vt 0.26697435 1.00000000
vt 0.26077799 1.00000000
vt 0.26697435 0.00000000
vt 0.26077799 0.00000000
vt 0.25342130 0.00000000
vt 0.49657870 0.00000000
vt 0.25342130 1.00000000
vt 0.49657870 1.00000000
vt 0.28515625 0.00000000
vt 0.46484375 0.00000000
vt 0.28515625 1.00000000
vt 0.46484375 1.00000000
vt 0.37101836 0.00000000
vt 0.37898164 0.00000000
vt 0.37101836 1.00000000
vt 0.37898164 1.00000000
vt 0.25164389 0.00000000
vt 0.49835611 0.00000000
vt 0.25164389 1.00000000
vt 0.49835611 1.00000000
vt 0.26562500 0.00000000
vt 0.48437500 0.00000000
vt 0.26562500 1.00000000
vt 0.48437500 1.00000000
vt 0.37294682 0.00000000
vt 0.37705318 0.00000000
vt 0.37294682 1.00000000
vt 0.37705318 1.00000000
vt 0.26667986 1.00000000
vt 0.26080355 1.00000000
vt 0.26667986 0.00000000
vt 0.26080355 0.00000000
vt 0.07291667 1.00000000
vt 0.17708333 1.00000000
vt 0.07291667 0.00000000
vt 0.17708333 0.00000000
vt 0.11159978 1.00000000
vt 0.13840022 1.00000000
vt 0.11159978 0.00000000
vt 0.13840022 0.00000000
vt 0.01619135 1.00000000
vt 0.23380865 1.00000000
vt 0.01619135 0.00000000
vt 0.23380865 0.00000000
vt 0.30468750 0.00000000
vt 0.44531250 0.00000000
vt 0.30468750 1.00000000
vt 0.44531250 1.00000000
vt 0.37022785 0.00000000
vt 0.37977215 0.00000000
vt 0.37022785 1.00000000
vt 0.37977215 1.00000000
vt 0.25455577 0.00000000
vt 0.49544423 0.00000000
vt 0.25455577 1.00000000
vt 0.49544423 1.00000000
vt 0.26513769 1.00000000
vt 0.26605452 1.00000000
vt 0.26513769 0.00000000
vt 0.26605452 0.00000000
vt 0.39843750 0.00000000
vt 0.35156250 0.00000000
vt 0.39843750 1.00000000
vt 0.35156250 1.00000000
vt 0.37740904 0.00000000
vt 0.37259096 0.00000000
vt 0.37740904 1.00000000
vt 0.37259096 1.00000000
vt 0.49705871 0.00000000
vt 0.25294129 0.00000000
vt 0.49705871 1.00000000
vt 0.25294129 1.00000000
vt 0.10416667 1.00000000
vt 0.14583333 1.00000000
vt 0.10416667 0.00000000
vt 0.14583333 0.00000000
vt 0.11913256 1.00000000
vt 0.13086744 1.00000000
vt 0.11913256 0.00000000
vt 0.13086744 0.00000000
vt 0.01181544 1.00000000
vt 0.23818456 1.00000000
vt 0.01181544 0.00000000
vt 0.23818456 0.00000000
vt 0.25276741 0.00000000
vt 0.49723259 0.00000000
vt 0.25276741 1.00000000
vt 0.49723259 1.00000000
vt 0.27734375 0.00000000
vt 0.47265625 0.00000000
vt 0.27734375 1.00000000
vt 0.47265625 1.00000000
vt 0.37166910 0.00000000
vt 0.37833090 0.00000000
vt 0.37166910 1.00000000
vt 0.37833090 1.00000000
vt 0.09895833 1.00000000
vt 0.15104167 1.00000000
vt 0.09895833 0.00000000
vt 0.15104167 0.00000000
vt 0.11772732 1.00000000
vt 0.13227268 1.00000000
vt 0.11772732 0.00000000
vt 0.13227268 0.00000000
vt 0.01363287 1.00000000
vt 0.23636713 1.00000000
vt 0.01363287 0.00000000
vt 0.23636713 0.00000000
vt 0.26088681 1.00000000
vt 0.26635126 1.00000000
vt 0.26088681 0.00000000
vt 0.26635126 0.00000000
vt 0.26521390 1.00000000
vt 0.26144756 1.00000000
vt 0.26521390 0.00000000
vt 0.26144756 0.00000000
vt 0.26396405 1.00000000
vt 0.26238084 1.00000000
vt 0.26396405 0.00000000
vt 0.26238084 0.00000000
vt 0.37021499 0.00000000
vt 0.37978501 0.00000000
vt 0.37021499 1.00000000
vt 0.37978501 1.00000000
vt 0.25467479 0.00000000
vt 0.49532521 0.00000000
vt 0.25467479 1.00000000
vt 0.49532521 1.00000000
vt 0.30859375 0.00000000
vt 0.44140625 0.00000000
vt 0.30859375 1.00000000
vt 0.44140625 1.00000000
vt 0.15625000 1.00000000
vt 0.09375000 1.00000000
vt 0.15625000 0.00000000
vt 0.09375000 0.00000000
vt 0.13363452 1.00000000
vt 0.11636548 1.00000000
vt 0.13363452 0.00000000
vt 0.11636548 0.00000000
vt 0.23505278 1.00000000
vt 0.01494722 1.00000000
vt 0.23505278 0.00000000
vt 0.01494722 0.00000000
vt 0.26438395 1.00000000
vt 0.26203661 1.00000000
vt 0.26438395 0.00000000
vt 0.26203661 0.00000000
vt 0.25471181 0.00000000
vt 0.49528819 0.00000000
vt 0.25471181 1.00000000
vt 0.49528819 1.00000000
vt 0.32421875 0.00000000
vt 0.42578125 0.00000000
vt 0.32421875 1.00000000
vt 0.42578125 1.00000000
vt 0.37060274 0.00000000
vt 0.37939726 0.00000000
vt 0.37060274 1.00000000
vt 0.37939726 1.00000000
vt 0.13165027 1.00000000
vt 0.11834973 1.00000000
vt 0.13165027 0.00000000
vt 0.11834973 0.00000000
vt 0.24703427 1.00000000
vt 0.00296573 1.00000000
vt 0.24703427 0.00000000
vt 0.00296573 0.00000000
vt 0.23958333 1.00000000
vt 0.01041667 1.00000000
vt 0.23958333 0.00000000
vt 0.01041667 0.00000000
vt 0.37656501 0.00000000
vt 0.37343499 0.00000000
vt 0.37656501 1.00000000
vt 0.37343499 1.00000000
vt 0.49875716 0.00000000
vt 0.25124284 0.00000000
vt 0.49875716 1.00000000
vt 0.25124284 1.00000000
vt 0.48828125 0.00000000
vt 0.26171875 0.00000000
vt 0.48828125 1.00000000
vt 0.26171875 1.00000000
vt 0.26561072 1.00000000
vt 0.26561072 0.00000000
vt 0.24851321 1.00000000
vt 0.00148679 1.00000000
vt 0.24851321 0.00000000
vt 0.00148679 0.00000000
vt 0.24479167 1.00000000
vt 0.00520833 1.00000000
vt 0.24479167 0.00000000
vt 0.00520833 0.00000000
vt 0.12843413 1.00000000
vt 0.12156587 1.00000000
vt 0.12843413 0.00000000
vt 0.12156587 0.00000000
vt 0.49748621 0.00000000
vt 0.25251379 0.00000000
vt 0.49748621 1.00000000
vt 0.25251379 1.00000000
vt 0.39453125 0.00000000
vt 0.35546875 0.00000000
vt 0.39453125 1.00000000
vt 0.35546875 1.00000000
vt 0.37703358 0.00000000
vt 0.37296642 0.00000000
vt 0.37703358 1.00000000
vt 0.37296642 1.00000000
vt 0.41796875 0.00000000
vt 0.33203125 0.00000000
vt 0.41796875 1.00000000
vt 0.33203125 1.00000000
vt 0.37897217 0.00000000
vt 0.37102783 0.00000000
vt 0.37897217 1.00000000
vt 0.37102783 1.00000000
vt 0.49555524 0.00000000
vt 0.25444476 0.00000000
vt 0.49555524 1.00000000
vt 0.25444476 1.00000000
vt 0.26599380 1.00000000
vt 0.26102455 1.00000000
vt 0.26599380 0.00000000
vt 0.26102455 0.00000000
vt 0.11065874 1.00000000
vt 0.13934126 1.00000000
vt 0.11065874 0.00000000
vt 0.13934126 0.00000000
vt 0.01576778 1.00000000
vt 0.23423222 1.00000000
vt 0.01576778 0.00000000
vt 0.23423222 0.00000000
vt 0.06770833 1.00000000
vt 0.18229167 1.00000000
vt 0.06770833 0.00000000
vt 0.18229167 0.00000000
vt 0.37446857 0.00000000
vt 0.37553143 0.00000000
vt 0.37446857 1.00000000
vt 0.37553143 1.00000000
vt 0.25041806 0.00000000
vt 0.49958194 0.00000000
vt 0.25041806 1.00000000
vt 0.49958194 1.00000000
vt 0.25390625 0.00000000
vt 0.49609375 0.00000000
vt 0.25390625 1.00000000
vt 0.49609375 1.00000000
vt 0.10862931 1.00000000
vt 0.14137069 1.00000000
vt 0.10862931 0.00000000
vt 0.14137069 0.00000000
vt 0.29687500 0.00000000
vt 0.45312500 0.00000000
vt 0.29687500 1.00000000
vt 0.45312500 1.00000000
vt 0.01234048 1.00000000
vt 0.23765952 1.00000000
vt 0.01234048 0.00000000
vt 0.23765952 0.00000000
vt 0.37039712 0.00000000
vt 0.37960288 0.00000000
vt 0.37039712 1.00000000
vt 0.37960288 1.00000000
vt 0.04687500 1.00000000
vt 0.20312500 1.00000000
vt 0.04687500 0.00000000
vt 0.20312500 0.00000000
vt 0.25420183 0.00000000
vt 0.49579817 0.00000000
vt 0.25420183 1.00000000
vt 0.49579817 1.00000000
vt 0.26270503 1.00000000
vt 0.26756698 1.00000000
vt 0.26270503 0.00000000
vt 0.26756698 0.00000000
vt 0.25310579 0.00000000
vt 0.49689421 0.00000000
vt 0.25310579 1.00000000
vt 0.49689421 1.00000000
vt 0.28125000 0.00000000
vt 0.46875000 0.00000000
vt 0.28125000 1.00000000
vt 0.46875000 1.00000000
vt 0.37132129 0.00000000
vt 0.37867871 0.00000000
vt 0.37132129 1.00000000
vt 0.37867871 1.00000000
vt 0.14080382 1.00000000
vt 0.10919618 1.00000000
vt 0.14080382 0.00000000
vt 0.10919618 0.00000000
vt 0.24005815 1.00000000
vt 0.00994185 1.00000000
vt 0.24005815 0.00000000
vt 0.00994185 0.00000000
vt 0.21354167 1.00000000
vt 0.03645833 1.00000000
vt 0.21354167 0.00000000
vt 0.03645833 0.00000000
vt 0.37394451 0.00000000
vt 0.37605549 0.00000000
vt 0.37394451 1.00000000
vt 0.37605549 1.00000000
vt 0.25083328 0.00000000
vt 0.49916672 0.00000000
vt 0.25083328 1.00000000
vt 0.49916672 1.00000000
vt 0.25781250 0.00000000
vt 0.49218750 0.00000000
vt 0.25781250 1.00000000
vt 0.49218750 1.00000000
vt 0.37871105 0.00000000
vt 0.37128895 0.00000000
vt 0.37871105 1.00000000
vt 0.37128895 1.00000000
vt 0.49576254 0.00000000
vt 0.25423746 0.00000000
vt 0.49576254 1.00000000
vt 0.25423746 1.00000000
vt 0.41406250 0.00000000
vt 0.33593750 0.00000000
vt 0.41406250 1.00000000
vt 0.33593750 1.00000000
vt 0.26106701 1.00000000
vt 0.26760349 1.00000000
vt 0.26106701 0.00000000
vt 0.26760349 0.00000000
vt 0.26712666 1.00000000
vt 0.26364766 1.00000000
vt 0.26712666 0.00000000
vt 0.26364766 0.00000000
f 47/47 37/37 644/644
f 47/47 644/644 48/48
f 48/48 644/644 646/646
f 48/48 646/646 42/42
f 644/644 37/37 610/610
f 644/644 610/610 646/646
f 646/646 610/610 612/612
f 646/646 612/612 42/42
f 610/610 37/37 437/437
f 610/610 437/437 612/612
f 612/612 437/437 439/439
f 612/612 439/439 42/42
f 437/437 37/37 341/341
f 437/437 341/341 439/439
f 439/439 341/341 343/343
f 439/439 343/343 42/42
f 341/341 37/37 317/317
f 341/341 317/317 343/343
f 343/343 317/317 319/319
f 343/343 319/319 42/42
f 317/317 37/37 282/282
f 317/317 282/282 319/319
f 319/319 282/282 284/284
f 319/319 284/284 42/42
f 282/282 37/37 740/740
f 282/282 740/740 284/284
f 284/284 740/740 742/742
f 284/284 742/742 42/42
f 740/740 37/37 84/84
f 740/740 84/84 742/742
f 742/742 84/84 86/86
f 742/742 86/86 42/42
f 84/84 37/37 699/699
f 84/84 699/699 86/86
f 86/86 699/699 701/701
f 86/86 701/701 42/42
f 699/699 37/37 381/381
f 699/699 381/381 701/701
f 701/701 381/381 383/383
f 701/701 383/383 42/42
f 381/381 37/37 191/191
f 381/381 191/191 383/383
f 383/383 191/191 193/193
f 383/383 193/193 42/42
f 191/191 37/37 39/39
f 191/191 39/39 193/193
f 193/193 39/39 46/46
f 193/193 46/46 42/42
f 39/39 37/37 675/675
f 39/39 675/675 46/46
f 46/46 675/675 677/677
f 46/46 677/677 42/42
f 675/675 37/37 485/485
f 675/675 485/485 677/677
f 677/677 485/485 487/487
f 677/677 487/487 42/42
f 485/485 37/37 163/163
f 485/485 163/163 487/487
f 487/487 163/163 165/165
f 487/487 165/165 42/42
f 163/163 37/37 80/80
f 163/163 80/80 165/165
f 165/165 80/80 82/82
f 165/165 82/82 42/42
f 80/80 37/37 128/128
f 80/80 128/128 82/82
f 82/82 128/128 130/130
f 82/82 130/130 42/42
f 128/128 37/37 586/586
f 128/128 586/586 130/130
f 130/130 586/586 588/588
f 130/130 588/588 42/42
f 586/586 37/37 549/549
f 586/586 549/549 588/588
f 588/588 549/549 551/551
f 588/588 551/551 42/42
f 549/549 37/37 525/525
f 549/549 525/525 551/551
f 551/551 525/525 527/527
f 551/551 527/527 42/42
f 525/525 37/37 429/429
f 525/525 429/429 527/527
f 527/527 429/429 431/431
f 527/527 431/431 42/42
f 429/429 37/37 258/258
f 429/429 258/258 431/431
f 431/431 258/258 260/260
f 431/431 260/260 42/42
f 258/258 37/37 236/236
f 258/258 236/236 260/260
f 260/260 236/236 238/238
f 260/260 238/238 42/42
f 236/236 37/37 27/27
f 236/236 27/27 238/238
f 238/238 27/27 32/32
f 238/238 32/32 42/42
f 27/27 37/37 235/235
f 27/27 235/235 32/32
f 32/32 235/235 237/237
f 32/32 237/237 42/42
f 235/235 37/37 257/257
f 235/235 257/257 237/237
f 237/237 257/257 259/259
f 237/237 259/259 42/42
f 257/257 37/37 430/430
f 257/257 430/430 259/259
f 259/259 430/430 432/432
f 259/259 432/432 42/42
f 430/430 37/37 526/526
f 430/430 526/526 432/432
f 432/432 526/526 528/528
f 432/432 528/528 42/42
f 526/526 37/37 550/550
f 526/526 550/550 528/528
f 528/528 550/550 552/552
f 528/528 552/552 42/42
f 550/550 37/37 585/585
f 550/550 585/585 552/552
f 552/552 585/585 587/587
f 552/552 587/587 42/42
f 585/585 37/37 127/127
f 585/585 127/127 587/587
f 587/587 127/127 129/129
f 587/587 129/129 42/42
f 127/127 37/37 79/79
f 127/127 79/79 129/129
f 129/129 79/79 81/81
f 129/129 81/81 42/42
f 79/79 37/37 164/164
f 79/79 164/164 81/81
f 81/81 164/164 166/166
f 81/81 166/166 42/42
f 164/164 37/37 486/486
f 164/164 486/486 166/166
f 166/166 486/486 488/488
f 166/166 488/488 42/42
f 486/486 37/37 676/676
f 486/486 676/676 488/488
f 488/488 676/676 678/678
f 488/488 678/678 42/42
f 676/676 37/37 38/38
f 676/676 38/38 678/678
f 678/678 38/38 43/43
f 678/678 43/43 42/42
f 38/38 37/37 192/192
f 38/38 192/192 43/43
f 43/43 192/192 194/194
f 43/43 194/194 42/42
f 192/192 37/37 382/382
f 192/192 382/382 194/194
f 194/194 382/382 384/384
f 194/194 384/384 42/42
f 382/382 37/37 700/700
f 382/382 700/700 384/384
f 384/384 700/700 702/702
f 384/384 702/702 42/42
f 700/700 37/37 83/83
f 700/700 83/83 702/702
f 702/702 83/83 85/85
f 702/702 85/85 42/42
f 83/83 37/37 739/739
f 83/83 739/739 85/85
f 85/85 739/739 741/741
f 85/85 741/741 42/42
f 739/739 37/37 281/281
f 739/739 281/281 741/741
f 741/741 281/281 283/283
f 741/741 283/283 42/42
f 281/281 37/37 318/318
f 281/281 318/318 283/283
f 283/283 318/318 320/320
f 283/283 320/320 42/42
f 318/318 37/37 342/342
f 318/318 342/342 320/320
f 320/320 342/342 344/344
f 320/320 344/344 42/42
f 342/342 37/37 438/438
f 342/342 438/438 344/344
f 344/344 438/438 440/440
f 344/344 440/440 42/42
f 438/438 37/37 609/609
f 438/438 609/609 440/440
f 440/440 609/609 611/611
f 440/440 611/611 42/42
f 609/609 37/37 643/643
f 609/609 643/643 611/611
f 611/611 643/643 645/645
f 611/611 645/645 42/42
f 643/643 37/37 47/47
f 643/643 47/47 645/645
f 645/645 47/47 48/48
f 645/645 48/48 42/42
f 70/70 69/69 687/687
f 70/70 687/687 689/689
f 689/689 687/687 751/751
f 689/689 751/751 753/753
f 753/753 751/751 622/622
f 753/753 622/622 624/624
f 624/624 622/622 473/473
f 624/624 473/473 475/475
f 475/475 473/473 224/224
f 475/475 224/224 226/226
f 226/226 224/224 354/354
f 226/226 354/354 356/356
f 356/356 354/354 541/541
f 356/356 541/541 543/543
f 543/543 541/541 735/735
f 543/543 735/735 737/737
f 737/737 735/735 461/461
f 737/737 461/461 463/463
f 463/463 461/461 104/104
f 463/463 104/104 106/106
f 106/106 104/104 204/204
f 106/106 204/204 206/206
f 206/206 204/204 711/711
f 206/206 711/711 713/713
f 713/713 711/711 273/273
f 713/713 273/273 275/275
f 275/275 273/273 497/497
f 275/275 497/497 499/499
f 499/499 497/497 569/569
f 499/499 569/569 571/571
f 571/571 569/569 41/41
f 571/571 41/41 45/45
f 45/45 41/41 297/297
f 45/45 297/297 299/299
f 299/299 297/297 369/369
f 299/299 369/369 371/371
f 371/371 369/369 605/605
f 371/371 605/605 607/607
f 607/607 605/605 151/151
f 607/607 151/151 153/153
f 153/153 151/151 664/664
f 153/153 664/664 666/666
f 666/666 664/664 764/764
f 666/666 764/764 766/766
f 766/766 764/764 417/417
f 766/766 417/417 419/419
f 419/419 417/417 143/143
f 419/419 143/143 145/145
f 145/145 143/143 337/337
f 145/145 337/337 339/339
f 339/339 337/337 514/514
f 339/339 514/514 516/516
f 516/516 514/514 656/656
f 516/516 656/656 658/658
f 658/658 656/656 405/405
f 658/658 405/405 407/407
f 407/407 405/405 246/246
f 407/407 246/246 248/248
f 248/248 246/246 115/115
f 248/248 115/115 117/117
f 117/117 115/115 179/179
f 117/117 179/179 181/181
f 181/181 179/179 11/11
f 181/181 11/11 12/12
f 12/12 11/11 180/180
f 12/12 180/180 182/182
f 182/182 180/180 116/116
f 182/182 116/116 118/118
f 118/118 116/116 245/245
f 118/118 245/245 247/247
f 247/247 245/245 406/406
f 247/247 406/406 408/408
f 408/408 406/406 655/655
f 408/408 655/655 657/657
f 657/657 655/655 513/513
f 657/657 513/513 515/515
f 515/515 513/513 338/338
f 515/515 338/338 340/340
f 340/340 338/338 144/144
f 340/340 144/144 146/146
f 146/146 144/144 418/418
f 146/146 418/418 420/420
f 420/420 418/418 763/763
f 420/420 763/763 765/765
f 765/765 763/763 663/663
f 765/765 663/663 665/665
f 665/665 663/663 152/152
f 665/665 152/152 154/154
f 154/154 152/152 606/606
f 154/154 606/606 608/608
f 608/608 606/606 370/370
f 608/608 370/370 372/372
f 372/372 370/370 298/298
f 372/372 298/298 300/300
f 300/300 298/298 40/40
f 300/300 40/40 44/44
f 44/44 40/40 570/570
f 44/44 570/570 572/572
f 572/572 570/570 498/498
f 572/572 498/498 500/500
f 500/500 498/498 274/274
f 500/500 274/274 276/276
f 276/276 274/274 712/712
f 276/276 712/712 714/714
f 714/714 712/712 203/203
f 714/714 203/203 205/205
f 205/205 203/203 103/103
f 205/205 103/103 105/105
f 105/105 103/103 462/462
f 105/105 462/462 464/464
f 464/464 462/462 736/736
f 464/464 736/736 738/738
f 738/738 736/736 542/542
f 738/738 542/542 544/544
f 544/544 542/542 353/353
f 544/544 353/353 355/355
f 355/355 353/353 223/223
f 355/355 223/223 225/225
f 225/225 223/223 474/474
f 225/225 474/474 476/476
f 476/476 474/474 621/621
f 476/476 621/621 623/623
f 623/623 621/621 752/752
f 623/623 752/752 754/754
f 754/754 752/752 688/688
f 754/754 688/688 690/690
f 690/690 688/688 69/69
f 690/690 69/69 70/70
f 13/13 1/1 640/640
f 13/13 640/640 14/14
f 14/14 640/640 642/642
f 14/14 642/642 6/6
f 640/640 1/1 618/618
f 640/640 618/618 642/642
f 642/642 618/618 620/620
f 642/642 620/620 6/6
f 618/618 1/1 445/445
f 618/618 445/445 620/620
f 620/620 445/445 447/447
f 620/620 447/447 6/6
f 445/445 1/1 349/349
f 445/445 349/349 447/447
f 447/447 349/349 351/351
f 447/447 351/351 6/6
f 349/349 1/1 325/325
f 349/349 325/325 351/351
f 351/351 325/325 327/327
f 351/351 327/327 6/6
f 325/325 1/1 290/290
f 325/325 290/290 327/327
f 327/327 290/290 292/292
f 327/327 292/292 6/6
f 290/290 1/1 748/748
f 290/290 748/748 292/292
f 292/292 748/748 750/750
f 292/292 750/750 6/6
f 748/748 1/1 54/54
f 748/748 54/54 750/750
f 750/750 54/54 56/56
f 750/750 56/56 6/6
f 54/54 1/1 715/715
f 54/54 715/715 56/56
f 56/56 715/715 717/717
f 56/56 717/717 6/6
f 715/715 1/1 393/393
f 715/715 393/393 717/717
f 717/717 393/393 395/395
f 717/717 395/395 6/6
f 393/393 1/1 187/187
f 393/393 187/187 395/395
f 395/395 187/187 189/189
f 395/395 189/189 6/6
f 187/187 1/1 3/3
f 187/187 3/3 189/189
f 189/189 3/3 10/10
f 189/189 10/10 6/6
f 3/3 1/1 683/683
f 3/3 683/683 10/10
f 10/10 683/683 685/685
f 10/10 685/685 6/6
f 683/683 1/1 481/481
f 683/683 481/481 685/685
f 685/685 481/481 483/483
f 685/685 483/483 6/6
f 481/481 1/1 155/155
f 481/481 155/155 483/483
f 483/483 155/155 157/157
f 483/483 157/157 6/6
f 155/155 1/1 50/50
f 155/155 50/50 157/157
f 157/157 50/50 52/52
f 157/157 52/52 6/6
f 50/50 1/1 124/124
f 50/50 124/124 52/52
f 52/52 124/124 126/126
f 52/52 126/126 6/6
f 124/124 1/1 582/582
f 124/124 582/582 126/126
f 126/126 582/582 584/584
f 126/126 584/584 6/6
f 582/582 1/1 545/545
f 582/582 545/545 584/584
f 584/584 545/545 547/547
f 584/584 547/547 6/6
f 545/545 1/1 521/521
f 545/545 521/521 547/547
f 547/547 521/521 523/523
f 547/547 523/523 6/6
f 521/521 1/1 425/425
f 521/521 425/425 523/523
f 523/523 425/425 427/427
f 523/523 427/427 6/6
f 425/425 1/1 254/254
f 425/425 254/254 427/427
f 427/427 254/254 256/256
f 427/427 256/256 6/6
f 254/254 1/1 232/232
f 254/254 232/232 256/256
f 256/256 232/232 234/234
f 256/256 234/234 6/6
f 232/232 1/1 87/87
f 232/232 87/87 234/234
f 234/234 87/87 88/88
f 234/234 88/88 6/6
f 87/87 1/1 231/231
f 87/87 231/231 88/88
f 88/88 231/231 233/233
f 88/88 233/233 6/6
f 231/231 1/1 253/253
f 231/231 253/253 233/233
f 233/233 253/253 255/255
f 233/233 255/255 6/6
f 253/253 1/1 426/426
f 253/253 426/426 255/255
f 255/255 426/426 428/428
f 255/255 428/428 6/6
f 426/426 1/1 522/522
f 426/426 522/522 428/428
f 428/428 522/522 524/524
f 428/428 524/524 6/6
f 522/522 1/1 546/546
f 522/522 546/546 524/524
f 524/524 546/546 548/548
f 524/524 548/548 6/6
f 546/546 1/1 581/581
f 546/546 581/581 548/548
f 548/548 581/581 583/583
f 548/548 583/583 6/6
f 581/581 1/1 123/123
f 581/581 123/123 583/583
f 583/583 123/123 125/125
f 583/583 125/125 6/6
f 123/123 1/1 49/49
f 123/123 49/49 125/125
f 125/125 49/49 51/51
f 125/125 51/51 6/6
f 49/49 1/1 156/156
f 49/49 156/156 51/51
f 51/51 156/156 158/158
f 51/51 158/158 6/6
f 156/156 1/1 482/482
f 156/156 482/482 158/158
f 158/158 482/482 484/484
f 158/158 484/484 6/6
f 482/482 1/1 684/684
f 482/482 684/684 484/484
f 484/484 684/684 686/686
f 484/484 686/686 6/6
f 684/684 1/1 2/2
f 684/684 2/2 686/686
f 686/686 2/2 7/7
f 686/686 7/7 6/6
f 2/2 1/1 188/188
f 2/2 188/188 7/7
f 7/7 188/188 190/190
f 7/7 190/190 6/6
f 188/188 1/1 394/394
f 188/188 394/394 190/190
f 190/190 394/394 396/396
f 190/190 396/396 6/6
f 394/394 1/1 716/716
f 394/394 716/716 396/396
f 396/396 716/716 718/718
f 396/396 718/718 6/6
f 716/716 1/1 53/53
f 716/716 53/53 718/718
f 718/718 53/53 55/55
f 718/718 55/55 6/6
f 53/53 1/1 747/747
f 53/53 747/747 55/55
f 55/55 747/747 749/749
f 55/55 749/749 6/6
f 747/747 1/1 289/289
f 747/747 289/289 749/749
f 749/749 289/289 291/291
f 749/749 291/291 6/6
f 289/289 1/1 326/326
f 289/289 326/326 291/291
f 291/291 326/326 328/328
f 291/291 328/328 6/6
f 326/326 1/1 350/350
f 326/326 350/350 328/328
f 328/328 350/350 352/352
f 328/328 352/352 6/6
f 350/350 1/1 446/446
f 350/350 446/446 352/352
f 352/352 446/446 448/448
f 352/352 448/448 6/6
f 446/446 1/1 617/617
f 446/446 617/617 448/448
f 448/448 617/617 619/619
f 448/448 619/619 6/6
f 617/617 1/1 639/639
f 617/617 639/639 619/619
f 619/619 639/639 641/641
f 619/619 641/641 6/6
f 639/639 1/1 13/13
f 639/639 13/13 641/641
f 641/641 13/13 14/14
f 641/641 14/14 6/6
f 34/34 33/33 695/695
f 34/34 695/695 697/697
f 697/697 695/695 759/759
f 697/697 759/759 761/761
f 761/761 759/759 630/630
f 761/761 630/630 632/632
f 632/632 630/630 469/469
f 632/632 469/469 471/471
f 471/471 469/469 220/220
f 471/471 220/220 222/222
f 222/222 220/220 362/362
f 222/222 362/362 364/364
f 364/364 362/362 537/537
f 364/364 537/537 539/539
f 539/539 537/537 731/731
f 539/539 731/731 733/733
f 733/733 731/731 457/457
f 733/733 457/457 459/459
f 459/459 457/457 100/100
f 459/459 100/100 102/102
f 102/102 100/100 212/212
f 102/102 212/212 214/214
f 214/214 212/212 703/703
f 214/214 703/703 705/705
f 705/705 703/703 269/269
f 705/705 269/269 271/271
f 271/271 269/269 493/493
f 271/271 493/493 495/495
f 495/495 493/493 577/577
f 495/495 577/577 579/579
f 579/579 577/577 5/5
f 579/579 5/5 9/9
f 9/9 5/5 293/293
f 9/9 293/293 295/295
f 295/295 293/293 377/377
f 295/295 377/377 379/379
f 379/379 377/377 601/601
f 379/379 601/601 603/603
f 603/603 601/601 167/167
f 603/603 167/167 169/169
f 169/169 167/167 660/660
f 169/169 660/660 662/662
f 662/662 660/660 772/772
f 662/662 772/772 774/774
f 774/774 772/772 413/413
f 774/774 413/413 415/415
f 415/415 413/413 139/139
f 415/415 139/139 141/141
f 141/141 139/139 333/333
f 141/141 333/333 335/335
f 335/335 333/333 510/510
f 335/335 510/510 512/512
f 512/512 510/510 652/652
f 512/512 652/652 654/654
f 654/654 652/652 401/401
f 654/654 401/401 403/403
f 403/403 401/401 242/242
f 403/403 242/242 244/244
f 244/244 242/242 111/111
f 244/244 111/111 113/113
f 113/113 111/111 175/175
f 113/113 175/175 177/177
f 177/177 175/175 71/71
f 177/177 71/71 72/72
f 72/72 71/71 176/176
f 72/72 176/176 178/178
f 178/178 176/176 112/112
f 178/178 112/112 114/114
f 114/114 112/112 241/241
f 114/114 241/241 243/243
f 243/243 241/241 402/402
f 243/243 402/402 404/404
f 404/404 402/402 651/651
f 404/404 651/651 653/653
f 653/653 651/651 509/509
f 653/653 509/509 511/511
f 511/511 509/509 334/334
f 511/511 334/334 336/336
f 336/336 334/334 140/140
f 336/336 140/140 142/142
f 142/142 140/140 414/414
f 142/142 414/414 416/416
f 416/416 414/414 771/771
f 416/416 771/771 773/773
f 773/773 771/771 659/659
f 773/773 659/659 661/661
f 661/661 659/659 168/168
f 661/661 168/168 170/170
f 170/170 168/168 602/602
f 170/170 602/602 604/604
f 604/604 602/602 378/378
f 604/604 378/378 380/380
f 380/380 378/378 294/294
f 380/380 294/294 296/296
f 296/296 294/294 4/4
f 296/296 4/4 8/8
f 8/8 4/4 578/578
f 8/8 578/578 580/580
f 580/580 578/578 494/494
f 580/580 494/494 496/496
f 496/496 494/494 270/270
f 496/496 270/270 272/272
f 272/272 270/270 704/704
f 272/272 704/704 706/706
f 706/706 704/704 211/211
f 706/706 211/211 213/213
f 213/213 211/211 99/99
f 213/213 99/99 101/101
f 101/101 99/99 458/458
f 101/101 458/458 460/460
f 460/460 458/458 732/732
f 460/460 732/732 734/734
f 734/734 732/732 538/538
f 734/734 538/538 540/540
f 540/540 538/538 361/361
f 540/540 361/361 363/363
f 363/363 361/361 219/219
f 363/363 219/219 221/221
f 221/221 219/219 470/470
f 221/221 470/470 472/472
f 472/472 470/470 629/629
f 472/472 629/629 631/631
f 631/631 629/629 760/760
f 631/631 760/760 762/762
f 762/762 760/760 696/696
f 762/762 696/696 698/698
f 698/698 696/696 33/33
f 698/698 33/33 34/34
f 73/73 59/59 636/636
f 73/73 636/636 78/78
f 78/78 636/636 638/638
f 78/78 638/638 64/64
f 636/636 59/59 614/614
f 636/636 614/614 638/638
f 638/638 614/614 616/616
f 638/638 616/616 64/64
f 614/614 59/59 441/441
f 614/614 441/441 616/616
f 616/616 441/441 443/443
f 616/616 443/443 64/64
f 441/441 59/59 345/345
f 441/441 345/345 443/443
f 443/443 345/345 347/347
f 443/443 347/347 64/64
f 345/345 59/59 321/321
f 345/345 321/321 347/347
f 347/347 321/321 323/323
f 347/347 323/323 64/64
f 321/321 59/59 286/286
f 321/321 286/286 323/323
f 323/323 286/286 288/288
f 323/323 288/288 64/64
f 286/286 59/59 744/744
f 286/286 744/744 288/288
f 288/288 744/744 746/746
f 288/288 746/746 64/64
f 744/744 59/59 20/20
f 744/744 20/20 746/746
f 746/746 20/20 22/22
f 746/746 22/22 64/64
f 20/20 59/59 707/707
f 20/20 707/707 22/22
f 22/22 707/707 709/709
f 22/22 709/709 64/64
f 707/707 59/59 389/389
f 707/707 389/389 709/709
f 709/709 389/389 391/391
f 709/709 391/391 64/64
f 389/389 59/59 195/195
f 389/389 195/195 391/391
f 391/391 195/195 197/197
f 391/391 197/197 64/64
f 195/195 59/59 61/61
f 195/195 61/61 197/197
f 197/197 61/61 68/68
f 197/197 68/68 64/64
f 61/61 59/59 679/679
f 61/61 679/679 68/68
f 68/68 679/679 681/681
f 68/68 681/681 64/64
f 679/679 59/59 489/489
f 679/679 489/489 681/681
f 681/681 489/489 491/491
f 681/681 491/491 64/64
f 489/489 59/59 171/171
f 489/489 171/171 491/491
f 491/491 171/171 173/173
f 491/491 173/173 64/64
f 171/171 59/59 16/16
f 171/171 16/16 173/173
f 173/173 16/16 18/18
f 173/173 18/18 64/64
f 16/16 59/59 132/132
f 16/16 132/132 18/18
f 18/18 132/132 134/134
f 18/18 134/134 64/64
f 132/132 59/59 590/590
f 132/132 590/590 134/134
f 134/134 590/590 592/592
f 134/134 592/592 64/64
f 590/590 59/59 553/553
f 590/590 553/553 592/592
f 592/592 553/553 555/555
f 592/592 555/555 64/64
f 553/553 59/59 529/529
f 553/553 529/529 555/555
f 555/555 529/529 531/531
f 555/555 531/531 64/64
f 529/529 59/59 433/433
f 529/529 433/433 531/531
f 531/531 433/433 435/435
f 531/531 435/435 64/64
f 433/433 59/59 262/262
f 433/433 262/262 435/435
f 435/435 262/262 264/264
f 435/435 264/264 64/64
f 262/262 59/59 228/228
f 262/262 228/228 264/264
f 264/264 228/228 230/230
f 264/264 230/230 64/64
f 228/228 59/59 57/57
f 228/228 57/57 230/230
f 230/230 57/57 58/58
f 230/230 58/58 64/64
f 57/57 59/59 227/227
f 57/57 227/227 58/58
f 58/58 227/227 229/229
f 58/58 229/229 64/64
f 227/227 59/59 261/261
f 227/227 261/261 229/229
f 229/229 261/261 263/263
f 229/229 263/263 64/64
f 261/261 59/59 434/434
f 261/261 434/434 263/263
f 263/263 434/434 436/436
f 263/263 436/436 64/64
f 434/434 59/59 530/530
f 434/434 530/530 436/436
f 436/436 530/530 532/532
f 436/436 532/532 64/64
f 530/530 59/59 554/554
f 530/530 554/554 532/532
f 532/532 554/554 556/556
f 532/532 556/556 64/64
f 554/554 59/59 589/589
f 554/554 589/589 556/556
f 556/556 589/589 591/591
f 556/556 591/591 64/64
f 589/589 59/59 131/131
f 589/589 131/131 591/591
f 591/591 131/131 133/133
f 591/591 133/133 64/64
f 131/131 59/59 15/15
f 131/131 15/15 133/133
f 133/133 15/15 17/17
f 133/133 17/17 64/64
f 15/15 59/59 172/172
f 15/15 172/172 17/17
f 17/17 172/172 174/174
f 17/17 174/174 64/64
f 172/172 59/59 490/490
f 172/172 490/490 174/174
f 174/174 490/490 492/492
f 174/174 492/492 64/64
f 490/490 59/59 680/680
f 490/490 680/680 492/492
f 492/492 680/680 682/682
f 492/492 682/682 64/64
f 680/680 59/59 60/60
f 680/680 60/60 682/682
f 682/682 60/60 65/65
f 682/682 65/65 64/64
f 60/60 59/59 196/196
f 60/60 196/196 65/65
f 65/65 196/196 198/198
f 65/65 198/198 64/64
f 196/196 59/59 390/390
f 196/196 390/390 198/198
f 198/198 390/390 392/392
f 198/198 392/392 64/64
f 390/390 59/59 708/708
f 390/390 708/708 392/392
f 392/392 708/708 710/710
f 392/392 710/710 64/64
f 708/708 59/59 19/19
f 708/708 19/19 710/710
f 710/710 19/19 21/21
f 710/710 21/21 64/64
f 19/19 59/59 743/743
f 19/19 743/743 21/21
f 21/21 743/743 745/745
f 21/21 745/745 64/64
f 743/743 59/59 285/285
f 743/743 285/285 745/745
f 745/745 285/285 287/287
f 745/745 287/287 64/64
f 285/285 59/59 322/322
f 285/285 322/322 287/287
f 287/287 322/322 324/324
f 287/287 324/324 64/64
f 322/322 59/59 346/346
f 322/322 346/346 324/324
f 324/324 346/346 348/348
f 324/324 348/348 64/64
f 346/346 59/59 442/442
f 346/346 442/442 348/348
f 348/348 442/442 444/444
f 348/348 444/444 64/64
f 442/442 59/59 613/613
f 442/442 613/613 444/444
f 444/444 613/613 615/615
f 444/444 615/615 64/64
f 613/613 59/59 635/635
f 613/613 635/635 615/615
f 615/615 635/635 637/637
f 615/615 637/637 64/64
f 635/635 59/59 73/73
f 635/635 73/73 637/637
f 637/637 73/73 78/78
f 637/637 78/78 64/64
f 90/90 89/89 691/691
f 90/90 691/691 693/693
f 693/693 691/691 755/755
f 693/693 755/755 757/757
f 757/757 755/755 626/626
f 757/757 626/626 628/628
f 628/628 626/626 465/465
f 628/628 465/465 467/467
f 467/467 465/465 216/216
f 467/467 216/216 218/218
f 218/218 216/216 358/358
f 218/218 358/358 360/360
f 360/360 358/358 533/533
f 360/360 533/533 535/535
f 535/535 533/533 727/727
f 535/535 727/727 729/729
f 729/729 727/727 453/453
f 729/729 453/453 455/455
f 455/455 453/453 108/108
f 455/455 108/108 110/110
f 110/110 108/108 208/208
f 110/110 208/208 210/210
f 210/210 208/208 719/719
f 210/210 719/719 721/721
f 721/721 719/719 265/265
f 721/721 265/265 267/267
f 267/267 265/265 501/501
f 267/267 501/501 503/503
f 503/503 501/501 573/573
f 503/503 573/573 575/575
f 575/575 573/573 63/63
f 575/575 63/63 67/67
f 67/67 63/63 301/301
f 67/67 301/301 303/303
f 303/303 301/301 373/373
f 303/303 373/373 375/375
f 375/375 373/373 597/597
f 375/375 597/597 599/599
f 599/599 597/597 159/159
f 599/599 159/159 161/161
f 161/161 159/159 668/668
f 161/161 668/668 670/670
f 670/670 668/668 768/768
f 670/670 768/768 770/770
f 770/770 768/768 409/409
f 770/770 409/409 411/411
f 411/411 409/409 135/135
f 411/411 135/135 137/137
f 137/137 135/135 329/329
f 137/137 329/329 331/331
f 331/331 329/329 518/518
f 331/331 518/518 520/520
f 520/520 518/518 648/648
f 520/520 648/648 650/650
f 650/650 648/648 397/397
f 650/650 397/397 399/399
f 399/399 397/397 250/250
f 399/399 250/250 252/252
f 252/252 250/250 119/119
f 252/252 119/119 121/121
f 121/121 119/119 183/183
f 121/121 183/183 185/185
f 185/185 183/183 35/35
f 185/185 35/35 36/36
f 36/36 35/35 184/184
f 36/36 184/184 186/186
f 186/186 184/184 120/120
f 186/186 120/120 122/122
f 122/122 120/120 249/249
f 122/122 249/249 251/251
f 251/251 249/249 398/398
f 251/251 398/398 400/400
f 400/400 398/398 647/647
f 400/400 647/647 649/649
f 649/649 647/647 517/517
f 649/649 517/517 519/519
f 519/519 517/517 330/330
f 519/519 330/330 332/332
f 332/332 330/330 136/136
f 332/332 136/136 138/138
f 138/138 136/136 410/410
f 138/138 410/410 412/412
f 412/412 410/410 767/767
f 412/412 767/767 769/769
f 769/769 767/767 667/667
f 769/769 667/667 669/669
f 669/669 667/667 160/160
f 669/669 160/160 162/162
f 162/162 160/160 598/598
f 162/162 598/598 600/600
f 600/600 598/598 374/374
f 600/600 374/374 376/376
f 376/376 374/374 302/302
f 376/376 302/302 304/304
f 304/304 302/302 62/62
f 304/304 62/62 66/66
f 66/66 62/62 574/574
f 66/66 574/574 576/576
f 576/576 574/574 502/502
f 576/576 502/502 504/504
f 504/504 502/502 266/266
f 504/504 266/266 268/268
f 268/268 266/266 720/720
f 268/268 720/720 722/722
f 722/722 720/720 207/207
f 722/722 207/207 209/209
f 209/209 207/207 107/107
f 209/209 107/107 109/109
f 109/109 107/107 454/454
f 109/109 454/454 456/456
f 456/456 454/454 728/728
f 456/456 728/728 730/730
f 730/730 728/728 534/534
f 730/730 534/534 536/536
f 536/536 534/534 357/357
f 536/536 357/357 359/359
f 359/359 357/357 215/215
f 359/359 215/215 217/217
f 217/217 215/215 466/466
f 217/217 466/466 468/468
f 468/468 466/466 625/625
f 468/468 625/625 627/627
f 627/627 625/625 756/756
f 627/627 756/756 758/758
f 758/758 756/756 692/692
f 758/758 692/692 694/694
f 694/694 692/692 89/89
f 694/694 89/89 90/90
f 30/30 31/31 28/28
f 74/74 30/30 28/28
f 28/28 31/31 29/29
f 29/29 74/74 28/28
f 30/30 77/77 31/31
f 76/76 30/30 74/74
f 76/76 77/77 30/30
f 31/31 77/77 29/29
f 75/75 74/74 29/29
f 29/29 77/77 75/75
f 75/75 76/76 74/74
f 77/77 76/76 75/75
f 239/239 240/240 368/368
f 239/239 368/368 366/366
f 366/366 368/368 567/567
f 366/366 567/567 565/565
f 565/565 567/567 595/595
f 565/565 595/595 593/593
f 593/593 595/595 93/93
f 593/593 93/93 91/91
f 91/91 93/93 563/563
f 91/91 563/563 561/561
f 561/561 563/563 150/150
f 561/561 150/150 148/148
f 148/148 150/150 673/673
f 148/148 673/673 671/671
f 671/671 673/673 560/560
f 671/671 560/560 558/558
f 558/558 560/560 479/479
f 558/558 479/479 477/477
f 477/477 479/479 451/451
f 477/477 451/451 449/449
f 449/449 451/451 98/98
f 449/449 98/98 96/96
f 96/96 98/98 26/26
f 96/96 26/26 24/24
f 24/24 26/26 778/778
f 24/24 778/778 776/776
f 776/776 778/778 423/423
f 776/776 423/423 421/421
f 421/421 423/423 387/387
f 421/421 387/387 385/385
f 385/385 387/387 316/316
f 385/385 316/316 314/314
f 314/314 316/316 201/201
f 314/314 201/201 199/199
f 199/199 201/201 726/726
f 199/199 726/726 724/724
f 724/724 726/726 311/311
f 724/724 311/311 309/309
f 309/309 311/311 781/781
f 309/309 781/781 779/779
f 779/779 781/781 279/279
f 779/779 279/279 277/277
f 277/277 279/279 307/307
f 277/277 307/307 305/305
f 305/305 307/307 508/508
f 305/305 508/508 506/506
f 506/506 508/508 634/634
f 506/506 634/634 633/633
f 633/633 634/634 507/507
f 633/633 507/507 505/505
f 505/505 507/507 308/308
f 505/505 308/308 306/306
f 306/306 308/308 280/280
f 306/306 280/280 278/278
f 278/278 280/280 782/782
f 278/278 782/782 780/780
f 780/780 782/782 312/312
f 780/780 312/312 310/310
f 310/310 312/312 725/725
f 310/310 725/725 723/723
f 723/723 725/725 202/202
f 723/723 202/202 200/200
f 200/200 202/202 315/315
f 200/200 315/315 313/313
f 313/313 315/315 388/388
f 313/313 388/388 386/386
f 386/386 388/388 424/424
f 386/386 424/424 422/422
f 422/422 424/424 777/777
f 422/422 777/777 775/775
f 775/775 777/777 25/25
f 775/775 25/25 23/23
f 23/23 25/25 97/97
f 23/23 97/97 95/95
f 95/95 97/97 452/452
f 95/95 452/452 450/450
f 450/450 452/452 480/480
f 450/450 480/480 478/478
f 478/478 480/480 559/559
f 478/478 559/559 557/557
f 557/557 559/559 674/674
f 557/557 674/674 672/672
f 672/672 674/674 149/149
f 672/672 149/149 147/147
f 147/147 149/149 564/564
f 147/147 564/564 562/562
f 562/562 564/564 94/94
f 562/562 94/94 92/92
f 92/92 94/94 596/596
f 92/92 596/596 594/594
f 594/594 596/596 568/568
f 594/594 568/568 566/566
f 566/566 568/568 367/367
f 566/566 367/367 365/365
f 365/365 367/367 240/240
f 365/365 240/240 239/239